<svg width="125" height="36" viewBox="0 0 125 36" fill="none" xmlns="http://www.w3.org/2000/svg">
<path d="M120.37 36H4.62963C2.08449 36 0 33.9739 0 31.5V4.5C0 2.02613 2.08449 3.33786e-06 4.62963 3.33786e-06H120.37C122.915 3.33786e-06 125 2.02613 125 4.5V31.5C125 33.9739 122.915 36 120.37 36Z" fill="black"/>
<path d="M120.37 0.721127C122.514 0.721127 124.258 2.4165 124.258 4.5V31.5C124.258 33.5835 122.514 35.2789 120.37 35.2789H4.62963C2.48611 35.2789 0.741898 33.5835 0.741898 31.5V4.5C0.741898 2.4165 2.48611 0.721127 4.62963 0.721127H120.37ZM120.37 3.33786e-06H4.62963C2.08449 3.33786e-06 0 2.02613 0 4.5V31.5C0 33.9739 2.08449 36 4.62963 36H120.37C122.915 36 125 33.9739 125 31.5V4.5C125 2.02613 122.915 3.33786e-06 120.37 3.33786e-06Z" fill="#A6A6A6"/>
<path d="M8.96748 6.78477C8.69549 7.06152 8.53809 7.49239 8.53809 8.0504V27.9539C8.53809 28.5119 8.69549 28.9428 8.96748 29.2195L9.03461 29.2803L20.5091 18.1315V17.8683L9.03461 6.71952L8.96748 6.78477Z" fill="white"/>
<path d="M25.719 21.8496L21.8984 18.1315V17.8682L25.7237 14.1501L25.8093 14.1985L30.3394 16.7039C31.6322 17.4149 31.6322 18.5849 30.3394 19.3004L25.8093 21.8012L25.719 21.8496Z" fill="white"/>
<path d="M25.1147 22.4936L21.2038 18.6922L9.66211 29.9119C10.0915 30.3506 10.7917 30.4035 11.588 29.9647L25.1147 22.4936Z" fill="white"/>
<path d="M25.1147 13.5062L11.588 6.03512C10.7917 5.60087 10.0915 5.65374 9.66211 6.09249L21.2038 17.3076L25.1147 13.5062Z" fill="white"/>
<path d="M43.9048 9.21861C43.9048 9.97011 43.6733 10.572 43.2173 11.0209C42.693 11.553 42.0101 11.8207 41.1733 11.8207C40.3736 11.8207 39.6907 11.5485 39.1305 11.0119C38.5692 10.4674 38.2891 9.79911 38.2891 8.99923C38.2891 8.19936 38.5692 7.53111 39.1305 6.99111C39.6907 6.44998 40.3736 6.17773 41.1733 6.17773C41.5715 6.17773 41.9511 6.25761 42.3134 6.40611C42.6745 6.55573 42.9685 6.75823 43.1814 7.00798L42.6976 7.48273C42.3261 7.05636 41.8203 6.84599 41.1733 6.84599C40.59 6.84599 40.0842 7.04398 39.6548 7.44336C39.23 7.84386 39.0171 8.36248 39.0171 8.99923C39.0171 9.63598 39.23 10.1591 39.6548 10.5596C40.0842 10.9545 40.59 11.157 41.1733 11.157C41.7925 11.157 42.3134 10.9545 42.7242 10.5551C42.9951 10.2907 43.149 9.92623 43.1895 9.46048H41.1733V8.81023H43.8631C43.8955 8.95086 43.9048 9.08698 43.9048 9.21861Z" fill="white" stroke="white" stroke-width="0.16" stroke-miterlimit="10"/>
<path d="M48.1726 6.96438H45.6459V8.67438H47.9237V9.32463H45.6459V11.0346H48.1726V11.6973H44.9307V6.30176H48.1726V6.96438Z" fill="white" stroke="white" stroke-width="0.16" stroke-miterlimit="10"/>
<path d="M51.184 11.6973H50.4687V6.96438H48.9189V6.30176H52.7349V6.96438H51.184V11.6973Z" fill="white" stroke="white" stroke-width="0.16" stroke-miterlimit="10"/>
<path d="M55.4971 11.6973V6.30176H56.2112V11.6973H55.4971Z" fill="white" stroke="white" stroke-width="0.16" stroke-miterlimit="10"/>
<path d="M59.3764 11.6973H58.6669V6.96438H57.1113V6.30176H60.9319V6.96438H59.3764V11.6973Z" fill="white" stroke="white" stroke-width="0.16" stroke-miterlimit="10"/>
<path d="M68.156 11.0029C67.6086 11.5485 66.9303 11.8207 66.1213 11.8207C65.3077 11.8207 64.6294 11.5485 64.082 11.0029C63.5357 10.4584 63.2637 9.79011 63.2637 8.99923C63.2637 8.20836 63.5357 7.54011 64.082 6.99561C64.6294 6.44998 65.3077 6.17773 66.1213 6.17773C66.9257 6.17773 67.604 6.44998 68.1514 7.00011C68.7023 7.54911 68.9743 8.21286 68.9743 8.99923C68.9743 9.79011 68.7023 10.4584 68.156 11.0029ZM64.6109 10.5506C65.0229 10.9545 65.5241 11.157 66.1213 11.157C66.7139 11.157 67.2197 10.9545 67.6271 10.5506C68.038 10.1467 68.2463 9.62811 68.2463 8.99923C68.2463 8.37036 68.038 7.85173 67.6271 7.44786C67.2197 7.04398 66.7139 6.84148 66.1213 6.84148C65.5241 6.84148 65.0229 7.04398 64.6109 7.44786C64.2 7.85173 63.9917 8.37036 63.9917 8.99923C63.9917 9.62811 64.2 10.1467 64.6109 10.5506Z" fill="white" stroke="white" stroke-width="0.16" stroke-miterlimit="10"/>
<path d="M69.9785 11.6973V6.30176H70.8466L73.5456 10.498H73.5769L73.5456 9.46076V6.30176H74.2598V11.6973H73.5144L70.688 7.29401H70.6568L70.688 8.33576V11.6973H69.9785Z" fill="white" stroke="white" stroke-width="0.16" stroke-miterlimit="10"/>
<path d="M63.088 19.5774C60.9132 19.5774 59.1366 21.1862 59.1366 23.4058C59.1366 25.6074 60.9132 27.233 63.088 27.233C65.2674 27.233 67.044 25.6074 67.044 23.4058C67.044 21.1862 65.2674 19.5774 63.088 19.5774ZM63.088 25.7255C61.8947 25.7255 60.868 24.7682 60.868 23.4058C60.868 22.0254 61.8947 21.0849 63.088 21.0849C64.2812 21.0849 65.3125 22.0254 65.3125 23.4058C65.3125 24.7682 64.2812 25.7255 63.088 25.7255ZM54.4664 19.5774C52.287 19.5774 50.515 21.1862 50.515 23.4058C50.515 25.6074 52.287 27.233 54.4664 27.233C56.6447 27.233 58.4178 25.6074 58.4178 23.4058C58.4178 21.1862 56.6447 19.5774 54.4664 19.5774ZM54.4664 25.7255C53.272 25.7255 52.2419 24.7682 52.2419 23.4058C52.2419 22.0254 53.272 21.0849 54.4664 21.0849C55.6597 21.0849 56.6863 22.0254 56.6863 23.4058C56.6863 24.7682 55.6597 25.7255 54.4664 25.7255ZM44.2072 20.7508V22.3775H48.2037C48.0868 23.2865 47.7743 23.9548 47.2951 24.4205C46.7118 24.983 45.8032 25.6074 44.2072 25.6074C41.7477 25.6074 39.8218 23.678 39.8218 21.2874C39.8218 18.8968 41.7477 16.9674 44.2072 16.9674C45.537 16.9674 46.5046 17.4726 47.2187 18.1273L48.3981 16.9809C47.3993 16.0539 46.0706 15.3418 44.2072 15.3418C40.8345 15.3418 38 18.0092 38 21.2874C38 24.5657 40.8345 27.233 44.2072 27.233C46.0301 27.233 47.3993 26.6525 48.4757 25.5635C49.5787 24.4914 49.9224 22.9839 49.9224 21.7667C49.9224 21.3887 49.89 21.041 49.8322 20.7508H44.2072ZM86.1586 22.0119C85.8333 21.1558 84.8298 19.5774 82.7859 19.5774C80.7604 19.5774 79.0741 21.1288 79.0741 23.4058C79.0741 25.55 80.743 27.233 82.9803 27.233C84.7893 27.233 85.8333 26.1609 86.2627 25.5365L84.9201 24.6669C84.4722 25.3037 83.8623 25.7255 82.9803 25.7255C82.1042 25.7255 81.4757 25.3352 81.0729 24.5657L86.3403 22.4473L86.1586 22.0119ZM80.7882 23.2865C80.743 21.8105 81.9676 21.0545 82.8449 21.0545C83.5324 21.0545 84.1157 21.3887 84.3102 21.8668L80.7882 23.2865ZM76.5069 27.0002H78.2384V15.7502H76.5069V27.0002ZM73.6713 20.4302H73.6134C73.2245 19.9824 72.4826 19.5774 71.5428 19.5774C69.5706 19.5774 67.7674 21.2604 67.7674 23.4182C67.7674 25.5635 69.5706 27.233 71.5428 27.233C72.4826 27.233 73.2245 26.8247 73.6134 26.3634H73.6713V26.9124C73.6713 28.376 72.8669 29.1624 71.5694 29.1624C70.5116 29.1624 69.8553 28.4199 69.5845 27.7955L68.0787 28.4064C68.5127 29.4212 69.662 30.6699 71.5694 30.6699C73.5995 30.6699 75.3125 29.5089 75.3125 26.684V19.8103H73.6713V20.4302ZM71.691 25.7255C70.4977 25.7255 69.4988 24.7547 69.4988 23.4182C69.4988 22.0693 70.4977 21.0849 71.691 21.0849C72.8669 21.0849 73.794 22.0693 73.794 23.4182C73.794 24.7547 72.8669 25.7255 71.691 25.7255ZM94.265 15.7502H90.1238V27.0002H91.8507V22.7375H94.265C96.1828 22.7375 98.0636 21.3887 98.0636 19.2433C98.0636 17.099 96.1782 15.7502 94.265 15.7502ZM94.3102 21.1727H91.8507V17.3151H94.3102C95.5995 17.3151 96.3356 18.3557 96.3356 19.2433C96.3356 20.114 95.5995 21.1727 94.3102 21.1727ZM104.985 19.556C103.737 19.556 102.44 20.0915 101.906 21.2784L103.439 21.9028C103.768 21.2784 104.375 21.0759 105.016 21.0759C105.912 21.0759 106.821 21.599 106.834 22.5227V22.6408C106.522 22.4653 105.853 22.2054 105.03 22.2054C103.38 22.2054 101.698 23.0885 101.698 24.7367C101.698 26.2442 103.05 27.215 104.569 27.215C105.731 27.215 106.373 26.7054 106.775 26.1125H106.834V26.9822H108.502V22.6667C108.502 20.672 106.97 19.556 104.985 19.556ZM104.777 25.721C104.212 25.721 103.425 25.4488 103.425 24.7682C103.425 23.8974 104.406 23.5633 105.256 23.5633C106.016 23.5633 106.373 23.7264 106.834 23.9413C106.699 24.983 105.777 25.721 104.777 25.721ZM114.579 19.8024L112.594 24.6793H112.535L110.483 19.8024H108.62L111.704 26.6177L109.944 30.41H111.749L116.5 19.8024H114.579ZM99.0127 27.0002H100.744V15.7502H99.0127V27.0002Z" fill="white"/>
</svg>
