<svg width="111" height="48" viewBox="0 0 111 48" fill="none" xmlns="http://www.w3.org/2000/svg">
<path d="M34.1911 17.729L31.2577 31.5361C30.9009 33.2794 30.0337 34.8389 28.8239 36.0504C27.2091 37.6652 24.9733 38.6662 22.5074 38.6662H0L0.182001 37.8062L0.36757 36.9497L0.549571 36.0897L0.731572 35.2332L0.91714 34.3731L1.09914 33.5131L1.28114 32.6566L1.46314 31.7966L4.45188 17.7326L4.63745 16.8761L4.81945 16.0161L5.00145 15.1596L5.18702 14.2995L5.36902 13.4431L5.55102 12.583L5.73302 11.7266L5.91859 10.8665L7.04985 5.54032C7.26932 4.46615 7.80105 3.50798 8.5469 2.76213C9.16784 2.14119 9.9351 1.66656 10.7987 1.40248L15.0953 0.0035694L14.7421 1.66299L12.79 10.8665L12.6044 11.7266L12.4224 12.583L12.2404 13.4431L12.0584 14.2995L11.8729 15.1596L11.6909 16.0161L11.5089 16.8761L11.3233 17.7326L8.69499 30.1122C8.6825 30.1532 8.67179 30.1978 8.66644 30.2389C8.64325 30.3531 8.63433 30.4744 8.63433 30.5957C8.63433 31.7324 9.55861 32.6566 10.6952 32.6566H21.3708C22.3201 32.6566 23.1801 32.2712 23.801 31.6503C24.2275 31.2238 24.5433 30.685 24.6986 30.0836L24.7467 29.857C24.7557 29.8213 24.7628 29.7839 24.7699 29.7446L25.2124 27.6802L26.474 21.733L26.556 21.344L26.9789 19.3492C27.0075 19.2153 27.02 19.078 27.02 18.9352C27.02 18.3642 26.7898 17.8521 26.4151 17.4792C26.0422 17.1027 25.5301 16.8743 24.9591 16.8743H14.9401L15.1221 16.0143L15.3041 15.1578L15.4897 14.2978L15.636 13.6072C15.7734 12.9381 16.1071 12.3368 16.5728 11.8711C17.1937 11.2501 18.0502 10.8647 18.9994 10.8647H28.8685C30.3852 10.8647 31.7573 11.4803 32.7548 12.4742C33.7486 13.4681 34.3642 14.8438 34.3642 16.3604C34.3642 16.7244 34.3285 17.0777 34.2625 17.4203C34.2625 17.4239 34.2625 17.4275 34.2589 17.4292L34.234 17.5434C34.2304 17.5666 34.2268 17.5845 34.2215 17.6077L34.1965 17.7326L34.1911 17.729ZM53.849 9.83696C54.6038 9.56039 55.2854 9.12323 55.8439 8.56295C56.5897 7.81354 57.1214 6.85536 57.3409 5.7812L58.399 0.685181L54.1648 2.06089L53.8436 2.16616C53.0889 2.44273 52.4073 2.8799 51.8488 3.44017C51.1029 4.18959 50.5712 5.14777 50.3517 6.22193L49.886 8.6486L49.2954 11.3179L53.5296 9.94223L53.8508 9.83696H53.849ZM44.6794 16.8725L44.8614 16.0125L45.0434 15.156L45.2289 14.296L45.4109 13.4395L45.5929 12.5795L45.6857 12.1369L45.7749 11.723L45.9605 10.8629L47.9161 1.65585L48.2659 0L44.0317 1.37571L43.7105 1.48099C42.9557 1.75756 42.2741 2.19471 41.7156 2.75499C40.9698 3.50441 40.438 4.46259 40.2186 5.53675L39.0873 10.8629L38.9053 11.723L38.7197 12.5795L38.5377 13.4395L38.3557 14.296L38.1737 15.156L37.9882 16.0125L37.8062 16.8725L37.6242 17.729L36.1307 24.7628L34.6372 31.793L34.4552 32.6531L34.2732 33.5095L34.2643 33.5577V33.5613L34.0894 34.3696L33.9074 35.2296L33.8432 35.5169V35.524L33.7254 36.0879L33.5399 36.9479L33.3579 37.8044L33.1759 38.6644H37.2637C38.2094 38.6644 39.0695 38.279 39.6904 37.6581C40.1561 37.1924 40.4898 36.5911 40.6272 35.9219L40.7735 35.2314L40.9591 34.3714L41.1411 33.5113L41.3231 32.6548L41.5051 31.7948L42.9985 24.7646L44.492 17.7308L44.6776 16.8743L44.6794 16.8725ZM100.903 28.9363L96.7298 24.7628L100.903 20.5893L108.644 12.8489L110.631 10.8612H104.409C102.893 10.8612 101.517 11.4767 100.523 12.4706L92.4795 20.5143L91.8746 21.1228L91.2662 21.7277L90.6577 22.3361L90.0529 22.941L89.4444 23.5495L88.8395 24.1579L88.2311 24.7628L100.461 36.9925L100.586 37.1174C101.572 38.0756 102.921 38.6662 104.408 38.6662H110.633L108.642 36.6749L100.903 28.9363ZM87.0142 24.7628L87.6226 24.1543L88.2311 23.5495L88.8359 22.941L89.4444 22.3326L90.0493 21.7277L90.6577 21.1192L91.2662 20.5143L91.8711 19.9059L92.9149 18.8621L93.1558 17.7308L93.3414 16.8743L93.5234 16.0143L93.7054 15.1578L93.8909 14.2978L94.0729 13.4413L94.2549 12.5812L94.3477 12.1387L94.4369 11.7248L94.6225 10.8647L96.5781 1.65764L96.9278 0.00178606L92.6936 1.3775L92.3725 1.48277C91.6177 1.75934 90.9361 2.1965 90.3776 2.75678C89.6318 3.50619 89.1 4.46437 88.8806 5.53853L87.7493 10.8647L87.5673 11.7248L87.3817 12.5812L87.1997 13.4413L87.0177 14.2978L86.8357 15.1578L86.6502 16.0143L86.4682 16.8743L86.2862 17.7308L84.7927 24.7646L83.2992 31.7948L83.1172 32.6548L82.9352 33.5113L82.9263 33.5595V33.5631L82.7514 34.3714L82.5694 35.2314L82.5052 35.5187V35.5258L82.3874 36.0897L82.2018 36.9497L82.0198 37.8062L81.8378 38.6662H85.9257C86.8714 38.6662 87.7315 38.2808 88.3524 37.6599C88.8181 37.1942 89.1518 36.5928 89.2892 35.9237L89.4355 35.2332L89.621 34.3731L89.803 33.5131L89.9851 32.6566L90.1671 31.7966L90.8469 28.6009L87.6208 25.3748L87.0124 24.7664L87.0142 24.7628ZM56.256 10.8612L52.0219 12.2369L51.7007 12.3421C50.9459 12.6187 50.2643 13.0559 49.7058 13.6162C48.96 14.3656 48.4282 15.3237 48.2088 16.3979L43.4821 38.6644H47.57C48.5157 38.6644 49.3757 38.279 49.9967 37.6581C50.4624 37.1924 50.796 36.5911 50.9334 35.9219L51.0797 35.2314L55.9063 12.5188L56.256 10.8629V10.8612ZM82.8852 17.5417L82.9102 17.4275C82.9798 17.0795 83.0155 16.7227 83.0155 16.3569C83.0155 14.8402 82.3999 13.4645 81.406 12.4706C80.4086 11.4767 79.0365 10.8612 77.5198 10.8612H66.9316C64.4657 10.8612 62.2299 11.8622 60.6151 13.477C59.4054 14.6867 58.5382 16.248 58.1813 17.9913L55.2479 31.7948L55.0659 32.6548L54.8839 33.5113L54.875 33.5595V33.5631L54.8268 33.7861L54.7019 34.3714L54.5163 35.2314L54.4521 35.5187V35.5258L54.3343 36.0897L54.1523 36.9497L53.9668 37.8062L53.7848 38.6662H57.8726C58.8183 38.6662 59.6784 38.2808 60.2993 37.6599C60.765 37.1942 61.0987 36.5928 61.2361 35.9237L61.3824 35.2332L61.568 34.3731L61.7535 33.5131L61.9355 32.6566L62.1175 31.7966L62.6618 29.2325L62.9669 27.7997L64.2284 21.8526L64.2926 21.5599L64.6709 19.7881C64.678 19.7506 64.6834 19.7114 64.6941 19.6775L64.7423 19.4509C64.8975 18.8496 65.2133 18.3107 65.6398 17.8842C66.2607 17.2633 67.1208 16.8779 68.07 16.8779H73.6103C74.1813 16.8779 74.697 17.1081 75.0699 17.4828C75.4428 17.8557 75.6712 18.3678 75.6712 18.9388C75.6712 19.0762 75.6587 19.21 75.6338 19.3402L75.6302 19.3492V19.3563L75.2073 21.3476L73.5318 29.2343L72.9876 31.7984L72.8056 32.6584L72.6236 33.5149L72.6147 33.5631V33.5666L72.5665 33.7897L72.4416 34.3749L72.2561 35.235L72.1918 35.5223V35.5294L72.074 36.0932L71.892 36.9533L71.7065 37.8097L71.5245 38.6698H75.6124C76.558 38.6698 77.4181 38.2844 78.039 37.6634C78.5047 37.1977 78.8384 36.5964 78.9758 35.9273L79.1221 35.2368L79.3077 34.3767L79.4932 33.5167L79.6752 32.6602L79.8572 31.8002L82.846 17.7361L82.8835 17.5488L82.8852 17.5417Z" fill="url(#paint0_linear_86_12294)"/>
<path d="M64.2332 43.8553L64.1137 44.4263H62.6684C62.1616 44.4263 61.8833 44.6957 61.7495 45.3345C61.6156 45.9733 61.7798 46.2356 62.2883 46.2356H63.7336L63.6123 46.8119H62.1117C61.3337 46.8119 60.9501 46.3302 61.1606 45.3327C61.3712 44.3353 61.9582 43.8535 62.7344 43.8535H64.235L64.2332 43.8553Z" fill="#0C1332"/>
<path d="M65.5107 43.8554L64.888 46.8138H64.3027L64.9255 43.8554H65.5107ZM65.7516 42.7402L65.6071 43.429H65.0165L65.161 42.7402H65.7516Z" fill="#0C1332"/>
<path d="M66.4532 43.8547L66.6013 43.1553H67.1919L67.0438 43.8547H67.8485L67.729 44.4257H66.9242L66.6298 45.8264C66.5602 46.1565 66.653 46.2689 66.9278 46.2689H67.3311L67.2169 46.8131H66.6923C66.0909 46.8131 65.884 46.5669 66.0463 45.7925L66.3336 44.4257H65.9375L66.057 43.8547H66.4532Z" fill="#0C1332"/>
<path d="M71.4598 43.8555L68.8333 48.0004H68.2052L69.0242 46.7068C68.6941 46.7068 68.5996 46.5998 68.5549 46.3428L68.1035 43.8555H68.7209L69.1348 46.0573C69.1509 46.1644 69.1759 46.1804 69.2847 46.1804H69.3615L70.8389 43.8555H71.4616H71.4598Z" fill="#0C1332"/>
<path d="M74.3095 42.5723L74.0401 43.8552H75.3301C76.1027 43.8552 76.4864 44.337 76.2758 45.3344C76.0653 46.3318 75.4782 46.8136 74.7074 46.8136H73.9027C73.2032 46.8136 72.9195 46.3996 73.0997 45.5467L73.726 42.5723H74.3113H74.3095ZM73.9187 44.4262L73.6886 45.5182C73.5833 46.0231 73.7189 46.2355 74.1935 46.2355H74.7663C75.273 46.2355 75.5496 45.9732 75.6834 45.3344C75.8173 44.6956 75.6549 44.4262 75.1463 44.4262H73.917H73.9187Z" fill="#0C1332"/>
<path d="M79.1502 43.8555C79.8782 43.8555 80.078 44.2694 79.9603 44.8297L79.6676 46.2197C79.5784 46.6461 79.4321 46.8139 78.9414 46.8139H77.58C76.8912 46.8139 76.6753 46.4731 76.7949 45.9128C76.9073 45.3739 77.2392 45.0617 77.9565 45.0617H79.3411L79.3875 44.8368C79.4357 44.6067 79.3465 44.4282 79.0271 44.4282H77.2856L77.4051 43.8572H79.1538L79.1502 43.8555ZM79.1216 46.0859L79.2376 45.5309H77.8637C77.555 45.5309 77.4176 45.6594 77.3712 45.8789C77.3248 46.0966 77.4123 46.2375 77.7031 46.2375H78.9271C79.0431 46.2375 79.0967 46.1929 79.1199 46.0859H79.1216Z" fill="#0C1332"/>
<path d="M82.599 43.8555C83.5858 43.8555 83.9658 44.3319 83.7927 45.1491L83.443 46.8139H82.8524L83.2021 45.1491C83.3003 44.6852 83.0897 44.4264 82.4777 44.4264H81.5231C81.4731 44.4264 81.4464 44.455 81.4339 44.5103L80.9485 46.8121H80.3633L80.8896 44.314C80.9628 43.9661 81.102 43.8555 81.3946 43.8555H82.5972H82.599Z" fill="#0C1332"/>
<path d="M85.7417 42.5723L85.2136 45.0828H85.483C85.9469 45.0828 86.0451 45.0596 86.2824 44.7474L86.9551 43.857H87.5885L86.8855 44.7866C86.6874 45.0507 86.5143 45.2131 86.2556 45.313C86.5143 45.3915 86.6196 45.5753 86.7302 45.884L87.0586 46.8136H86.4019L86.1004 45.9393C85.9951 45.6306 85.8898 45.5806 85.3759 45.5806H85.1065L84.846 46.8136H84.2607L85.1547 42.5723H85.7399H85.7417Z" fill="#0C1332"/>
<path d="M53.3954 42.5723L53.126 43.8552H54.4161C55.1887 43.8552 55.5723 44.337 55.3618 45.3344C55.1512 46.3318 54.5642 46.8136 53.7933 46.8136H52.9886C52.2892 46.8136 52.0055 46.3996 52.1857 45.5467L52.812 42.5723H53.3972H53.3954ZM53.0047 44.4262L52.7745 45.5182C52.6692 46.0231 52.8048 46.2355 53.2795 46.2355H53.8522C54.359 46.2355 54.6355 45.9732 54.7694 45.3344C54.9032 44.6956 54.7408 44.4262 54.2323 44.4262H53.0029H53.0047Z" fill="#0C1332"/>
<path d="M59.0301 43.8555L56.4036 48.0004H55.7755L56.5945 46.7068C56.2644 46.7068 56.1699 46.5998 56.1253 46.3428L55.6738 43.8555H56.2912L56.7052 46.0573C56.7212 46.1644 56.7462 46.1804 56.8551 46.1804H56.9318L58.4092 43.8555H59.0319H59.0301Z" fill="#0C1332"/>
<defs>
<linearGradient id="paint0_linear_86_12294" x1="0.00178432" y1="19.3313" x2="110.633" y2="19.3313" gradientUnits="userSpaceOnUse">
<stop stop-color="#3AC1D5"/>
<stop offset="0.93" stop-color="#AFCB36"/>
</linearGradient>
</defs>
</svg>
