<svg width="142" height="48" viewBox="0 0 142 48" fill="none" xmlns="http://www.w3.org/2000/svg">
<rect x="0.589286" y="0.589286" width="140.25" height="45.9643" rx="6.48214" fill="#262626"/>
<rect x="0.589286" y="0.589286" width="140.25" height="45.9643" rx="6.48214" stroke="#A6A6A6" stroke-width="1.17857"/>
<path d="M29.1162 24.4712C29.1305 23.387 29.4254 22.324 29.9736 21.381C30.5218 20.4381 31.3054 19.6458 32.2515 19.0779C31.6505 18.2399 30.8576 17.5503 29.9358 17.0637C29.014 16.5772 27.9887 16.3072 26.9414 16.2752C24.7072 16.0463 22.5412 17.5805 21.4027 17.5805C20.2422 17.5805 18.4893 16.298 16.6017 16.3359C15.3807 16.3744 14.1908 16.721 13.1479 17.342C12.105 17.963 11.2446 18.8371 10.6506 19.8792C8.0775 24.2286 9.99679 30.6208 12.4616 34.1365C13.6948 35.8581 15.1361 37.7811 17.022 37.7129C18.8675 37.6382 19.5567 36.564 21.7843 36.564C23.9912 36.564 24.6379 37.7129 26.562 37.6695C28.5423 37.6382 29.7899 35.9403 30.9799 34.2025C31.866 32.9758 32.5478 31.6201 33.0001 30.1855C31.8497 29.7104 30.8679 28.9153 30.1772 27.8991C29.4865 26.8829 29.1175 25.6908 29.1162 24.4712Z" fill="white"/>
<path d="M25.4816 13.9628C26.5613 12.6974 27.0932 11.0709 26.9644 9.42871C25.3148 9.59786 23.7911 10.3676 22.6968 11.5844C22.1618 12.1789 21.752 12.8705 21.4909 13.6197C21.2298 14.3689 21.1225 15.161 21.1751 15.9507C22.0002 15.959 22.8165 15.7844 23.5624 15.4401C24.3083 15.0957 24.9645 14.5906 25.4816 13.9628Z" fill="white"/>
<path d="M43.361 10.0192H45.8004C47.9084 10.0192 48.9339 11.2725 48.9339 13.5462C48.9339 15.8199 47.898 17.0889 45.8004 17.0889H43.361V10.0192ZM44.5367 11.0084V16.0996H45.6709C47.0693 16.0996 47.7271 15.2554 47.7271 13.5618C47.7271 11.8578 47.0642 11.0084 45.6709 11.0084H44.5367ZM52.6526 11.5212C54.0821 11.5212 55.0817 12.4482 55.0817 13.9865V14.696C55.0817 16.2861 54.0821 17.1821 52.6526 17.1821C51.2024 17.1821 50.2132 16.2964 50.2132 14.7012V13.9917C50.2132 12.4949 51.2179 11.5212 52.6526 11.5212ZM52.6578 12.4482C51.8394 12.4482 51.3733 13.1319 51.3733 14.0486V14.6598C51.3733 15.5765 51.8084 16.255 52.6578 16.255C53.4968 16.255 53.9267 15.5817 53.9267 14.6598V14.0486C53.9267 13.1319 53.4761 12.4482 52.6578 12.4482ZM63.5239 11.6144L62.084 17.0889H60.9135L59.7689 13.049H59.7378L58.6139 17.0889H57.4382L55.9362 11.6144H57.1741L58.0546 15.7889H58.1064L59.2095 11.6144H60.292L61.4263 15.7889H61.4781L62.3741 11.6144H63.5239ZM64.6633 17.0889V11.6144H65.7924V12.5984H65.8494C65.9892 12.1686 66.388 11.5315 67.4964 11.5315C68.5996 11.5315 69.3402 12.1427 69.3402 13.3909V17.0889H68.1904V13.7275C68.1904 12.8937 67.7553 12.5104 67.1079 12.5104C66.2585 12.5104 65.8131 13.163 65.8131 14.0486V17.0889H64.6633ZM71.0804 17.0889V9.64626H72.2302V17.0889H71.0804ZM76.1768 11.5212C77.6063 11.5212 78.6059 12.4482 78.6059 13.9865V14.696C78.6059 16.2861 77.6063 17.1821 76.1768 17.1821C74.7266 17.1821 73.7374 16.2964 73.7374 14.7012V13.9917C73.7374 12.4949 74.7422 11.5212 76.1768 11.5212ZM76.182 12.4482C75.3637 12.4482 74.8976 13.1319 74.8976 14.0486V14.6598C74.8976 15.5765 75.3326 16.255 76.182 16.255C77.0211 16.255 77.4509 15.5817 77.4509 14.6598V14.0486C77.4509 13.1319 77.0003 12.4482 76.182 12.4482ZM81.584 17.1717C80.5222 17.1717 79.792 16.5191 79.792 15.4988C79.792 14.5303 80.4653 13.8777 81.729 13.8777H83.1119V13.365C83.1119 12.7383 82.7131 12.4431 82.0812 12.4431C81.4597 12.4431 81.18 12.702 81.092 13.0646H79.9991C80.0665 12.1478 80.7553 11.5315 82.1175 11.5315C83.288 11.5315 84.2565 12.0184 84.2565 13.3805V17.0889H83.1637V16.3793H83.1119C82.8684 16.7988 82.392 17.1717 81.584 17.1717ZM81.9414 16.2809C82.5939 16.2809 83.1119 15.8355 83.1119 15.2399V14.6494H81.9103C81.2422 14.6494 80.9469 14.9861 80.9469 15.4419C80.9469 16.0116 81.4234 16.2809 81.9414 16.2809ZM87.7991 11.5419C88.5708 11.5419 89.1613 11.8837 89.3736 12.4379H89.4306V9.64626H90.5804V17.0889H89.4616V16.2136H89.4047C89.2389 16.7678 88.5812 17.1614 87.7836 17.1614C86.525 17.1614 85.7067 16.2654 85.7067 14.8203V13.8829C85.7067 12.4379 86.5405 11.5419 87.7991 11.5419ZM88.1202 12.4845C87.3537 12.4845 86.8772 13.0542 86.8772 14.0486V14.6494C86.8772 15.649 87.3589 16.2187 88.1461 16.2187C88.923 16.2187 89.4306 15.6542 89.4306 14.7219V13.8933C89.4306 13.049 88.8764 12.4845 88.1202 12.4845ZM96.8939 11.5212C98.3234 11.5212 99.323 12.4482 99.323 13.9865V14.696C99.323 16.2861 98.3234 17.1821 96.8939 17.1821C95.4437 17.1821 94.4545 16.2964 94.4545 14.7012V13.9917C94.4545 12.4949 95.4592 11.5212 96.8939 11.5212ZM96.8991 12.4482C96.0808 12.4482 95.6146 13.1319 95.6146 14.0486V14.6598C95.6146 15.5765 96.0497 16.255 96.8991 16.255C97.7381 16.255 98.168 15.5817 98.168 14.6598V14.0486C98.168 13.1319 97.7174 12.4482 96.8991 12.4482ZM100.804 17.0889V11.6144H101.933V12.5984H101.99C102.13 12.1686 102.529 11.5315 103.637 11.5315C104.74 11.5315 105.481 12.1427 105.481 13.3909V17.0889H104.331V13.7275C104.331 12.8937 103.896 12.5104 103.249 12.5104C102.399 12.5104 101.954 13.163 101.954 14.0486V17.0889H100.804ZM109.93 11.6506V10.2833H111.054V11.6506H112.282V12.5518H111.054V15.4574C111.054 16.053 111.277 16.2187 111.893 16.2187C112.048 16.2187 112.256 16.2084 112.344 16.198V17.0785C112.25 17.094 111.867 17.1251 111.608 17.1251C110.277 17.1251 109.915 16.6486 109.915 15.5506V12.5518H109.081V11.6506H109.93ZM113.732 17.0889V9.64626H114.876V12.5984H114.933C115.052 12.21 115.498 11.5315 116.596 11.5315C117.663 11.5315 118.424 12.1478 118.424 13.396V17.0889H117.28V13.7327C117.28 12.8988 116.819 12.5104 116.166 12.5104C115.342 12.5104 114.876 13.1578 114.876 14.0486V17.0889H113.732ZM122.283 17.1821C120.791 17.1821 119.864 16.2654 119.864 14.7219V13.9813C119.864 12.4275 120.879 11.5212 122.215 11.5212C123.588 11.5212 124.556 12.4741 124.556 13.9813V14.6235H121.003V14.8929C121.003 15.6801 121.47 16.2602 122.277 16.2602C122.878 16.2602 123.293 15.9753 123.37 15.6335H124.494C124.427 16.2654 123.759 17.1821 122.283 17.1821ZM121.003 13.8725H123.432V13.8C123.432 12.9765 122.951 12.4275 122.221 12.4275C121.49 12.4275 121.003 12.9765 121.003 13.8V13.8725Z" fill="white"/>
<path d="M45.0287 36.6963H42.6359L47.5044 22.5569H50.1355L54.9936 36.6963H52.5076L51.2542 32.7808H46.2924L45.0287 36.6963ZM48.8303 25.0015H48.7371L46.8207 30.9784H50.7259L48.8303 25.0015ZM61.5974 36.8517C60.1783 36.8517 59.101 36.1784 58.521 35.1736H58.4381V40.3321H56.1385V25.7473H58.3759V27.3529H58.4588C59.0596 26.3067 60.1783 25.6023 61.6492 25.6023C64.1042 25.6023 65.8548 27.4565 65.8548 30.7298V31.7035C65.8548 34.9561 64.1249 36.8517 61.5974 36.8517ZM61.0692 34.9561C62.5297 34.9561 63.5241 33.7855 63.5241 31.5792V30.8126C63.5241 28.6891 62.5919 27.4772 61.0277 27.4772C59.4221 27.4772 58.4174 28.7824 58.4174 30.8023V31.5792C58.4174 33.6509 59.4325 34.9561 61.0692 34.9561ZM73.2873 36.8517C71.8682 36.8517 70.7909 36.1784 70.2108 35.1736H70.1279V40.3321H67.8284V25.7473H70.0658V27.3529H70.1487C70.7495 26.3067 71.8682 25.6023 73.3391 25.6023C75.7941 25.6023 77.5447 27.4565 77.5447 30.7298V31.7035C77.5447 34.9561 75.8148 36.8517 73.2873 36.8517ZM72.759 34.9561C74.2196 34.9561 75.214 33.7855 75.214 31.5792V30.8126C75.214 28.6891 74.2817 27.4772 72.7176 27.4772C71.112 27.4772 70.1072 28.7824 70.1072 30.8023V31.5792C70.1072 33.6509 71.1224 34.9561 72.759 34.9561ZM82.3101 32.7704H84.6097C84.7133 33.9927 85.7906 35.0389 87.7898 35.0389C89.6232 35.0389 90.7109 34.1792 90.7109 32.8429C90.7109 31.7656 89.9858 31.1855 88.4734 30.823L86.1531 30.2429C84.33 29.8182 82.6934 28.7306 82.6934 26.431C82.6934 23.7274 85.0551 22.2461 87.8001 22.2461C90.5451 22.2461 92.8344 23.7274 92.8862 26.3688H90.628C90.5244 25.1672 89.6025 24.1728 87.769 24.1728C86.1531 24.1728 85.0551 24.9393 85.0551 26.2549C85.0551 27.1768 85.6973 27.8397 87.0129 28.1401L89.3228 28.7099C91.4463 29.2278 93.0623 30.2326 93.0623 32.6357C93.0623 35.4118 90.8144 36.976 87.6137 36.976C83.6774 36.976 82.3619 34.6764 82.3101 32.7704ZM95.8645 25.7473V23.0852H98.1227V25.7473H100.257V27.5911H98.1227V33.4333C98.1227 34.6246 98.5681 34.9561 99.8008 34.9561C99.9976 34.9561 100.184 34.9561 100.319 34.9353V36.6963C100.132 36.7274 99.6972 36.7688 99.231 36.7688C96.5689 36.7688 95.8334 35.8158 95.8334 33.6198V27.5911H94.3211V25.7473H95.8645ZM106.467 25.5609C109.616 25.5609 111.325 27.7776 111.325 30.7608V31.6413C111.325 34.7282 109.626 36.8827 106.467 36.8827C103.307 36.8827 101.588 34.7282 101.588 31.6413V30.7608C101.588 27.7879 103.318 25.5609 106.467 25.5609ZM106.467 27.4047C104.758 27.4047 103.908 28.8031 103.908 30.7919V31.631C103.908 33.5887 104.747 35.0286 106.467 35.0286C108.186 35.0286 109.015 33.5991 109.015 31.631V30.7919C109.015 28.7927 108.176 27.4047 106.467 27.4047ZM113.267 36.6963V25.7473H115.567V27.1871H115.65C115.929 26.5035 116.748 25.5919 118.271 25.5919C118.571 25.5919 118.83 25.6127 119.047 25.6541V27.6844C118.851 27.6326 118.447 27.6015 118.063 27.6015C116.22 27.6015 115.598 28.7409 115.598 30.2118V36.6963H113.267ZM124.626 36.8827C121.694 36.8827 119.83 34.9457 119.83 31.7035V30.5951C119.83 27.5393 121.653 25.5609 124.532 25.5609C127.454 25.5609 129.215 27.6118 129.215 30.6987V31.7449H122.098V32.0039C122.098 33.8477 123.093 35.07 124.657 35.07C125.827 35.07 126.625 34.4899 126.905 33.5473H129.09C128.759 35.3186 127.329 36.8827 124.626 36.8827ZM122.098 30.1393H126.967V30.1186C126.967 28.5648 126.003 27.3425 124.543 27.3425C123.062 27.3425 122.098 28.5648 122.098 30.1186V30.1393Z" fill="white"/>
</svg>
