<svg width="142" height="48" viewBox="0 0 142 48" fill="none" xmlns="http://www.w3.org/2000/svg">
<rect x="0.589286" y="0.589286" width="140.25" height="45.9643" rx="6.48214" fill="#262626"/>
<rect x="0.589286" y="0.589286" width="140.25" height="45.9643" rx="6.48214" stroke="#A6A6A6" stroke-width="1.17857"/>
<path d="M20.9843 22.9375L9.53418 35.3647C9.53526 35.3669 9.53525 35.3702 9.53633 35.3724C9.888 36.7218 11.0925 37.7148 12.5228 37.7148C13.0949 37.7148 13.6316 37.5565 14.0918 37.2793L14.1284 37.2573L27.0163 29.6526L20.9843 22.9375Z" fill="#EA4335"/>
<path d="M32.5673 20.8205L32.5566 20.8128L26.9923 17.5147L20.7236 23.2191L27.0149 29.6504L32.549 26.3852C33.5191 25.8486 34.1783 24.8027 34.1783 23.5974C34.1783 22.3987 33.5287 21.3583 32.5673 20.8205Z" fill="#FBBC04"/>
<path d="M9.5341 11.778C9.46528 12.0375 9.42871 12.3102 9.42871 12.5918V34.5515C9.42871 34.8331 9.46528 35.1058 9.53518 35.3643L21.3778 23.2549L9.5341 11.778Z" fill="#4285F4"/>
<path d="M21.0692 23.5713L26.9948 17.5128L14.122 9.88053C13.6541 9.59349 13.1078 9.42853 12.5239 9.42853C11.0935 9.42853 9.88692 10.4238 9.53525 11.7743C9.53525 11.7754 9.53418 11.7765 9.53418 11.7776L21.0692 23.5713Z" fill="#34A853"/>
<path d="M51.3976 13.0151C51.3976 14.1936 51.048 15.1326 50.3487 15.8319C49.563 16.6647 48.5298 17.0811 47.2491 17.0811C46.0234 17.0811 44.9862 16.6569 44.1376 15.8083C43.2891 14.9597 42.8648 13.9147 42.8648 12.6733C42.8648 11.4319 43.2891 10.3869 44.1376 9.53829C44.9862 8.68972 46.0234 8.26544 47.2491 8.26544C47.8698 8.26544 48.4551 8.37544 49.0051 8.59544C49.5551 8.81544 50.0069 9.12579 50.3605 9.52651L49.5826 10.3044C49.3234 9.99008 48.9855 9.74651 48.5691 9.57365C48.1605 9.39294 47.7205 9.30258 47.2491 9.30258C46.3298 9.30258 45.5519 9.62079 44.9155 10.2572C44.2869 10.9015 43.9726 11.7069 43.9726 12.6733C43.9726 13.6397 44.2869 14.4451 44.9155 15.0894C45.5519 15.7258 46.3298 16.044 47.2491 16.044C48.0898 16.044 48.7891 15.8083 49.3469 15.3369C49.9048 14.8654 50.2269 14.2172 50.3134 13.3922H47.2491V12.3786H51.3387C51.378 12.5986 51.3976 12.8108 51.3976 13.0151ZM57.6415 8.45401V9.49115H53.7993V12.1665H57.2643V13.1801H53.7993V15.8554H57.6415V16.8926H52.7151V8.45401H57.6415ZM61.9785 9.49115V16.8926H60.8942V9.49115H58.5371V8.45401H64.3357V9.49115H61.9785ZM69.1415 16.8926H68.0572V8.45401H69.1415V16.8926ZM73.7182 9.49115V16.8926H72.6339V9.49115H70.2768V8.45401H76.0753V9.49115H73.7182ZM87.8285 12.6733C87.8285 13.9226 87.412 14.9676 86.5792 15.8083C85.7385 16.6569 84.7092 17.0811 83.4913 17.0811C82.2656 17.0811 81.2363 16.6569 80.4035 15.8083C79.5706 14.9676 79.1542 13.9226 79.1542 12.6733C79.1542 11.424 79.5706 10.379 80.4035 9.53829C81.2363 8.68972 82.2656 8.26544 83.4913 8.26544C84.717 8.26544 85.7463 8.69365 86.5792 9.55008C87.412 10.3908 87.8285 11.4319 87.8285 12.6733ZM80.262 12.6733C80.262 13.6476 80.5685 14.4529 81.1813 15.0894C81.802 15.7258 82.572 16.044 83.4913 16.044C84.4106 16.044 85.1767 15.7258 85.7895 15.0894C86.4103 14.4608 86.7206 13.6554 86.7206 12.6733C86.7206 11.6911 86.4103 10.8858 85.7895 10.2572C85.1767 9.62079 84.4106 9.30258 83.4913 9.30258C82.572 9.30258 81.802 9.62079 81.1813 10.2572C80.5685 10.8936 80.262 11.699 80.262 12.6733ZM90.1923 16.8926H89.1081V8.45401H90.4281L94.5295 15.0186H94.5766L94.5295 13.3922V8.45401H95.6138V16.8926H94.4823L90.1923 10.0097H90.1452L90.1923 11.6361V16.8926Z" fill="white"/>
<path d="M110.218 37.0185H112.138V24.0407H110.218V37.0185ZM127.508 28.7154L125.308 34.3422H125.242L122.958 28.7154H120.89L124.315 36.5794L122.363 40.9541H124.364L129.643 28.7154H127.508ZM116.622 35.5444C115.992 35.5444 115.116 35.2277 115.116 34.4418C115.116 33.4411 116.207 33.057 117.151 33.057C117.994 33.057 118.392 33.2407 118.905 33.4909C118.756 34.6931 117.73 35.5444 116.622 35.5444ZM116.853 28.432C115.464 28.432 114.023 29.0497 113.429 30.419L115.132 31.1364C115.497 30.419 116.174 30.1844 116.886 30.1844C117.879 30.1844 118.888 30.7855 118.905 31.8548V31.9877C118.557 31.7873 117.813 31.4873 116.903 31.4873C115.066 31.4873 113.196 32.5057 113.196 34.4086C113.196 36.1454 114.702 37.2646 116.389 37.2646C117.681 37.2646 118.392 36.6801 118.839 35.9949H118.905V36.9967H120.758V32.0209C120.758 29.7172 119.054 28.432 116.853 28.432ZM104.99 30.2955H102.259V25.847H104.99C106.425 25.847 107.24 27.0461 107.24 28.0707C107.24 29.0767 106.425 30.2955 104.99 30.2955ZM104.94 24.0407H100.341V37.0185H102.259V32.1019H104.94C107.068 32.1019 109.159 30.5467 109.159 28.0707C109.159 25.5948 107.068 24.0407 104.94 24.0407ZM79.8581 35.5464C78.5321 35.5464 77.422 34.4263 77.422 32.8877C77.422 31.3326 78.5321 30.1948 79.8581 30.1948C81.1678 30.1948 82.1945 31.3326 82.1945 32.8877C82.1945 34.4263 81.1678 35.5464 79.8581 35.5464ZM82.0628 29.4421H81.9959C81.5649 28.9241 80.7367 28.4559 79.6925 28.4559C77.5043 28.4559 75.4993 30.3952 75.4993 32.8877C75.4993 35.3627 77.5043 37.2864 79.6925 37.2864C80.7367 37.2864 81.5649 36.8182 81.9959 36.2825H82.0628V36.9189C82.0628 38.6079 81.1678 39.5111 79.7254 39.5111C78.5485 39.5111 77.8191 38.6578 77.5208 37.9383L75.847 38.6411C76.3274 39.8122 77.6041 41.25 79.7254 41.25C81.9795 41.25 83.8857 39.9118 83.8857 36.651V28.7227H82.0628V29.4421ZM85.2118 37.0185H87.1346V24.0396H85.2118V37.0185ZM89.9678 32.7372C89.9184 31.0315 91.2774 30.1616 92.2547 30.1616C93.0181 30.1616 93.6641 30.5457 93.8791 31.098L89.9678 32.7372ZM95.9346 31.2651C95.5704 30.2789 94.4594 28.4559 92.1889 28.4559C89.9349 28.4559 88.0625 30.2446 88.0625 32.8711C88.0625 35.3461 89.9184 37.2864 92.4039 37.2864C94.41 37.2864 95.5704 36.0489 96.0509 35.3295L94.5591 34.3256C94.0623 35.0616 93.3822 35.5464 92.4039 35.5464C91.4266 35.5464 90.7301 35.0948 90.2826 34.2093L96.1332 31.7665L95.9346 31.2651ZM49.3235 29.8107V31.6835H53.7646C53.6319 32.7372 53.2842 33.5065 52.7544 34.0411C52.1073 34.6941 51.096 35.4135 49.3235 35.4135C46.588 35.4135 44.4502 33.1888 44.4502 30.4294C44.4502 27.669 46.588 25.4453 49.3235 25.4453C50.7987 25.4453 51.8758 26.0308 52.6711 26.7834L53.9807 25.4619C52.8696 24.3916 51.3954 23.5714 49.3235 23.5714C45.5777 23.5714 42.4287 26.6495 42.4287 30.4294C42.4287 34.2093 45.5777 37.2864 49.3235 37.2864C51.345 37.2864 52.8696 36.6168 54.063 35.3627C55.2903 34.1252 55.6709 32.3863 55.6709 30.9807C55.6709 30.5457 55.638 30.145 55.5711 29.8107H49.3235ZM60.7211 35.5464C59.395 35.5464 58.2511 34.4429 58.2511 32.8711C58.2511 31.2817 59.395 30.1948 60.7211 30.1948C62.0462 30.1948 63.1901 31.2817 63.1901 32.8711C63.1901 34.4429 62.0462 35.5464 60.7211 35.5464ZM60.7211 28.4559C58.3004 28.4559 56.3283 30.3121 56.3283 32.8711C56.3283 35.4135 58.3004 37.2864 60.7211 37.2864C63.1408 37.2864 65.1129 35.4135 65.1129 32.8711C65.1129 30.3121 63.1408 28.4559 60.7211 28.4559ZM70.302 35.5464C68.9759 35.5464 67.8319 34.4429 67.8319 32.8711C67.8319 31.2817 68.9759 30.1948 70.302 30.1948C71.6281 30.1948 72.771 31.2817 72.771 32.8711C72.771 34.4429 71.6281 35.5464 70.302 35.5464ZM70.302 28.4559C67.8823 28.4559 65.9102 30.3121 65.9102 32.8711C65.9102 35.4135 67.8823 37.2864 70.302 37.2864C72.7216 37.2864 74.6938 35.4135 74.6938 32.8711C74.6938 30.3121 72.7216 28.4559 70.302 28.4559Z" fill="white"/>
</svg>
