<svg width="237" height="374" viewBox="0 0 237 374" fill="none" xmlns="http://www.w3.org/2000/svg">
<mask id="mask0_3_1830" style="mask-type:luminance" maskUnits="userSpaceOnUse" x="0" y="0" width="236" height="374">
<path d="M4.35504 16.123L0.210628 353.986C0.101515 362.881 7.16539 370.211 15.9882 370.358L215.496 373.686C224.319 373.833 231.56 366.741 231.669 357.846L235.814 19.9831C235.923 11.0879 228.859 3.75766 220.036 3.61052L20.5278 0.28324C11.7049 0.136098 4.46416 7.22776 4.35504 16.123Z" fill="white"/>
</mask>
<g mask="url(#mask0_3_1830)">
<path d="M4.49998 16.1037L0.224797 354.034C0.112241 362.931 7.16842 370.262 15.9852 370.408L215.357 373.71C224.173 373.856 231.412 366.762 231.525 357.865L235.8 19.9342C235.912 11.0372 228.856 3.70647 220.039 3.56045L20.668 0.2587C11.8512 0.112687 4.61254 7.20673 4.49998 16.1037Z" fill="#006064"/>
<path opacity="0.25" d="M118.575 249.782C119.047 216.946 92.6876 189.824 59.8238 189.331C26.9535 188.837 -0.168389 215.157 -0.640756 247.993C-1.11312 280.828 25.2399 307.951 58.1102 308.444C90.9741 308.937 118.103 282.618 118.575 249.782ZM-53.6255 247.197C-52.7332 185.166 -1.49942 135.459 60.5854 136.391C122.67 137.323 172.452 188.546 171.56 250.577C170.668 312.609 119.434 362.315 57.3487 361.383C-4.73612 360.451 -54.5179 309.229 -53.6255 247.197Z" fill="black"/>
<path opacity="0.1" d="M242.385 104.524C242.858 71.6885 216.498 44.566 183.634 44.0727C150.764 43.5793 123.642 69.8991 123.17 102.735C122.697 135.57 149.05 162.693 181.921 163.186C214.784 163.679 241.913 137.36 242.385 104.524ZM70.1848 101.939C71.0771 39.9078 122.311 -9.79942 184.396 -8.86751C246.481 -7.9356 296.263 43.2878 295.37 105.319C294.478 167.351 243.244 217.057 181.159 216.126C119.074 215.194 69.2924 163.971 70.1848 101.939Z" stroke="black" stroke-width="12" stroke-miterlimit="10"/>
<path d="M36.4695 67.3382L41.4894 68.5212C42.1233 68.6656 42.6891 68.9956 43.1273 69.4485C43.7115 70.053 44.0707 70.8803 44.065 71.7841L44.0125 80.0338L43.6998 79.9603L43.3884 79.8856L43.0757 79.8122L42.7643 79.7388L42.4516 79.6641L42.1389 79.5907L41.8275 79.5173L41.5148 79.4439L36.4014 78.2386L36.09 78.1639L35.7773 78.0905L35.466 78.0171L35.1533 77.9424L34.8419 77.869L34.5292 77.7955L34.2178 77.7221L33.9051 77.6474L31.9686 77.1912C31.578 77.1024 31.2304 76.9 30.9606 76.6208C30.736 76.3884 30.565 76.1034 30.4708 75.7848L29.9716 74.1991L30.5749 74.3415L33.9211 75.1288L34.2338 75.2036L34.5452 75.277L34.8579 75.3504L35.1693 75.4238L35.482 75.4985L35.7934 75.5719L36.1061 75.6453L36.4175 75.72L40.9184 76.78C40.9333 76.7849 40.9496 76.7892 40.9645 76.7915C41.006 76.8009 41.0502 76.8051 41.0943 76.806C41.5082 76.8149 41.8468 76.4833 41.8495 76.0667L41.8744 72.1538C41.8766 71.8059 41.7383 71.4876 41.5136 71.2552C41.3594 71.0955 41.1639 70.9756 40.9454 70.914L40.863 70.8946C40.85 70.891 40.8364 70.8881 40.8221 70.8852L40.0715 70.7069L37.9092 70.1981L37.7678 70.1649L37.0425 69.9944C36.9939 69.9829 36.9439 69.9772 36.8919 69.9761C36.684 69.9716 36.497 70.052 36.3604 70.1864C36.2225 70.3202 36.1381 70.5061 36.1368 70.7154L36.1134 74.3876L35.8007 74.3142L35.4893 74.2408L35.1766 74.1661L34.9256 74.1071C34.6823 74.0515 34.4641 73.9245 34.2957 73.7502C34.071 73.5177 33.9327 73.2008 33.9349 72.8529L33.9579 69.2355C33.9615 68.6796 34.1888 68.1815 34.553 67.8237C34.9171 67.4672 35.4194 67.2523 35.9716 67.2641C36.1041 67.2669 36.2327 67.2828 36.3573 67.3096C36.3586 67.3097 36.3599 67.3097 36.3605 67.311L36.402 67.3211C36.4104 67.3226 36.4169 67.324 36.4254 67.3262L36.4708 67.3363L36.4695 67.3382ZM33.642 60.0714C33.5431 59.7926 33.3855 59.5394 33.1828 59.3303C32.9117 59.051 32.5641 58.8487 32.1735 58.7598L30.3207 58.3322L30.8117 59.8949L30.8492 60.0135C30.9482 60.2923 31.1058 60.5455 31.3084 60.7546C31.5795 61.0338 31.9271 61.2362 32.3177 61.325L33.2001 61.5147L34.1706 61.752L33.6796 60.1893L33.642 60.0707L33.642 60.0714ZM36.1821 63.4873L35.8694 63.4138L35.558 63.3405L35.2453 63.2657L34.9339 63.1923L34.6212 63.1189L34.4603 63.0814L34.3098 63.0455L33.9972 62.9708L30.6496 62.1821L30.0476 62.041L30.5386 63.6037L30.5762 63.7222C30.6751 64.0011 30.8327 64.2543 31.0353 64.4634C31.3065 64.7426 31.6541 64.945 32.0446 65.0338L33.9811 65.49L34.2938 65.5634L34.6052 65.6381L34.9179 65.7116L35.2293 65.785L35.542 65.8584L35.8534 65.9331L36.1661 66.0065L36.4775 66.0799L39.0348 66.6822L41.5909 67.2845L41.9036 67.3579L42.215 67.4313L42.2325 67.435L42.2338 67.435L42.5277 67.5054L42.8404 67.5788L42.9448 67.6046L42.9474 67.6047L43.1524 67.6522L43.4651 67.727L43.7765 67.8004L44.0892 67.8738L44.0987 66.3754C44.1009 66.0288 43.9626 65.7106 43.738 65.4781C43.5695 65.3038 43.3514 65.1768 43.1081 65.1212L42.857 65.0622L42.5443 64.9875L42.2316 64.9141L41.9202 64.8407L41.6075 64.7672L39.0515 64.165L36.4941 63.5626L36.1828 63.4879L36.1821 63.4873ZM40.7053 42.9736L39.1761 44.4708L37.6664 42.9085L34.8663 40.011L34.1473 39.2669L34.1328 41.5474C34.1292 42.1033 34.3502 42.6124 34.7097 42.9844L37.6194 45.9955L37.8396 46.2219L38.0584 46.4497L38.2785 46.6774L38.4973 46.9039L38.7174 47.1316L38.9375 47.3581L39.1563 47.5858L43.6374 43.1987L43.6831 43.1539C44.0343 42.7997 44.2525 42.3099 44.2559 41.7651L44.2704 39.4833L43.5408 40.1976L40.7053 42.9736ZM39.1535 48.0319L38.9334 47.8041L38.7146 47.5764L38.4944 47.3499L38.2743 47.1221L38.0555 46.8957L37.8354 46.6679L37.6166 46.4402L37.3965 46.2137L37.0189 45.823L36.6076 45.7259L36.2962 45.6512L35.9835 45.5777L35.6721 45.5043L35.3594 45.4296L35.048 45.3562L34.7353 45.2828L34.5745 45.2453L34.424 45.2094L34.1113 45.1347L30.7637 44.346L30.1617 44.2049L30.6527 45.7676L30.6903 45.8861C30.7892 46.1649 30.9468 46.4182 31.1495 46.6273C31.4206 46.9065 31.7682 47.1089 32.1587 47.1977L34.0952 47.6539L34.4079 47.7273L34.7193 47.802L35.032 47.8755L35.3434 47.9489L35.6561 48.0223L35.9675 48.097L36.2802 48.1704L36.5916 48.2438L39.1489 48.8461L41.705 49.4484L42.0177 49.5218L42.3291 49.5952L42.3466 49.5989L42.3479 49.5989L42.6418 49.6693L42.9545 49.7427L43.0589 49.7685L43.0615 49.7686L43.2665 49.8161L43.5792 49.8908L43.8906 49.9642L44.2033 50.0377L44.2128 48.5393C44.215 48.1927 44.0767 47.8745 43.8521 47.642C43.6836 47.4677 43.4655 47.3407 43.2222 47.2851L42.9711 47.2261L42.6584 47.1514L42.3457 47.0779L42.0343 47.0046L41.7216 46.9311L40.5598 46.657L39.3777 47.8143L39.1548 48.0325L39.1535 48.0319ZM34.0205 59.1971L34.5115 60.7598L34.5491 60.8784C34.648 61.1572 34.8056 61.4104 35.0083 61.6195C35.2794 61.8987 35.627 62.1011 36.0175 62.1899L44.1132 64.0962L44.1227 62.5979C44.1249 62.2513 43.9866 61.933 43.762 61.7006C43.5935 61.5262 43.3754 61.3993 43.1321 61.3437L42.881 61.2847L34.6232 59.3383L34.0212 59.1972L34.0205 59.1971ZM36.5148 49.4889L36.4733 49.4788C36.3468 49.4506 36.2169 49.4347 36.0838 49.4319C35.5316 49.42 35.0293 49.6349 34.6651 49.9915C34.3009 50.3493 34.0736 50.8474 34.0701 51.4033L34.0454 55.2842C34.0396 56.188 34.3989 57.0153 34.983 57.6198C35.4207 58.0727 35.9871 58.4027 36.6209 58.5471L41.6396 59.7301L41.9523 59.8035L42.2637 59.8769L42.2812 59.8805L42.2825 59.8806L42.3636 59.9L42.5764 59.9503L42.8891 60.025L42.9935 60.0508L42.9961 60.0509L43.2011 60.0984L43.5138 60.1719L43.8252 60.2466L44.1379 60.32L44.1474 58.8217C44.1496 58.475 44.0113 58.1568 43.7867 57.9243C43.6182 57.75 43.4001 57.623 43.1568 57.5674L42.9057 57.5084L42.593 57.4337L42.2803 57.359L41.9689 57.2856L41.6562 57.2121L40.724 56.9927L40.2031 56.8696L38.0408 56.3608L37.9344 56.335L37.2902 56.1825C37.2766 56.1796 37.2623 56.1773 37.25 56.1732L37.1676 56.1537C36.949 56.0921 36.7536 55.9722 36.5993 55.8125C36.3747 55.5801 36.2364 55.2618 36.2386 54.9139L36.2515 52.8832C36.2528 52.6739 36.3378 52.4867 36.4751 52.353C36.6118 52.2192 36.7988 52.1395 37.0066 52.1439C37.0567 52.145 37.1054 52.1506 37.1527 52.1608L37.156 52.1622L37.1586 52.1622L37.8826 52.3328L40.75 53.0085L41.6822 53.2279L41.9949 53.3014L42.3063 53.3748L42.3239 53.3784L42.3252 53.3784L42.4062 53.3978L42.619 53.4482L42.9317 53.5229L43.0362 53.5487L43.0388 53.5488L43.2438 53.5963L43.5565 53.6697L43.8678 53.7444L44.1805 53.8179L44.1901 52.3195C44.1923 51.9729 44.054 51.6547 43.8293 51.4222C43.6609 51.2479 43.4427 51.1209 43.1994 51.0653L42.9484 51.0063L42.6357 50.9316L42.323 50.8568L42.0116 50.7834L41.6989 50.71L36.5855 49.5048L36.5174 49.4896L36.5148 49.4889Z" fill="white"/>
<path d="M46.1524 56.3186L46.3615 56.3667L46.356 56.8889C46.3541 57.072 46.4519 57.1749 46.6859 57.2288C46.9198 57.2826 47.0167 57.2256 47.0187 57.0418L47.0242 56.5196L47.2353 56.5684L47.2296 57.1106C47.2266 57.3917 47.0483 57.5262 46.683 57.4415C46.3176 57.3569 46.143 57.1406 46.146 56.8602L46.1517 56.3179L46.1524 56.3186Z" fill="#01292C"/>
<path d="M46.145 55.8513L47.2339 56.088L47.2315 56.2948L46.1427 56.058L46.145 55.8513ZM45.7346 55.7599L45.9881 55.8148L45.9857 56.0235L45.7322 55.9685L45.7346 55.7599Z" fill="#01292C"/>
<path d="M46.1416 55.4884L45.8845 55.4308L45.887 55.2204L46.1441 55.278L46.1475 54.9914L46.3573 55.0379L46.354 55.3245L46.8689 55.439C46.9902 55.4661 47.032 55.4338 47.0332 55.3359L47.0349 55.1923L47.2349 55.2367L47.2327 55.4236C47.2302 55.6378 47.1386 55.7098 46.8539 55.6466L46.3515 55.5349L46.3498 55.676L46.1399 55.6295L46.1416 55.4884Z" fill="#01292C"/>
<path d="M46.1524 53.6544L47.6658 54.6321L47.6633 54.8579L47.1909 54.553C47.1896 54.6717 47.1499 54.7049 47.0552 54.7188L46.1388 54.8611L46.1413 54.6391L46.9526 54.508C46.992 54.5031 46.998 54.4943 46.9985 54.4551L46.9988 54.4276L46.1499 53.8777L46.1524 53.6538L46.1524 53.6544Z" fill="#01292C"/>
<path d="M45.6709 52.5846L46.1417 52.6915L46.1469 52.2282C46.1501 51.9506 46.3288 51.8167 46.6948 51.9002C47.0608 51.9838 47.2356 52.1985 47.2324 52.4754L47.2292 52.7644C47.2263 53.0156 47.0729 53.1143 46.76 53.0427L45.6685 52.7941L45.6709 52.5839L45.6709 52.5846ZM46.3512 52.7397L46.7519 52.831C46.9371 52.8728 47.0158 52.8258 47.0177 52.6553L47.0201 52.4496C47.0221 52.2676 46.9268 52.1662 46.6924 52.113C46.458 52.0599 46.3583 52.1161 46.3562 52.2987L46.3512 52.7403L46.3512 52.7397Z" fill="#01292C"/>
<path d="M46.1493 50.8132C46.152 50.55 46.3047 50.4813 46.5099 50.5288L47.0189 50.6466C47.1751 50.6825 47.2361 50.7369 47.2342 50.9143L47.2291 51.4065C47.2265 51.6555 47.1006 51.7306 46.8954 51.6825C46.6981 51.6372 46.5847 51.5145 46.5874 51.2552L46.5927 50.7546L46.5103 50.7359C46.426 50.7165 46.3602 50.7472 46.359 50.8627L46.3524 51.4923L46.1433 51.4441L46.1499 50.8119L46.1493 50.8132ZM46.9677 50.8428L46.7645 50.7961L46.7593 51.2928C46.7581 51.4044 46.8048 51.4552 46.8851 51.4739C46.9649 51.4925 47.0169 51.4621 47.018 51.357L47.0226 50.9145C47.0231 50.8725 47.0069 50.8528 46.9677 50.8435L46.9677 50.8428Z" fill="#01292C"/>
<path d="M46.1486 49.5391C46.1523 49.1819 46.3284 49.0485 46.6276 49.1183L47.2369 49.2595L47.2348 49.4733L46.6254 49.3321C46.4556 49.2925 46.3599 49.3665 46.3576 49.588L46.3541 49.9336C46.3539 49.9516 46.3643 49.9616 46.3845 49.9666L47.2271 50.1625L47.2249 50.3743L46.3105 50.1619C46.1832 50.1323 46.1431 50.081 46.1442 49.9751L46.1486 49.5397L46.1486 49.5391Z" fill="#01292C"/>
<path d="M45.6718 48.3717L46.5929 48.5815L46.594 48.4847C46.5959 48.318 46.5878 48.2826 46.4739 48.1948L46.1492 47.946L46.1518 47.7185L46.4908 47.9785C46.5871 48.0517 46.6461 48.1152 46.6818 48.209C46.7117 48.1166 46.7798 48.0803 46.8937 48.043L47.237 47.9325L47.2343 48.1684L46.9115 48.2697C46.7976 48.3051 46.7788 48.3425 46.7767 48.5271L46.7756 48.6239L47.2279 48.7274L47.2256 48.9377L45.6694 48.5826L45.6718 48.3724L45.6718 48.3717Z" fill="#01292C"/>
<path d="M45.6735 60.291L46.1413 60.3997L46.1502 59.9382C46.1554 59.6618 46.3344 59.5292 46.6981 59.6142C47.0618 59.6991 47.2342 59.9138 47.2289 60.1895L47.2234 60.4774C47.2186 60.7276 47.0652 60.8251 46.7542 60.7524L45.6696 60.4997L45.6735 60.2903L45.6735 60.291ZM46.3495 60.4486L46.7477 60.5415C46.9319 60.584 47.0105 60.5376 47.0138 60.3678L47.0177 60.1629C47.0211 59.9816 46.927 59.8801 46.6941 59.8261C46.4611 59.7721 46.3614 59.8275 46.3579 60.0095L46.3495 60.4493L46.3495 60.4486Z" fill="#01292C"/>
<path d="M46.161 58.2356L47.6598 59.2168L47.6555 59.4417L47.1877 59.1357C47.1855 59.2539 47.1457 59.2867 47.0514 59.3002L46.1382 59.4375L46.1424 59.2164L46.9508 59.0897C46.9901 59.085 46.9962 59.0762 46.9969 59.0373L46.9974 59.0098L46.1568 58.458L46.161 58.2349L46.161 58.2356Z" fill="#01292C"/>
<path opacity="0.4" d="M205.633 49.6463C205.772 39.9822 198.044 32.0305 188.371 31.8853C178.699 31.7401 170.745 39.4565 170.606 49.1205C170.467 58.7842 178.195 66.7363 187.868 66.8815C197.54 67.0267 205.494 59.31 205.633 49.6463Z" fill="white"/>
<path opacity="0.859468" d="M205.633 71.668C205.772 62.0036 198.044 54.0522 188.372 53.907C178.699 53.7618 170.746 61.4778 170.607 71.1423C170.468 80.806 178.196 88.7581 187.868 88.9033C197.541 89.0484 205.494 81.3317 205.633 71.668Z" fill="white"/>
<path d="M43.6795 342.554L33.3506 342.392L33.3646 340.27L38.4309 338.471C38.758 338.357 39.0958 338.249 39.4439 338.146C39.7817 338.044 40.1191 337.936 40.457 337.822L40.4574 337.757C40.1211 337.633 39.7852 337.52 39.4488 337.418C39.102 337.304 38.7657 337.185 38.4402 337.061L33.3984 335.152L33.4125 333.014L43.7415 333.176L43.73 334.909L39.0078 334.835C38.7655 334.831 38.5024 334.822 38.2182 334.806C37.9341 334.78 37.6499 334.754 37.3658 334.728C37.0711 334.702 36.787 334.671 36.5135 334.634C36.2294 334.597 35.9664 334.566 35.7243 334.54L35.7239 334.605L38.1188 335.501L42.7507 337.308L42.7433 338.425L38.0884 340.101L35.6823 340.906L35.6818 340.97C35.9242 340.953 36.1875 340.935 36.4719 340.918C36.7459 340.89 37.0304 340.867 37.3253 340.851C37.6098 340.823 37.8942 340.805 38.1786 340.799C38.463 340.782 38.7262 340.775 38.9685 340.779L43.6907 340.854L43.6795 342.554ZM43.9735 326.748C43.9702 327.244 43.8777 327.718 43.6956 328.169C43.5135 328.619 43.2477 329.02 42.8979 329.371C42.5481 329.711 42.1199 329.98 41.6131 330.177C41.1064 330.374 40.5318 330.468 39.8896 330.457C39.2475 330.447 38.6742 330.336 38.1702 330.123C37.6661 329.91 37.2415 329.628 36.8964 329.276C36.5513 328.915 36.2907 328.506 36.1147 328.049C35.9282 327.593 35.8366 327.116 35.8399 326.619C35.8431 326.123 35.941 325.649 36.1336 325.199C36.3156 324.737 36.5815 324.337 36.9313 323.996C37.281 323.656 37.7092 323.388 38.216 323.19C38.7228 322.982 39.2975 322.884 39.9396 322.894C40.5818 322.904 41.155 323.021 41.659 323.245C42.163 323.458 42.5876 323.74 42.9328 324.091C43.2779 324.442 43.5384 324.851 43.7144 325.318C43.8905 325.774 43.9768 326.251 43.9735 326.748ZM42.4889 326.724C42.4928 326.141 42.2643 325.678 41.8031 325.336C41.3315 324.994 40.7062 324.817 39.927 324.805C39.1373 324.792 38.5098 324.95 38.0442 325.277C37.5682 325.604 37.3283 326.06 37.3244 326.643C37.3206 327.226 37.5545 327.689 38.026 328.031C38.4873 328.362 39.1126 328.534 39.9023 328.546C40.6815 328.558 41.3089 328.406 41.7849 328.09C42.2505 327.763 42.485 327.307 42.4889 326.724ZM44.0369 317.146C44.0334 317.686 43.9406 318.192 43.7584 318.664C43.5762 319.126 43.3104 319.526 42.9607 319.866C42.611 320.206 42.1827 320.469 41.6761 320.656C41.1694 320.842 40.5948 320.93 39.9527 320.92C39.3105 320.91 38.7373 320.793 38.2333 320.569C37.7293 320.346 37.3048 320.047 36.9598 319.674C36.6148 319.302 36.3544 318.877 36.1785 318.399C35.9922 317.91 35.9008 317.401 35.9043 316.872C35.9077 316.353 35.9949 315.912 36.1657 315.548C36.3367 315.173 36.5442 314.841 36.7883 314.553L37.9668 315.479C37.7863 315.692 37.6481 315.906 37.5519 316.12C37.4454 316.324 37.3911 316.55 37.3895 316.798C37.3852 317.446 37.6187 317.973 38.0898 318.38C38.5506 318.787 39.1756 318.997 39.9653 319.009C40.7446 319.021 41.3722 318.837 41.8486 318.456C42.3146 318.063 42.5495 317.554 42.5536 316.928C42.5557 316.615 42.4945 316.322 42.3699 316.05C42.235 315.768 42.0787 315.511 41.9011 315.282L43.1065 314.539C43.4198 314.922 43.654 315.342 43.8089 315.798C43.9639 316.243 44.0399 316.692 44.0369 317.146ZM44.0804 310.568C44.0758 311.27 43.8667 311.833 43.4532 312.259C43.0293 312.684 42.4751 312.891 41.7906 312.88C41.38 312.874 41.0173 312.782 40.7026 312.604C40.3775 312.415 40.1001 312.13 39.8711 311.749C39.6422 311.356 39.4505 310.867 39.2964 310.282C39.1424 309.685 39.0261 308.976 38.9472 308.154C38.7472 308.162 38.5574 308.191 38.378 308.242C38.1881 308.283 38.0243 308.361 37.8868 308.478C37.7385 308.583 37.627 308.727 37.5522 308.91C37.4666 309.092 37.4231 309.318 37.4214 309.588C37.4188 309.977 37.4898 310.361 37.6349 310.741C37.78 311.111 37.9563 311.475 38.1647 311.835L36.9441 312.496C36.6732 312.049 36.4396 311.549 36.2432 310.995C36.0468 310.441 35.9507 309.846 35.9549 309.209C35.9615 308.215 36.2559 307.48 36.8382 307.003C37.4101 306.516 38.2384 306.28 39.3227 306.297L43.9186 306.37L43.9085 307.908L43.0547 308.025L43.0543 308.089C43.3467 308.45 43.5918 308.837 43.789 309.251C43.9863 309.653 44.0836 310.092 44.0804 310.568ZM42.663 309.946C42.6651 309.622 42.5935 309.329 42.4476 309.068C42.3019 308.796 42.0934 308.506 41.8216 308.199L40.0843 308.172C40.1439 308.713 40.2253 309.168 40.328 309.537C40.4307 309.905 40.5501 310.204 40.6854 310.433C40.8102 310.662 40.9567 310.826 41.1244 310.926C41.2921 311.026 41.4709 311.077 41.6604 311.08C42.0078 311.086 42.2612 310.982 42.4206 310.768C42.58 310.555 42.6608 310.281 42.663 309.946ZM43.9376 303.493L36.183 303.371L36.1932 301.832L37.5681 301.724L37.5685 301.659C37.065 301.371 36.6829 301.025 36.4223 300.621C36.1512 300.217 36.0171 299.804 36.0199 299.383C36.0223 299.006 36.077 298.704 36.1838 298.479L37.761 298.828C37.7181 298.967 37.6856 299.097 37.6637 299.215C37.6417 299.333 37.6303 299.479 37.6292 299.652C37.6271 299.965 37.7459 300.296 37.9859 300.645C38.2151 300.995 38.6238 301.298 39.2119 301.555L43.9499 301.63L43.9376 303.493ZM44.1887 294.178C44.1821 295.182 43.824 295.976 43.1147 296.559C42.3948 297.13 41.3928 297.406 40.1082 297.386C39.4765 297.376 38.9085 297.275 38.4043 297.084C37.9002 296.881 37.4755 296.621 37.1301 296.302C36.7847 295.984 36.5186 295.623 36.3317 295.221C36.1449 294.807 36.0529 294.385 36.0557 293.953C36.0587 293.5 36.1402 293.118 36.3002 292.807C36.4497 292.496 36.6571 292.186 36.9224 291.877L35.6743 291.922L32.863 291.878L32.8754 290.015L44.0255 290.191L44.0154 291.73L43.1775 291.846L43.177 291.911C43.4594 292.207 43.6994 292.551 43.8968 292.943C44.0942 293.334 44.1916 293.746 44.1887 294.178ZM42.6913 293.701C42.6953 293.107 42.4093 292.547 41.8337 292.019L38.217 291.962C37.9729 292.239 37.8027 292.512 37.7062 292.78C37.6097 293.038 37.5606 293.302 37.5588 293.572C37.5554 294.09 37.7736 294.531 38.2135 294.894C38.6533 295.257 39.2839 295.445 40.1051 295.458C40.9476 295.472 41.5907 295.33 42.0349 295.035C42.4688 294.729 42.6875 294.284 42.6913 293.701Z" fill="white"/>
<path d="M119.567 337.535C119.565 338.915 119.337 340.064 118.884 340.981C118.432 341.898 117.875 342.654 117.214 343.251L115.289 341.777C115.793 341.268 116.228 340.687 116.594 340.035C116.942 339.383 117.116 338.632 117.118 337.783C117.119 336.863 116.903 336.118 116.47 335.548C116.019 334.961 115.403 334.665 114.621 334.659C114.187 334.656 113.796 334.733 113.449 334.889C113.101 335.046 112.806 335.318 112.562 335.706C112.318 336.076 112.135 336.579 112.013 337.215C111.873 337.851 111.803 338.646 111.801 339.602L109.613 339.586C109.614 338.754 109.555 338.064 109.434 337.514C109.296 336.947 109.114 336.495 108.889 336.157C108.646 335.801 108.36 335.551 108.03 335.407C107.7 335.246 107.345 335.164 106.963 335.161C106.268 335.156 105.729 335.373 105.347 335.813C104.947 336.252 104.746 336.861 104.745 337.64C104.744 338.312 104.891 338.924 105.185 339.474C105.462 340.007 105.835 340.532 106.303 341.048L104.452 342.601C103.827 341.871 103.325 341.097 102.944 340.281C102.563 339.446 102.373 338.525 102.375 337.516C102.376 336.702 102.472 335.96 102.664 335.289C102.856 334.618 103.144 334.045 103.526 333.57C103.892 333.095 104.352 332.726 104.909 332.465C105.447 332.204 106.064 332.075 106.758 332.08C107.696 332.087 108.477 332.358 109.102 332.894C109.726 333.411 110.211 334.132 110.557 335.054L110.662 335.055C110.923 334.048 111.402 333.22 112.098 332.57C112.793 331.903 113.688 331.573 114.782 331.581C115.546 331.587 116.223 331.751 116.813 332.074C117.403 332.379 117.906 332.807 118.322 333.359C118.721 333.893 119.032 334.523 119.257 335.25C119.465 335.96 119.568 336.721 119.567 337.535ZM119.588 322.414C119.586 323.246 119.472 324.015 119.246 324.721C119.019 325.409 118.706 326.009 118.306 326.519C117.905 327.012 117.427 327.406 116.871 327.703C116.315 327.982 115.698 328.119 115.021 328.114C114.5 328.11 114.032 328.027 113.615 327.865C113.181 327.685 112.791 327.452 112.444 327.166C112.097 326.881 111.785 326.56 111.507 326.204C111.23 325.831 110.988 325.439 110.78 325.031L110.675 325.03C110.223 325.682 109.684 326.235 109.058 326.691C108.432 327.128 107.677 327.344 106.791 327.338C106.114 327.333 105.506 327.204 104.968 326.953C104.43 326.683 103.971 326.326 103.589 325.881C103.208 325.418 102.913 324.876 102.706 324.256C102.498 323.617 102.395 322.935 102.396 322.21C102.397 321.449 102.511 320.768 102.738 320.168C102.947 319.551 103.251 319.031 103.651 318.609C104.034 318.169 104.503 317.837 105.059 317.611C105.598 317.385 106.206 317.274 106.883 317.279C107.3 317.282 107.699 317.356 108.081 317.5C108.446 317.626 108.793 317.797 109.122 318.012C109.435 318.226 109.73 318.476 110.007 318.761C110.267 319.029 110.492 319.296 110.683 319.563L110.787 319.563C110.996 319.176 111.24 318.806 111.518 318.454C111.779 318.102 112.084 317.794 112.431 317.532C112.779 317.269 113.17 317.059 113.604 316.903C114.039 316.747 114.534 316.671 115.089 316.675C115.732 316.68 116.331 316.826 116.886 317.113C117.424 317.382 117.901 317.766 118.317 318.265C118.716 318.763 119.027 319.367 119.252 320.076C119.477 320.786 119.589 321.565 119.588 322.414ZM109.925 321.229C109.475 320.766 109.015 320.418 108.546 320.184C108.078 319.933 107.583 319.805 107.062 319.802C106.333 319.796 105.733 320.013 105.264 320.452C104.777 320.873 104.533 321.482 104.532 322.278C104.531 322.933 104.73 323.483 105.129 323.928C105.51 324.373 106.066 324.599 106.795 324.604C107.212 324.607 107.576 324.521 107.889 324.346C108.202 324.172 108.48 323.935 108.724 323.636C108.95 323.319 109.168 322.958 109.377 322.552C109.568 322.147 109.751 321.706 109.925 321.229ZM117.452 322.346C117.453 321.532 117.237 320.867 116.803 320.35C116.37 319.816 115.763 319.546 114.981 319.541C114.53 319.538 114.147 319.641 113.835 319.851C113.504 320.061 113.217 320.351 112.974 320.721C112.713 321.073 112.478 321.496 112.269 321.989C112.06 322.483 111.842 323.013 111.615 323.577C111.997 324.111 112.447 324.557 112.968 324.914C113.488 325.254 114.07 325.427 114.712 325.431C115.546 325.437 116.215 325.141 116.719 324.543C117.206 323.945 117.451 323.213 117.452 322.346ZM119.287 313.555L117.542 313.542C116.432 312.367 115.409 311.306 114.473 310.362C113.537 309.399 112.669 308.588 111.872 307.927C111.074 307.249 110.328 306.731 109.634 306.372C108.939 306.013 108.28 305.831 107.655 305.826C106.769 305.82 106.074 306.054 105.57 306.528C105.048 307.002 104.787 307.69 104.786 308.592C104.785 309.247 104.966 309.85 105.33 310.401C105.694 310.935 106.127 311.433 106.63 311.897L104.961 313.584C104.146 312.799 103.522 311.998 103.089 311.181C102.638 310.346 102.414 309.345 102.416 308.177C102.417 307.363 102.539 306.63 102.783 305.977C103.027 305.324 103.376 304.769 103.828 304.312C104.262 303.855 104.793 303.505 105.418 303.262C106.044 303.001 106.738 302.873 107.502 302.879C108.232 302.884 108.978 303.058 109.742 303.4C110.488 303.724 111.252 304.172 112.032 304.743C112.796 305.298 113.585 305.949 114.4 306.698C115.215 307.447 116.056 308.241 116.923 309.079C116.889 308.636 116.855 308.158 116.821 307.645C116.77 307.131 116.744 306.671 116.745 306.264L116.751 302.124L119.303 302.142L119.287 313.555ZM119.313 295.435C117.837 295.354 116.491 295.211 115.276 295.008C114.043 294.804 112.871 294.521 111.76 294.159C110.65 293.78 109.574 293.303 108.533 292.729C107.474 292.155 106.39 291.457 105.279 290.635L105.268 298.624L102.742 298.606L102.757 287.272L104.581 287.286C105.778 288.285 106.923 289.099 108.016 289.726C109.092 290.335 110.202 290.821 111.348 291.184C112.476 291.546 113.683 291.811 114.967 291.98C116.252 292.13 117.702 292.247 119.317 292.33L119.313 295.435ZM119.347 270.913L115.075 270.882L115.065 278.341L113.033 278.326L102.779 271.562L102.784 267.926L112.761 267.999L112.764 265.875L115.082 265.892L115.079 268.016L119.351 268.047L119.347 270.913ZM112.751 275.298L112.757 270.865L109.006 270.838C108.52 270.835 107.947 270.822 107.287 270.799C106.627 270.759 106.054 270.719 105.568 270.68L105.568 270.786C106.001 271.002 106.427 271.226 106.843 271.459C107.259 271.692 107.693 271.934 108.144 272.185L112.751 275.298ZM119.679 256.883C119.678 257.715 119.52 258.501 119.207 259.242C118.876 259.983 118.38 260.634 117.719 261.195C117.059 261.739 116.216 262.175 115.191 262.504C114.166 262.815 112.959 262.965 111.57 262.955C109.955 262.944 108.574 262.748 107.429 262.368C106.283 261.988 105.346 261.494 104.618 260.887C103.889 260.263 103.352 259.551 103.006 258.752C102.659 257.954 102.487 257.121 102.488 256.254C102.49 255.227 102.673 254.353 103.039 253.63C103.405 252.889 103.848 252.264 104.37 251.755L106.191 253.414C105.826 253.712 105.53 254.108 105.304 254.602C105.06 255.078 104.938 255.572 104.937 256.086C104.936 256.616 105.04 257.122 105.247 257.601C105.455 258.062 105.802 258.472 106.288 258.829C106.756 259.187 107.381 259.483 108.162 259.719C108.943 259.937 109.907 260.068 111.053 260.111C110.446 259.612 109.969 259.033 109.622 258.376C109.276 257.701 109.103 257.054 109.104 256.434C109.105 255.709 109.21 255.046 109.419 254.446C109.629 253.828 109.951 253.309 110.385 252.887C110.803 252.448 111.333 252.115 111.976 251.89C112.619 251.647 113.374 251.529 114.242 251.535C115.076 251.541 115.831 251.688 116.508 251.976C117.167 252.264 117.731 252.649 118.2 253.13C118.668 253.611 119.032 254.18 119.291 254.836C119.551 255.475 119.68 256.158 119.679 256.883ZM117.387 256.919C117.388 256.212 117.119 255.617 116.582 255.135C116.044 254.636 115.263 254.382 114.238 254.375C113.249 254.368 112.51 254.592 112.023 255.049C111.537 255.506 111.293 256.158 111.291 257.008C111.291 257.486 111.438 257.991 111.732 258.524C112.009 259.057 112.495 259.565 113.189 260.047C114.665 259.899 115.733 259.553 116.394 259.009C117.055 258.448 117.386 257.751 117.387 256.919ZM119.698 243.142C119.696 244.523 119.469 245.671 119.016 246.588C118.563 247.505 118.007 248.262 117.346 248.858L115.42 247.385C115.925 246.875 116.36 246.294 116.725 245.642C117.073 244.99 117.248 244.239 117.249 243.39C117.251 242.47 117.035 241.725 116.601 241.156C116.151 240.569 115.534 240.272 114.753 240.266C114.319 240.263 113.928 240.34 113.581 240.497C113.233 240.653 112.937 240.926 112.694 241.313C112.45 241.683 112.267 242.186 112.145 242.822C112.005 243.458 111.934 244.254 111.933 245.209L109.745 245.193C109.746 244.362 109.686 243.671 109.566 243.122C109.427 242.555 109.246 242.102 109.02 241.764C108.778 241.408 108.492 241.159 108.162 241.015C107.832 240.853 107.476 240.771 107.094 240.768C106.4 240.763 105.861 240.98 105.478 241.42C105.078 241.859 104.878 242.468 104.877 243.247C104.876 243.919 105.022 244.531 105.317 245.081C105.594 245.614 105.967 246.139 106.435 246.656L104.583 248.208C103.959 247.478 103.457 246.705 103.076 245.888C102.695 245.054 102.505 244.132 102.506 243.123C102.508 242.31 102.604 241.567 102.796 240.896C102.988 240.225 103.275 239.652 103.658 239.177C104.023 238.702 104.484 238.334 105.04 238.072C105.579 237.811 106.196 237.683 106.89 237.688C107.828 237.695 108.609 237.966 109.233 238.501C109.858 239.019 110.343 239.739 110.689 240.662L110.793 240.662C111.055 239.656 111.534 238.827 112.229 238.178C112.925 237.51 113.82 237.181 114.914 237.189C115.678 237.194 116.355 237.358 116.945 237.681C117.535 237.986 118.038 238.415 118.454 238.966C118.852 239.5 119.164 240.13 119.389 240.858C119.596 241.567 119.699 242.328 119.698 243.142ZM119.403 230.381C117.927 230.3 116.582 230.157 115.367 229.954C114.134 229.75 112.962 229.467 111.851 229.105C110.74 228.726 109.664 228.249 108.623 227.675C107.565 227.101 106.48 226.403 105.37 225.581L105.359 233.57L102.832 233.552L102.848 222.218L104.672 222.232C105.868 223.231 107.013 224.045 108.107 224.672C109.182 225.281 110.293 225.767 111.439 226.13C112.567 226.492 113.773 226.757 115.058 226.926C116.343 227.077 117.793 227.193 119.408 227.276L119.403 230.381ZM119.748 207.428C119.746 208.808 119.519 209.956 119.066 210.873C118.613 211.79 118.056 212.547 117.396 213.144L115.47 211.67C115.975 211.16 116.409 210.58 116.775 209.928C117.123 209.275 117.298 208.525 117.299 207.675C117.3 206.755 117.084 206.01 116.651 205.441C116.2 204.854 115.584 204.557 114.803 204.552C114.369 204.549 113.978 204.625 113.63 204.782C113.283 204.939 112.987 205.211 112.744 205.598C112.5 205.968 112.317 206.471 112.195 207.107C112.055 207.743 111.984 208.539 111.983 209.495L109.795 209.479C109.796 208.647 109.736 207.956 109.615 207.407C109.477 206.84 109.295 206.387 109.07 206.049C108.828 205.694 108.541 205.444 108.212 205.3C107.882 205.138 107.526 205.056 107.144 205.053C106.449 205.048 105.911 205.266 105.528 205.705C105.128 206.145 104.928 206.754 104.926 207.532C104.926 208.205 105.072 208.816 105.367 209.367C105.644 209.9 106.016 210.424 106.485 210.941L104.633 212.493C104.009 211.763 103.506 210.99 103.126 210.173C102.745 209.339 102.555 208.417 102.556 207.409C102.557 206.595 102.654 205.852 102.846 205.181C103.038 204.51 103.325 203.937 103.708 203.462C104.073 202.987 104.534 202.619 105.09 202.358C105.629 202.096 106.245 201.968 106.94 201.973C107.878 201.98 108.659 202.251 109.283 202.786C109.908 203.304 110.393 204.024 110.739 204.947L110.843 204.948C111.105 203.941 111.584 203.113 112.279 202.463C112.975 201.796 113.869 201.466 114.963 201.474C115.728 201.479 116.405 201.644 116.995 201.966C117.585 202.272 118.088 202.7 118.504 203.251C118.902 203.785 119.214 204.416 119.439 205.143C119.646 205.852 119.749 206.614 119.748 207.428ZM119.45 197.162L117.001 197.144L117.007 193.375L106.119 193.296L106.114 196.401L104.239 196.387C104.084 195.537 103.902 194.81 103.695 194.207C103.47 193.586 103.202 193.009 102.89 192.476L102.893 190.193L117.011 190.296L117.015 186.978L119.464 186.996L119.45 197.162ZM119.79 177.664C119.787 179.433 119.047 180.826 117.57 181.841C116.075 182.857 113.921 183.354 111.108 183.334C108.294 183.313 106.177 182.785 104.754 181.748C103.314 180.711 102.595 179.308 102.598 177.539C102.6 175.769 103.323 174.377 104.766 173.361C106.209 172.345 108.328 171.847 111.124 171.868C113.937 171.888 116.089 172.417 117.581 173.454C119.056 174.491 119.792 175.894 119.79 177.664ZM117.445 177.647C117.446 177.24 117.342 176.867 117.134 176.53C116.909 176.174 116.545 175.871 116.041 175.619C115.538 175.368 114.887 175.169 114.089 175.021C113.29 174.874 112.3 174.796 111.12 174.787C109.956 174.779 108.984 174.842 108.202 174.978C107.403 175.114 106.76 175.304 106.274 175.548C105.787 175.792 105.448 176.091 105.256 176.443C105.048 176.778 104.943 177.149 104.942 177.556C104.942 177.963 105.045 178.344 105.253 178.699C105.444 179.037 105.782 179.331 106.268 179.583C106.754 179.834 107.396 180.033 108.195 180.181C108.976 180.328 109.948 180.406 111.112 180.414C112.293 180.423 113.282 180.359 114.081 180.223C114.88 180.088 115.532 179.898 116.036 179.654C116.54 179.41 116.905 179.12 117.131 178.786C117.34 178.433 117.445 178.054 117.445 177.647ZM119.809 163.419C119.807 164.799 119.58 165.948 119.127 166.864C118.675 167.781 118.118 168.538 117.457 169.135L115.532 167.661C116.036 167.152 116.471 166.571 116.836 165.919C117.185 165.267 117.359 164.516 117.361 163.667C117.362 162.746 117.146 162.002 116.712 161.432C116.262 160.845 115.646 160.549 114.864 160.543C114.43 160.54 114.039 160.617 113.692 160.773C113.344 160.93 113.049 161.202 112.805 161.59C112.561 161.959 112.378 162.462 112.256 163.099C112.116 163.735 112.046 164.53 112.044 165.486L109.856 165.47C109.857 164.638 109.798 163.948 109.677 163.398C109.539 162.831 109.357 162.378 109.132 162.041C108.889 161.685 108.603 161.435 108.273 161.291C107.943 161.13 107.587 161.047 107.205 161.045C106.511 161.039 105.972 161.257 105.59 161.696C105.19 162.136 104.989 162.745 104.988 163.523C104.987 164.196 105.134 164.807 105.428 165.358C105.705 165.891 106.078 166.416 106.546 166.932L104.694 168.485C104.07 167.755 103.568 166.981 103.187 166.164C102.806 165.33 102.616 164.409 102.618 163.4C102.619 162.586 102.715 161.844 102.907 161.173C103.099 160.502 103.387 159.929 103.769 159.454C104.135 158.978 104.595 158.61 105.151 158.349C105.69 158.087 106.307 157.959 107.001 157.964C107.939 157.971 108.72 158.242 109.345 158.777C109.969 159.295 110.454 160.015 110.8 160.938L110.904 160.939C111.166 159.932 111.645 159.104 112.341 158.454C113.036 157.787 113.931 157.457 115.025 157.465C115.789 157.471 116.466 157.635 117.056 157.958C117.646 158.263 118.149 158.691 118.565 159.243C118.964 159.776 119.275 160.407 119.5 161.134C119.707 161.843 119.811 162.605 119.809 163.419ZM119.524 144.283C118.048 144.201 116.702 144.059 115.487 143.855C114.254 143.652 113.082 143.369 111.971 143.007C110.86 142.627 109.785 142.151 108.743 141.577C107.685 141.003 106.601 140.305 105.49 139.483L105.479 147.472L102.953 147.453L102.968 136.12L104.792 136.133C105.988 137.133 107.133 137.946 108.227 138.574C109.302 139.183 110.413 139.669 111.559 140.031C112.687 140.393 113.894 140.659 115.178 140.827C116.463 140.978 117.913 141.095 119.528 141.177L119.524 144.283ZM119.859 127.705C119.857 129.085 119.63 130.233 119.177 131.15C118.724 132.067 118.168 132.824 117.507 133.421L115.581 131.947C116.086 131.437 116.521 130.856 116.886 130.204C117.234 129.552 117.409 128.801 117.41 127.952C117.412 127.032 117.196 126.287 116.762 125.718C116.312 125.131 115.696 124.834 114.914 124.829C114.48 124.825 114.089 124.902 113.742 125.059C113.394 125.216 113.098 125.488 112.855 125.875C112.611 126.245 112.428 126.748 112.306 127.384C112.166 128.02 112.095 128.816 112.094 129.771L109.906 129.755C109.907 128.924 109.847 128.233 109.727 127.684C109.588 127.117 109.407 126.664 109.181 126.326C108.939 125.971 108.653 125.721 108.323 125.577C107.993 125.415 107.637 125.333 107.255 125.33C106.561 125.325 106.022 125.542 105.639 125.982C105.239 126.421 105.039 127.03 105.038 127.809C105.037 128.481 105.184 129.093 105.478 129.644C105.755 130.176 106.128 130.701 106.596 131.218L104.744 132.77C104.12 132.04 103.618 131.267 103.237 130.45C102.856 129.616 102.666 128.694 102.668 127.686C102.669 126.872 102.765 126.129 102.957 125.458C103.149 124.787 103.436 124.214 103.819 123.739C104.184 123.264 104.645 122.896 105.201 122.634C105.74 122.373 106.357 122.245 107.051 122.25C107.989 122.257 108.77 122.528 109.394 123.063C110.019 123.581 110.504 124.301 110.85 125.224L110.954 125.224C111.216 124.218 111.695 123.389 112.39 122.74C113.086 122.073 113.981 121.743 115.075 121.751C115.839 121.756 116.516 121.921 117.106 122.243C117.696 122.548 118.199 122.977 118.615 123.528C119.013 124.062 119.325 124.693 119.55 125.42C119.757 126.129 119.86 126.891 119.859 127.705ZM119.88 112.584C119.879 113.415 119.765 114.184 119.538 114.89C119.312 115.579 118.998 116.178 118.598 116.688C118.198 117.181 117.72 117.576 117.164 117.872C116.608 118.151 115.991 118.289 115.314 118.284C114.793 118.28 114.324 118.197 113.908 118.035C113.474 117.854 113.083 117.622 112.737 117.336C112.39 117.05 112.077 116.729 111.8 116.374C111.523 116 111.28 115.609 111.072 115.2L110.968 115.2C110.516 115.851 109.977 116.404 109.351 116.86C108.725 117.298 107.969 117.514 107.084 117.507C106.407 117.502 105.799 117.374 105.261 117.122C104.723 116.853 104.263 116.496 103.882 116.05C103.501 115.588 103.206 115.046 102.999 114.425C102.791 113.786 102.688 113.104 102.689 112.379C102.69 111.618 102.804 110.938 103.03 110.338C103.24 109.72 103.544 109.2 103.944 108.778C104.327 108.339 104.796 108.006 105.352 107.78C105.891 107.554 106.499 107.443 107.176 107.448C107.593 107.451 107.992 107.525 108.374 107.669C108.738 107.796 109.085 107.966 109.415 108.181C109.727 108.396 110.022 108.646 110.3 108.931C110.56 109.198 110.785 109.465 110.976 109.732L111.08 109.733C111.289 109.345 111.533 108.975 111.811 108.623C112.072 108.271 112.376 107.964 112.724 107.701C113.072 107.438 113.463 107.229 113.897 107.072C114.331 106.916 114.826 106.84 115.382 106.844C116.025 106.849 116.623 106.995 117.179 107.282C117.717 107.552 118.194 107.935 118.61 108.434C119.008 108.932 119.32 109.536 119.545 110.246C119.77 110.955 119.881 111.734 119.88 112.584ZM110.218 111.399C109.767 110.935 109.308 110.587 108.839 110.353C108.371 110.102 107.876 109.975 107.355 109.971C106.625 109.966 106.026 110.183 105.557 110.622C105.07 111.043 104.826 111.651 104.825 112.448C104.824 113.102 105.023 113.652 105.422 114.098C105.803 114.543 106.358 114.768 107.088 114.773C107.504 114.776 107.869 114.69 108.182 114.516C108.495 114.341 108.773 114.104 109.017 113.805C109.243 113.488 109.46 113.127 109.669 112.722C109.861 112.316 110.044 111.875 110.218 111.399ZM117.744 112.515C117.746 111.701 117.529 111.036 117.096 110.52C116.663 109.986 116.055 109.716 115.274 109.71C114.822 109.707 114.44 109.81 114.127 110.02C113.797 110.23 113.51 110.52 113.266 110.89C113.005 111.242 112.77 111.665 112.561 112.159C112.352 112.653 112.135 113.182 111.908 113.747C112.289 114.28 112.74 114.726 113.261 115.084C113.781 115.424 114.363 115.596 115.005 115.601C115.839 115.607 116.508 115.311 117.012 114.713C117.499 114.115 117.743 113.382 117.744 112.515ZM111.096 98.1951C111.097 97.6996 110.95 97.1855 110.655 96.6525C110.344 96.1017 109.849 95.6026 109.173 95.1553C107.714 95.304 106.654 95.6678 105.993 96.2469C105.333 96.8084 105.002 97.496 105.001 98.31C105 99.0001 105.268 99.5948 105.806 100.094C106.343 100.594 107.116 100.847 108.123 100.854C109.113 100.861 109.86 100.637 110.364 100.18C110.851 99.7062 111.095 99.0444 111.096 98.1951ZM119.899 98.9759C119.898 99.9844 119.714 100.859 119.349 101.599C118.983 102.34 118.539 102.965 118.018 103.474L116.197 101.815C116.562 101.5 116.866 101.104 117.11 100.628C117.336 100.134 117.45 99.6304 117.451 99.1173C117.451 98.5864 117.348 98.0902 117.14 97.6286C116.932 97.1493 116.594 96.7311 116.126 96.3738C115.64 96.0164 115.007 95.7286 114.226 95.5106C113.445 95.2749 112.481 95.1352 111.335 95.0914C111.942 95.5913 112.419 96.1787 112.765 96.8536C113.094 97.5284 113.258 98.1755 113.257 98.7948C113.256 99.5203 113.151 100.183 112.942 100.783C112.733 101.383 112.419 101.903 112.002 102.342C111.567 102.764 111.029 103.096 110.386 103.339C109.743 103.564 108.987 103.674 108.119 103.668C107.285 103.662 106.539 103.515 105.879 103.227C105.203 102.939 104.63 102.554 104.162 102.073C103.694 101.592 103.339 101.032 103.096 100.393C102.837 99.7364 102.707 99.0453 102.708 98.3199C102.71 97.5059 102.876 96.7286 103.207 95.9878C103.52 95.2469 104.007 94.6046 104.668 94.0608C105.329 93.4994 106.172 93.0632 107.197 92.7521C108.204 92.4232 109.403 92.2639 110.792 92.274C112.407 92.2858 113.787 92.4816 114.933 92.8615C116.078 93.2238 117.024 93.7172 117.77 94.342C118.498 94.9489 119.036 95.6606 119.382 96.4771C119.728 97.2759 119.901 98.1088 119.899 98.9759Z" fill="white"/>
<path d="M181.48 340.887C181.479 341.252 181.412 341.588 181.279 341.893C181.145 342.199 180.955 342.465 180.706 342.693C180.452 342.915 180.143 343.089 179.779 343.215C179.41 343.335 178.994 343.393 178.533 343.389C178.077 343.384 177.668 343.316 177.305 343.182C176.942 343.049 176.634 342.866 176.381 342.634C176.127 342.402 175.935 342.129 175.803 341.815C175.665 341.501 175.596 341.158 175.597 340.787C175.598 340.433 175.671 340.124 175.816 339.86C175.955 339.59 176.116 339.37 176.301 339.201L176.768 339.603C176.606 339.755 176.476 339.928 176.377 340.122C176.279 340.315 176.229 340.536 176.229 340.784C176.228 341.061 176.282 341.312 176.392 341.537C176.495 341.762 176.647 341.955 176.849 342.117C177.045 342.278 177.284 342.404 177.566 342.495C177.848 342.58 178.166 342.624 178.517 342.628C178.875 342.631 179.198 342.593 179.487 342.513C179.769 342.427 180.012 342.309 180.214 342.157C180.416 342.006 180.572 341.822 180.682 341.605C180.792 341.381 180.848 341.131 180.848 340.854C180.849 340.571 180.795 340.323 180.686 340.109C180.571 339.896 180.413 339.694 180.211 339.503L180.662 339.101C180.921 339.333 181.122 339.595 181.266 339.885C181.409 340.175 181.481 340.509 181.48 340.887ZM181.489 336.753C181.488 337.113 181.383 337.412 181.175 337.652C180.967 337.886 180.673 338.001 180.292 337.998C179.831 337.993 179.479 337.781 179.238 337.36C178.991 336.939 178.819 336.268 178.723 335.347C178.591 335.345 178.461 335.359 178.334 335.387C178.207 335.409 178.094 335.453 177.996 335.517C177.898 335.581 177.82 335.671 177.762 335.789C177.698 335.9 177.666 336.044 177.666 336.221C177.665 336.469 177.711 336.702 177.803 336.921C177.895 337.14 177.998 337.336 178.113 337.508L177.619 337.787C177.493 337.585 177.372 337.339 177.258 337.049C177.137 336.759 177.077 336.44 177.078 336.092C177.079 335.567 177.239 335.188 177.556 334.955C177.868 334.722 178.287 334.608 178.811 334.613L181.389 334.638L181.388 335.239L180.886 335.296L180.886 335.323C181.053 335.531 181.197 335.753 181.317 335.99C181.432 336.227 181.489 336.482 181.489 336.753ZM180.918 336.535C180.919 336.329 180.873 336.134 180.781 335.95C180.683 335.766 180.543 335.57 180.358 335.362L179.191 335.351C179.236 335.711 179.29 336.015 179.353 336.264C179.416 336.506 179.49 336.704 179.577 336.859C179.663 337.007 179.763 337.117 179.879 337.189C179.988 337.255 180.109 337.288 180.242 337.29C180.484 337.292 180.657 337.22 180.761 337.073C180.865 336.927 180.918 336.748 180.918 336.535ZM181.393 332.931L177.189 332.891L177.19 332.29L177.951 332.235L177.951 332.208C177.687 332.058 177.476 331.879 177.321 331.672C177.166 331.458 177.088 331.227 177.089 330.979C177.089 330.808 177.119 330.655 177.177 330.52L177.799 330.668C177.776 330.738 177.758 330.803 177.747 330.862C177.735 330.921 177.729 330.994 177.729 331.083C177.729 331.266 177.8 331.458 177.944 331.66C178.088 331.856 178.338 332.029 178.696 332.18L181.395 332.206L181.393 332.931ZM181.507 328.129C181.506 328.672 181.315 329.104 180.933 329.424C180.552 329.739 180.01 329.893 179.306 329.886C178.966 329.883 178.66 329.83 178.389 329.727C178.113 329.619 177.879 329.478 177.69 329.305C177.5 329.132 177.353 328.933 177.25 328.708C177.146 328.483 177.095 328.247 177.095 327.999C177.096 327.751 177.14 327.536 177.227 327.354C177.313 327.172 177.432 326.988 177.582 326.8L176.864 326.829L175.247 326.814L175.248 326.079L181.408 326.138L181.406 326.739L180.913 326.797L180.913 326.823C181.074 326.996 181.215 327.195 181.336 327.42C181.451 327.639 181.508 327.876 181.507 328.129ZM180.911 327.964C180.911 327.764 180.865 327.575 180.773 327.397C180.676 327.219 180.529 327.041 180.333 326.862L178.136 326.841C177.974 327.022 177.861 327.198 177.798 327.369C177.728 327.533 177.693 327.704 177.693 327.881C177.692 328.052 177.732 328.214 177.813 328.368C177.887 328.517 177.997 328.647 178.141 328.761C178.279 328.874 178.446 328.964 178.642 329.031C178.838 329.098 179.057 329.132 179.299 329.134C179.807 329.139 180.202 329.04 180.485 328.836C180.768 328.632 180.91 328.342 180.911 327.964ZM181.416 322.14L175.741 322.087L175.743 321.352L178.122 321.375L178.128 318.677L175.749 318.654L175.75 317.911L181.425 317.965L181.424 318.708L178.75 318.683L178.745 321.381L181.418 321.406L181.416 322.14ZM181.537 314.416C181.536 314.681 181.487 314.934 181.388 315.175C181.289 315.41 181.148 315.618 180.963 315.799C180.772 315.98 180.541 316.125 180.27 316.235C179.993 316.338 179.681 316.389 179.335 316.385C178.983 316.382 178.672 316.326 178.401 316.217C178.124 316.102 177.891 315.953 177.701 315.768C177.511 315.584 177.368 315.373 177.27 315.136C177.173 314.893 177.124 314.639 177.125 314.374C177.125 314.108 177.175 313.858 177.273 313.623C177.372 313.382 177.517 313.171 177.707 312.99C177.898 312.809 178.132 312.667 178.409 312.564C178.68 312.454 178.992 312.401 179.344 312.404C179.69 312.408 180.001 312.467 180.278 312.581C180.548 312.69 180.779 312.837 180.969 313.021C181.153 313.206 181.294 313.42 181.391 313.662C181.489 313.899 181.537 314.15 181.537 314.416ZM180.948 314.41C180.949 314.227 180.912 314.059 180.837 313.905C180.757 313.751 180.647 313.62 180.509 313.512C180.365 313.399 180.195 313.312 179.999 313.251C179.803 313.19 179.584 313.159 179.342 313.156C179.1 313.154 178.881 313.181 178.684 313.239C178.482 313.296 178.309 313.379 178.165 313.49C178.02 313.595 177.91 313.724 177.835 313.876C177.754 314.029 177.713 314.197 177.713 314.379C177.713 314.562 177.753 314.731 177.833 314.885C177.908 315.039 178.017 315.173 178.161 315.286C178.305 315.393 178.478 315.478 178.679 315.539C178.875 315.599 179.094 315.631 179.337 315.633C179.579 315.636 179.798 315.608 179.994 315.551C180.191 315.494 180.361 315.413 180.505 315.308C180.644 315.198 180.754 315.066 180.835 314.913C180.91 314.761 180.948 314.593 180.948 314.41ZM181.546 310.17C181.545 310.447 181.464 310.643 181.302 310.76C181.141 310.876 180.904 310.933 180.593 310.93L175.281 310.88L175.282 310.154L180.646 310.205C180.761 310.206 180.842 310.186 180.888 310.146C180.935 310.105 180.958 310.058 180.958 310.005C180.958 309.981 180.958 309.96 180.958 309.943C180.958 309.919 180.952 309.887 180.941 309.845L181.477 309.753C181.5 309.8 181.518 309.857 181.529 309.922C181.54 309.987 181.546 310.069 181.546 310.17ZM181.553 306.862C181.552 307.405 181.36 307.836 180.979 308.157C180.598 308.472 180.055 308.626 179.352 308.619C179.011 308.616 178.706 308.563 178.435 308.46C178.158 308.351 177.925 308.211 177.735 308.038C177.545 307.865 177.399 307.666 177.295 307.441C177.192 307.216 177.141 306.979 177.141 306.732C177.142 306.484 177.185 306.269 177.272 306.087C177.359 305.905 177.478 305.721 177.628 305.533L176.91 305.562L175.292 305.546L175.294 304.812L181.453 304.871L181.452 305.472L180.959 305.53L180.959 305.556C181.12 305.729 181.261 305.928 181.381 306.153C181.496 306.372 181.553 306.609 181.553 306.862ZM180.956 306.697C180.957 306.497 180.911 306.308 180.819 306.13C180.721 305.952 180.575 305.774 180.379 305.595L178.182 305.574C178.02 305.755 177.907 305.931 177.843 306.101C177.774 306.266 177.739 306.437 177.738 306.614C177.738 306.785 177.778 306.947 177.858 307.101C177.933 307.249 178.042 307.38 178.186 307.494C178.324 307.607 178.491 307.697 178.687 307.764C178.883 307.83 179.102 307.865 179.345 307.867C179.852 307.872 180.248 307.773 180.531 307.569C180.814 307.365 180.956 307.075 180.956 306.697ZM181.565 301.327C181.564 301.616 181.515 301.887 181.416 302.139C181.312 302.386 181.167 302.603 180.982 302.79C180.791 302.971 180.56 303.113 180.289 303.217C180.018 303.32 179.709 303.371 179.363 303.367C179.017 303.364 178.709 303.308 178.438 303.199C178.161 303.085 177.928 302.938 177.738 302.759C177.548 302.574 177.404 302.367 177.307 302.136C177.203 301.905 177.152 301.665 177.152 301.418C177.153 301.146 177.2 300.905 177.292 300.694C177.385 300.476 177.518 300.298 177.692 300.158C177.865 300.012 178.073 299.902 178.315 299.828C178.558 299.753 178.829 299.717 179.129 299.72C179.204 299.721 179.279 299.725 179.354 299.731C179.423 299.732 179.483 299.738 179.535 299.751L179.529 302.652C179.979 302.627 180.337 302.489 180.603 302.238C180.863 301.981 180.993 301.646 180.994 301.233C180.994 301.027 180.966 300.838 180.909 300.666C180.846 300.489 180.765 300.32 180.668 300.16L181.135 299.907C181.25 300.097 181.351 300.308 181.437 300.538C181.523 300.769 181.565 301.032 181.565 301.327ZM179.018 302.656L179.023 300.356C178.597 300.352 178.273 300.443 178.054 300.63C177.829 300.811 177.716 301.069 177.715 301.405C177.715 301.559 177.743 301.706 177.8 301.848C177.858 301.985 177.944 302.109 178.059 302.222C178.168 302.336 178.304 302.431 178.465 302.509C178.626 302.582 178.811 302.631 179.018 302.656ZM181.467 298.326L177.263 298.286L177.264 297.685L178.026 297.63L178.026 297.604C177.761 297.454 177.551 297.275 177.395 297.067C177.24 296.853 177.163 296.622 177.163 296.375C177.164 296.204 177.193 296.05 177.251 295.915L177.873 296.063C177.85 296.133 177.833 296.198 177.821 296.257C177.809 296.316 177.803 296.39 177.803 296.478C177.803 296.661 177.875 296.853 178.018 297.055C178.162 297.251 178.413 297.424 178.77 297.575L181.469 297.601L181.467 298.326ZM181.479 292.781L177.275 292.741L177.276 292.139L177.882 292.083L177.882 292.057C177.681 291.848 177.514 291.631 177.382 291.406C177.244 291.175 177.175 290.909 177.176 290.608C177.177 290.154 177.316 289.825 177.593 289.621C177.87 289.411 178.28 289.309 178.822 289.314L181.487 289.34L181.485 290.065L178.916 290.041C178.518 290.037 178.232 290.099 178.059 290.227C177.88 290.355 177.79 290.561 177.789 290.844C177.789 291.068 177.843 291.266 177.953 291.438C178.062 291.61 178.223 291.806 178.436 292.026L181.481 292.055L181.479 292.781ZM181.596 286.599C181.596 286.959 181.491 287.259 181.283 287.499C181.075 287.733 180.781 287.848 180.4 287.844C179.939 287.84 179.587 287.627 179.346 287.206C179.099 286.785 178.927 286.114 178.831 285.193C178.698 285.192 178.569 285.205 178.442 285.234C178.315 285.256 178.202 285.299 178.104 285.363C178.006 285.427 177.928 285.518 177.87 285.635C177.806 285.747 177.774 285.891 177.774 286.068C177.773 286.315 177.819 286.549 177.911 286.768C178.002 286.987 178.106 287.183 178.221 287.355L177.727 287.633C177.601 287.431 177.48 287.185 177.365 286.895C177.245 286.605 177.185 286.286 177.186 285.938C177.187 285.413 177.346 285.034 177.664 284.802C177.976 284.569 178.394 284.455 178.919 284.46L181.497 284.484L181.496 285.086L180.994 285.143L180.994 285.169C181.161 285.377 181.304 285.6 181.425 285.837C181.54 286.074 181.597 286.328 181.596 286.599ZM181.026 286.382C181.026 286.175 180.981 285.98 180.889 285.796C180.791 285.613 180.65 285.417 180.466 285.209L179.298 285.197C179.344 285.558 179.398 285.862 179.461 286.11C179.524 286.353 179.598 286.551 179.684 286.705C179.77 286.853 179.871 286.963 179.986 287.035C180.096 287.101 180.217 287.135 180.35 287.136C180.592 287.138 180.765 287.066 180.869 286.92C180.973 286.773 181.025 286.594 181.026 286.382ZM181.501 282.778L177.296 282.738L177.298 282.136L177.903 282.08L177.903 282.053C177.702 281.863 177.535 281.658 177.403 281.438C177.265 281.213 177.196 280.97 177.197 280.711C177.198 280.381 177.27 280.125 177.415 279.943C177.554 279.756 177.75 279.619 178.004 279.533C177.762 279.307 177.57 279.081 177.426 278.855C177.276 278.624 177.202 278.375 177.203 278.11C177.203 277.668 177.343 277.342 177.62 277.132C177.897 276.916 178.307 276.811 178.849 276.816L181.514 276.842L181.512 277.567L178.943 277.543C178.545 277.539 178.259 277.601 178.086 277.729C177.907 277.857 177.817 278.057 177.816 278.328C177.816 278.653 178.031 279.014 178.463 279.414L181.508 279.443L181.506 280.168L178.937 280.143C178.539 280.14 178.253 280.202 178.08 280.33C177.901 280.458 177.811 280.661 177.811 280.938C177.81 281.262 178.026 281.624 178.457 282.023L181.502 282.052L181.501 282.778ZM181.625 273.348C181.624 273.637 181.575 273.907 181.476 274.16C181.372 274.407 181.227 274.624 181.042 274.811C180.851 274.992 180.62 275.134 180.349 275.238C180.078 275.341 179.769 275.391 179.423 275.388C179.077 275.385 178.769 275.329 178.498 275.22C178.221 275.105 177.988 274.959 177.798 274.78C177.608 274.595 177.464 274.387 177.367 274.156C177.263 273.925 177.212 273.686 177.213 273.438C177.213 273.167 177.26 272.926 177.353 272.714C177.445 272.497 177.578 272.318 177.752 272.179C177.925 272.033 178.133 271.923 178.375 271.848C178.618 271.774 178.889 271.738 179.189 271.741C179.264 271.742 179.339 271.745 179.414 271.752C179.483 271.753 179.543 271.759 179.595 271.771L179.589 274.673C180.039 274.648 180.397 274.51 180.663 274.259C180.923 274.002 181.053 273.667 181.054 273.254C181.055 273.047 181.026 272.858 180.969 272.687C180.906 272.509 180.825 272.34 180.728 272.18L181.195 271.928C181.31 272.118 181.411 272.328 181.497 272.559C181.583 272.79 181.626 273.053 181.625 273.348ZM179.079 274.677L179.084 272.377C178.657 272.373 178.334 272.464 178.114 272.651C177.889 272.832 177.776 273.09 177.775 273.426C177.775 273.579 177.803 273.727 177.86 273.869C177.918 274.005 178.004 274.13 178.119 274.243C178.229 274.356 178.364 274.452 178.525 274.53C178.687 274.602 178.871 274.651 179.079 274.677Z" fill="white"/>
<path d="M203.728 342.671L194.329 342.558L194.337 339.978C194.342 338.504 194.734 337.359 195.513 336.543C196.292 335.727 197.457 335.328 199.01 335.347C199.786 335.356 200.471 335.472 201.064 335.696C201.657 335.909 202.154 336.22 202.556 336.628C202.947 337.025 203.242 337.511 203.442 338.083C203.641 338.645 203.74 339.285 203.737 340.003L203.728 342.671ZM202.383 340.945L202.386 340.193C202.389 339.21 202.118 338.455 201.574 337.928C201.02 337.39 200.163 337.115 199.004 337.101C197.854 337.087 197.015 337.342 196.486 337.867C195.957 338.391 195.691 339.14 195.688 340.113L195.685 340.864L202.383 340.945ZM203.939 331.264C203.937 331.903 203.748 332.416 203.373 332.805C202.988 333.193 202.485 333.384 201.862 333.376C201.488 333.372 201.158 333.289 200.871 333.129C200.575 332.958 200.322 332.699 200.112 332.353C199.902 331.997 199.727 331.552 199.585 331.02C199.443 330.478 199.334 329.833 199.26 329.085C199.078 329.093 198.906 329.12 198.743 329.167C198.57 329.205 198.421 329.277 198.296 329.383C198.162 329.48 198.061 329.611 197.993 329.777C197.916 329.943 197.877 330.149 197.876 330.395C197.875 330.749 197.941 331.099 198.074 331.444C198.207 331.78 198.369 332.111 198.559 332.438L197.451 333.043C197.203 332.638 196.989 332.183 196.808 331.679C196.628 331.176 196.539 330.634 196.541 330.055C196.544 329.151 196.809 328.481 197.338 328.045C197.857 327.599 198.61 327.382 199.597 327.394L203.779 327.444L203.775 328.844L202.998 328.953L202.998 329.012C203.265 329.34 203.489 329.691 203.67 330.067C203.851 330.433 203.94 330.832 203.939 331.264ZM202.647 330.703C202.648 330.408 202.582 330.142 202.449 329.905C202.315 329.657 202.124 329.395 201.876 329.116L200.295 329.097C200.351 329.589 200.426 330.003 200.521 330.338C200.616 330.674 200.725 330.945 200.849 331.153C200.963 331.361 201.097 331.51 201.25 331.6C201.403 331.69 201.566 331.737 201.738 331.739C202.054 331.742 202.285 331.647 202.429 331.452C202.573 331.257 202.646 331.008 202.647 330.703ZM203.788 324.826L196.731 324.741L196.736 323.341L197.685 323.234L197.685 323.175C197.379 322.847 197.117 322.495 196.898 322.119C196.679 321.733 196.57 321.29 196.572 320.789C196.574 320.012 196.82 319.45 197.31 319.102C197.79 318.754 198.481 318.586 199.382 318.597L203.809 318.65L203.803 320.345L199.592 320.294C199.007 320.287 198.595 320.371 198.355 320.545C198.114 320.719 197.994 321.007 197.992 321.41C197.991 321.725 198.067 322.006 198.22 322.253C198.363 322.491 198.577 322.763 198.864 323.072L203.794 323.131L203.788 324.826ZM203.817 315.988L196.76 315.903L196.766 314.208L203.823 314.293L203.817 315.988ZM195.527 315.034C195.526 315.338 195.439 315.588 195.266 315.782C195.093 315.977 194.867 316.072 194.589 316.069C194.312 316.066 194.087 315.965 193.915 315.766C193.733 315.567 193.643 315.316 193.644 315.011C193.645 314.707 193.737 314.457 193.92 314.263C194.093 314.068 194.319 313.972 194.596 313.976C194.874 313.979 195.099 314.08 195.271 314.279C195.443 314.478 195.528 314.729 195.527 315.034ZM204.015 308.447C204.013 308.948 203.93 309.414 203.766 309.845C203.592 310.275 203.347 310.65 203.029 310.971C202.712 311.291 202.328 311.542 201.877 311.723C201.416 311.895 200.894 311.977 200.309 311.97C199.734 311.963 199.217 311.864 198.758 311.671C198.299 311.479 197.911 311.229 197.596 310.92C197.281 310.602 197.038 310.241 196.867 309.835C196.696 309.431 196.611 309.017 196.612 308.594C196.614 308.103 196.697 307.672 196.861 307.3C197.025 306.929 197.256 306.622 197.554 306.38C197.852 306.128 198.207 305.94 198.619 305.818C199.032 305.695 199.482 305.636 199.971 305.642C200.134 305.644 200.287 305.656 200.431 305.677C200.575 305.689 200.69 305.705 200.776 305.726L200.76 310.324C201.393 310.254 201.883 310.034 202.229 309.664C202.565 309.285 202.735 308.8 202.737 308.211C202.738 307.896 202.696 307.606 202.61 307.34C202.515 307.063 202.387 306.791 202.225 306.524L203.262 305.962C203.481 306.309 203.662 306.694 203.804 307.118C203.946 307.542 204.017 307.985 204.015 308.447ZM199.639 310.326L199.65 307.112C199.104 307.106 198.677 307.224 198.37 307.466C198.053 307.698 197.893 308.064 197.892 308.565C197.89 308.998 198.037 309.378 198.333 309.706C198.629 310.034 199.065 310.24 199.639 310.326ZM204.037 301.831C204.035 302.441 203.857 302.866 203.501 303.107C203.146 303.349 202.662 303.466 202.048 303.459L193.712 303.358L193.718 301.663L202.14 301.764C202.341 301.767 202.485 301.729 202.572 301.652C202.648 301.574 202.687 301.491 202.687 301.403C202.688 301.363 202.688 301.329 202.688 301.299C202.688 301.26 202.678 301.206 202.66 301.137L203.896 300.931C203.992 301.158 204.038 301.458 204.037 301.831ZM198.892 293.166L200.04 293.519L200.049 291.057L198.898 291.382C198.399 291.533 197.886 291.68 197.358 291.821C196.831 291.952 196.308 292.083 195.79 292.215L195.79 292.274C196.317 292.417 196.843 292.561 197.37 292.705C197.887 292.849 198.394 293.003 198.892 293.166ZM203.883 296.454L194.493 293.202L194.5 291.197L203.91 288.17L203.904 289.968L201.358 290.69L201.347 293.932L203.888 294.715L203.883 296.454ZM204.095 284.447C204.093 285.223 203.851 285.785 203.371 286.133C202.881 286.481 202.186 286.65 201.285 286.639L196.858 286.586L196.864 284.891L201.075 284.941C201.66 284.948 202.072 284.865 202.312 284.691C202.552 284.517 202.673 284.233 202.674 283.84C202.675 283.526 202.6 283.25 202.447 283.012C202.294 282.765 202.046 282.501 201.702 282.222L196.873 282.164L196.879 280.469L203.936 280.553L203.931 281.939L202.896 282.059L202.896 282.103C203.259 282.423 203.55 282.77 203.769 283.146C203.988 283.512 204.097 283.946 204.095 284.447ZM204.124 275.8C204.122 276.301 204.03 276.796 203.846 277.285C203.653 277.764 203.416 278.179 203.138 278.53L202.077 277.721C202.327 277.399 202.524 277.082 202.669 276.77C202.804 276.447 202.873 276.099 202.874 275.726C202.875 275.332 202.8 275.041 202.647 274.853C202.485 274.664 202.279 274.569 202.03 274.566C201.886 274.564 201.761 274.607 201.655 274.694C201.54 274.781 201.439 274.898 201.352 275.044C201.266 275.19 201.189 275.356 201.121 275.542C201.044 275.728 200.966 275.914 200.889 276.1C200.802 276.335 200.701 276.574 200.585 276.818C200.469 277.062 200.329 277.282 200.166 277.477C200.002 277.661 199.815 277.816 199.604 277.942C199.383 278.057 199.124 278.113 198.827 278.109C198.204 278.102 197.697 277.86 197.306 277.383C196.915 276.907 196.72 276.261 196.723 275.445C196.725 274.944 196.812 274.493 196.986 274.092C197.16 273.691 197.358 273.345 197.579 273.053L198.582 273.846C198.399 274.099 198.255 274.358 198.149 274.622C198.033 274.876 197.974 275.146 197.973 275.431C197.972 275.794 198.048 276.066 198.201 276.244C198.344 276.413 198.526 276.499 198.746 276.502C198.89 276.503 199.015 276.465 199.12 276.388C199.216 276.301 199.303 276.189 199.38 276.052C199.457 275.915 199.529 275.759 199.597 275.583C199.665 275.397 199.732 275.206 199.8 275.011C199.887 274.766 199.989 274.521 200.105 274.277C200.211 274.033 200.346 273.813 200.509 273.619C200.673 273.414 200.874 273.255 201.114 273.14C201.345 273.014 201.623 272.954 201.949 272.958C202.255 272.962 202.542 273.029 202.81 273.16C203.069 273.281 203.298 273.461 203.499 273.699C203.689 273.937 203.842 274.234 203.956 274.589C204.069 274.944 204.126 275.347 204.124 275.8ZM204.148 268.619C204.147 269.042 204.083 269.399 203.958 269.693C203.832 269.976 203.659 270.21 203.438 270.394C203.207 270.568 202.938 270.698 202.632 270.782C202.315 270.857 201.965 270.892 201.582 270.888L198.219 270.847L198.215 271.879L196.979 271.864L196.911 270.743L194.986 270.514L194.99 269.099L196.916 269.122L196.923 267.279L198.231 267.295L198.224 269.137L201.588 269.178C202.412 269.188 202.825 268.854 202.827 268.176C202.828 268.048 202.814 267.92 202.785 267.792C202.757 267.654 202.719 267.531 202.672 267.422L203.894 267.142C203.961 267.339 204.017 267.566 204.064 267.822C204.121 268.068 204.149 268.334 204.148 268.619ZM203.987 265.251L196.93 265.167L196.935 263.471L203.992 263.556L203.987 265.251ZM195.696 264.297C195.695 264.602 195.608 264.851 195.435 265.045C195.262 265.24 195.036 265.335 194.759 265.332C194.481 265.329 194.256 265.228 194.084 265.029C193.903 264.831 193.813 264.579 193.814 264.274C193.815 263.97 193.906 263.72 194.089 263.526C194.262 263.331 194.488 263.236 194.766 263.239C195.043 263.242 195.268 263.343 195.44 263.542C195.612 263.741 195.697 263.992 195.696 264.297ZM204.002 260.804L196.944 260.719L196.949 259.319L197.898 259.213L197.898 259.154C197.593 258.826 197.33 258.474 197.111 258.098C196.892 257.712 196.784 257.268 196.785 256.767C196.788 255.991 197.034 255.429 197.524 255.081C198.004 254.733 198.695 254.564 199.595 254.575L204.022 254.628L204.017 256.323L199.805 256.273C199.221 256.266 198.809 256.349 198.568 256.523C198.328 256.697 198.207 256.985 198.206 257.388C198.205 257.703 198.281 257.984 198.433 258.231C198.576 258.469 198.791 258.742 199.077 259.05L204.007 259.109L204.002 260.804Z" fill="white"/>
<path d="M181.334 201.127L175.686 201.043L175.704 197.702L176.307 197.711L176.293 200.318L178.066 200.345L178.079 198.144L178.69 198.153L178.678 200.354L180.727 200.384L180.742 197.689L181.354 197.698L181.334 201.127ZM181.357 197.061L179.178 195.623L177.173 196.892L177.177 196.106L178.102 195.545C178.217 195.482 178.335 195.416 178.456 195.347C178.571 195.278 178.686 195.206 178.802 195.131L178.802 195.096C178.687 195.029 178.573 194.963 178.459 194.896C178.338 194.829 178.221 194.763 178.107 194.696L177.188 194.161L177.192 193.401L179.26 194.731L181.378 193.366L181.373 194.153L180.397 194.766C180.27 194.841 180.143 194.915 180.017 194.99C179.89 195.065 179.766 195.142 179.645 195.223L179.645 195.258C179.765 195.337 179.888 195.412 180.014 195.485C180.134 195.557 180.26 195.63 180.392 195.703L181.361 196.301L181.357 197.061ZM183.15 192.188L177.2 192.099L177.203 191.498L177.686 191.444L177.686 191.417C177.526 191.22 177.39 191.006 177.276 190.775C177.163 190.537 177.107 190.292 177.108 190.038C177.11 189.762 177.163 189.518 177.267 189.307C177.366 189.097 177.51 188.922 177.701 188.783C177.885 188.645 178.11 188.542 178.374 188.475C178.633 188.402 178.926 188.369 179.253 188.373C179.609 188.379 179.927 188.434 180.208 188.538C180.483 188.642 180.717 188.781 180.912 188.955C181.106 189.129 181.254 189.328 181.356 189.554C181.452 189.779 181.5 190.016 181.499 190.263C181.497 190.463 181.453 190.663 181.366 190.862C181.279 191.055 181.16 191.251 181.01 191.449L181.742 191.442L183.154 191.463L183.15 192.188ZM180.904 190.378C180.905 190.201 180.868 190.039 180.794 189.89C180.715 189.736 180.607 189.605 180.469 189.496C180.327 189.382 180.152 189.294 179.946 189.232C179.739 189.164 179.507 189.129 179.249 189.125C179.019 189.121 178.809 189.139 178.62 189.177C178.43 189.216 178.269 189.281 178.136 189.373C177.998 189.46 177.891 189.576 177.816 189.722C177.74 189.862 177.702 190.033 177.701 190.233C177.7 190.416 177.748 190.602 177.844 190.792C177.941 190.976 178.08 191.176 178.263 191.39L180.459 191.423C180.62 191.231 180.736 191.044 180.806 190.863C180.87 190.681 180.903 190.519 180.904 190.378ZM181.414 186.906L177.229 186.843L177.233 186.119L181.418 186.181L181.414 186.906ZM176.37 186.459C176.369 186.601 176.326 186.721 176.239 186.82C176.152 186.913 176.043 186.958 175.911 186.956C175.773 186.954 175.664 186.905 175.585 186.81C175.499 186.708 175.457 186.587 175.457 186.446C175.458 186.304 175.502 186.187 175.589 186.094C175.67 185.995 175.779 185.947 175.917 185.949C176.049 185.951 176.158 186.002 176.243 186.104C176.329 186.199 176.371 186.318 176.37 186.459ZM181.428 184.377L177.243 184.315L177.247 183.714L178.005 183.663L178.005 183.637C177.742 183.485 177.533 183.306 177.379 183.097C177.226 182.883 177.149 182.652 177.151 182.404C177.152 182.233 177.181 182.081 177.239 181.946L177.859 182.097C177.835 182.167 177.818 182.232 177.806 182.29C177.794 182.349 177.788 182.423 177.787 182.511C177.786 182.694 177.857 182.886 177.999 183.089C178.142 183.285 178.391 183.46 178.746 183.612L181.432 183.653L181.428 184.377ZM183.249 180.691C183.248 180.792 183.239 180.883 183.221 180.965C183.209 181.047 183.189 181.124 183.16 181.194L182.601 181.044C182.613 180.997 182.624 180.944 182.636 180.886C182.654 180.827 182.663 180.771 182.663 180.718C182.664 180.471 182.579 180.269 182.408 180.113C182.242 179.952 182.031 179.825 181.773 179.732L181.463 179.631L177.26 181.291L177.265 180.54L179.586 179.7C179.77 179.638 179.965 179.573 180.172 179.505C180.374 179.432 180.572 179.364 180.768 179.302L180.768 179.267C180.579 179.199 180.381 179.134 180.175 179.072C179.969 179.01 179.774 178.948 179.59 178.887L177.278 178.083L177.282 177.376L181.802 179.061C182.009 179.141 182.2 179.229 182.378 179.326C182.555 179.423 182.707 179.537 182.832 179.669C182.964 179.8 183.066 179.949 183.14 180.115C183.214 180.281 183.25 180.473 183.249 180.691ZM181.597 172.668C181.594 173.21 181.402 173.64 181.022 173.959C180.641 174.271 180.1 174.422 179.4 174.412C179.061 174.407 178.757 174.352 178.488 174.248C178.213 174.138 177.982 173.996 177.793 173.822C177.605 173.648 177.459 173.449 177.357 173.223C177.255 172.998 177.205 172.762 177.206 172.514C177.208 172.267 177.252 172.052 177.339 171.871C177.426 171.689 177.545 171.506 177.695 171.319L176.98 171.344L175.37 171.32L175.374 170.586L181.505 170.678L181.502 171.279L181.01 171.333L181.01 171.36C181.17 171.533 181.31 171.733 181.429 171.958C181.542 172.178 181.599 172.415 181.597 172.668ZM181.004 172.5C181.005 172.3 180.96 172.11 180.869 171.932C180.773 171.754 180.627 171.575 180.433 171.395L178.246 171.363C178.084 171.543 177.971 171.718 177.907 171.888C177.837 172.052 177.802 172.222 177.801 172.399C177.8 172.57 177.839 172.733 177.919 172.887C177.993 173.035 178.101 173.167 178.244 173.281C178.381 173.395 178.547 173.486 178.742 173.553C178.937 173.621 179.155 173.657 179.396 173.66C179.901 173.668 180.295 173.571 180.577 173.369C180.86 173.167 181.002 172.877 181.004 172.5ZM181.624 167.889C181.622 168.249 181.517 168.547 181.309 168.786C181.101 169.019 180.808 169.132 180.429 169.126C179.969 169.12 179.62 168.905 179.382 168.483C179.137 168.061 178.969 167.39 178.876 166.469C178.744 166.467 178.615 166.48 178.489 166.508C178.362 166.529 178.25 166.572 178.152 166.635C178.054 166.699 177.976 166.789 177.918 166.906C177.854 167.017 177.822 167.161 177.821 167.337C177.819 167.585 177.864 167.818 177.955 168.038C178.045 168.257 178.148 168.453 178.261 168.626L177.769 168.901C177.644 168.699 177.525 168.453 177.411 168.162C177.292 167.872 177.234 167.553 177.236 167.205C177.239 166.681 177.399 166.303 177.716 166.072C178.027 165.841 178.444 165.729 178.966 165.737L181.532 165.775L181.529 166.376L181.029 166.431L181.029 166.457C181.194 166.666 181.337 166.889 181.456 167.126C181.569 167.364 181.625 167.618 181.624 167.889ZM181.057 167.669C181.058 167.462 181.013 167.267 180.922 167.083C180.826 166.899 180.686 166.703 180.504 166.494L179.341 166.476C179.385 166.836 179.438 167.141 179.5 167.389C179.562 167.631 179.635 167.83 179.72 167.984C179.806 168.133 179.905 168.244 180.02 168.316C180.129 168.382 180.249 168.417 180.381 168.419C180.622 168.422 180.795 168.351 180.899 168.205C181.003 168.06 181.056 167.881 181.057 167.669ZM181.652 162.84C181.651 163.07 181.615 163.264 181.546 163.422C181.476 163.574 181.38 163.7 181.259 163.798C181.138 163.89 180.992 163.956 180.819 163.995C180.647 164.033 180.457 164.051 180.25 164.048L177.934 164.013L177.931 164.65L177.397 164.642L177.357 163.97L176.187 163.864L176.19 163.254L177.361 163.271L177.368 162.114L177.945 162.122L177.938 163.28L180.263 163.315C180.521 163.318 180.723 163.274 180.867 163.182C181.005 163.084 181.075 162.911 181.076 162.664C181.077 162.587 181.066 162.505 181.043 162.416C181.021 162.327 180.995 162.247 180.967 162.176L181.502 162.043C181.541 162.161 181.575 162.291 181.603 162.433C181.637 162.569 181.653 162.705 181.652 162.84ZM181.672 159.233C181.671 159.521 181.621 159.792 181.522 160.044C181.417 160.289 181.272 160.505 181.087 160.691C180.897 160.871 180.666 161.012 180.396 161.114C180.126 161.216 179.818 161.264 179.474 161.259C179.129 161.254 178.823 161.196 178.553 161.086C178.278 160.97 178.047 160.822 177.858 160.643C177.67 160.457 177.528 160.249 177.431 160.018C177.329 159.786 177.279 159.547 177.28 159.3C177.282 159.029 177.329 158.788 177.422 158.577C177.515 158.36 177.648 158.183 177.821 158.044C177.994 157.899 178.202 157.79 178.443 157.717C178.685 157.644 178.955 157.61 179.253 157.614C179.328 157.615 179.402 157.62 179.477 157.627C179.546 157.628 179.606 157.634 179.658 157.647L179.641 160.546C180.089 160.523 180.446 160.387 180.712 160.137C180.971 159.882 181.102 159.548 181.105 159.136C181.106 158.93 181.078 158.741 181.022 158.569C180.96 158.391 180.88 158.222 180.783 158.061L181.25 157.812C181.364 158.002 181.463 158.213 181.548 158.444C181.633 158.675 181.674 158.938 181.672 159.233ZM179.133 160.547L179.146 158.249C178.721 158.243 178.399 158.332 178.18 158.518C177.955 158.697 177.842 158.954 177.84 159.29C177.839 159.443 177.867 159.591 177.924 159.733C177.98 159.87 178.066 159.995 178.18 160.109C178.288 160.222 178.423 160.318 178.583 160.397C178.743 160.471 178.927 160.52 179.133 160.547Z" fill="white"/>
<path d="M203.944 198.162C203.935 199.142 203.52 199.909 202.698 200.464C201.866 201.018 200.672 201.282 199.116 201.256C197.56 201.229 196.391 200.925 195.608 200.343C194.816 199.761 194.425 198.981 194.434 198.001C194.443 197.021 194.85 196.253 195.652 195.699C196.455 195.144 197.629 194.879 199.176 194.906C200.732 194.932 201.921 195.236 202.741 195.819C203.553 196.401 203.953 197.182 203.944 198.162ZM202.647 198.14C202.65 197.915 202.594 197.708 202.48 197.52C202.357 197.322 202.157 197.151 201.88 197.01C201.603 196.868 201.243 196.754 200.802 196.668C200.361 196.582 199.814 196.534 199.161 196.522C198.517 196.512 197.979 196.542 197.546 196.613C197.103 196.683 196.747 196.786 196.476 196.918C196.206 197.051 196.017 197.214 195.91 197.408C195.793 197.593 195.733 197.797 195.731 198.023C195.729 198.248 195.785 198.46 195.898 198.658C196.002 198.846 196.188 199.011 196.455 199.152C196.723 199.294 197.077 199.408 197.519 199.494C197.95 199.579 198.488 199.628 199.131 199.639C199.784 199.65 200.332 199.62 200.775 199.549C201.218 199.478 201.579 199.376 201.859 199.244C202.139 199.112 202.342 198.953 202.469 198.769C202.586 198.575 202.645 198.365 202.647 198.14ZM203.818 193.239L202.852 193.223C202.244 192.566 201.682 191.973 201.169 191.445C200.655 190.907 200.179 190.453 199.74 190.083C199.302 189.703 198.892 189.412 198.509 189.209C198.127 189.007 197.763 188.902 197.417 188.897C196.927 188.888 196.541 189.014 196.26 189.274C195.97 189.534 195.822 189.913 195.817 190.413C195.814 190.776 195.911 191.111 196.11 191.418C196.309 191.715 196.547 191.994 196.823 192.253L195.892 193.178C195.445 192.74 195.103 192.293 194.867 191.838C194.622 191.373 194.502 190.817 194.508 190.17C194.512 189.72 194.584 189.314 194.721 188.954C194.859 188.594 195.054 188.288 195.306 188.037C195.549 187.787 195.844 187.596 196.191 187.464C196.538 187.323 196.923 187.256 197.346 187.263C197.749 187.27 198.161 187.371 198.582 187.564C198.994 187.747 199.414 187.999 199.843 188.32C200.263 188.631 200.697 188.996 201.144 189.415C201.592 189.835 202.054 190.279 202.53 190.747C202.513 190.502 202.496 190.237 202.48 189.953C202.453 189.668 202.441 189.413 202.444 189.188L202.465 186.894L203.877 186.918L203.818 193.239ZM206.196 185.536L193.693 181.899L193.703 180.752L206.207 184.39L206.196 185.536ZM204.148 176.508C204.141 177.272 204.01 177.907 203.756 178.412C203.501 178.918 203.19 179.334 202.822 179.661L201.763 178.834C202.044 178.555 202.288 178.235 202.493 177.876C202.688 177.517 202.788 177.102 202.793 176.632C202.797 176.122 202.681 175.709 202.444 175.391C202.197 175.063 201.858 174.896 201.426 174.888C201.185 174.884 200.969 174.925 200.776 175.01C200.583 175.095 200.418 175.244 200.282 175.457C200.145 175.661 200.042 175.938 199.971 176.29C199.891 176.641 199.848 177.082 199.843 177.611L198.633 177.59C198.637 177.13 198.608 176.747 198.543 176.442C198.469 176.127 198.371 175.876 198.248 175.687C198.115 175.489 197.958 175.349 197.776 175.268C197.594 175.176 197.398 175.129 197.186 175.125C196.802 175.119 196.503 175.236 196.29 175.478C196.066 175.719 195.953 176.055 195.949 176.486C195.945 176.859 196.024 177.198 196.184 177.505C196.335 177.801 196.539 178.094 196.795 178.382L195.764 179.232C195.422 178.825 195.148 178.394 194.94 177.939C194.733 177.475 194.633 176.964 194.638 176.405C194.642 175.955 194.699 175.544 194.808 175.173C194.917 174.803 195.079 174.487 195.293 174.226C195.497 173.965 195.753 173.763 196.062 173.621C196.361 173.479 196.703 173.412 197.087 173.418C197.606 173.427 198.037 173.581 198.38 173.881C198.723 174.171 198.988 174.573 199.176 175.085L199.233 175.086C199.383 174.53 199.651 174.074 200.039 173.718C200.427 173.352 200.923 173.174 201.528 173.185C201.951 173.192 202.324 173.286 202.65 173.468C202.975 173.641 203.251 173.881 203.479 174.188C203.697 174.486 203.866 174.837 203.987 175.241C204.099 175.635 204.153 176.057 204.148 176.508ZM204.227 168.148C204.218 169.128 203.803 169.896 202.981 170.45C202.149 171.004 200.955 171.269 199.399 171.242C197.843 171.216 196.674 170.911 195.891 170.33C195.1 169.748 194.708 168.967 194.717 167.987C194.727 167.007 195.133 166.24 195.935 165.685C196.738 165.13 197.913 164.866 199.459 164.892C201.015 164.918 202.204 165.223 203.024 165.805C203.836 166.387 204.237 167.168 204.227 168.148ZM202.931 168.126C202.933 167.901 202.877 167.694 202.763 167.506C202.64 167.308 202.44 167.138 202.163 166.996C201.886 166.854 201.527 166.74 201.085 166.654C200.644 166.568 200.097 166.52 199.444 166.509C198.8 166.498 198.262 166.528 197.829 166.599C197.386 166.67 197.03 166.772 196.759 166.905C196.489 167.037 196.3 167.2 196.193 167.395C196.076 167.579 196.016 167.784 196.014 168.009C196.012 168.234 196.068 168.446 196.181 168.644C196.285 168.832 196.471 168.997 196.738 169.139C197.006 169.28 197.36 169.394 197.802 169.48C198.233 169.566 198.771 169.614 199.414 169.625C200.067 169.636 200.615 169.606 201.058 169.535C201.501 169.464 201.862 169.363 202.142 169.23C202.422 169.098 202.625 168.939 202.752 168.756C202.869 168.561 202.928 168.352 202.931 168.126Z" fill="white"/>
</g>
</svg>
