<svg width="236" height="373" viewBox="0 0 236 373" fill="none" xmlns="http://www.w3.org/2000/svg">
<mask id="mask0_3_1862" style="mask-type:luminance" maskUnits="userSpaceOnUse" x="0" y="0" width="236" height="373">
<path d="M0 16.2216L0 356.508C0 365.467 7.26268 372.729 16.2216 372.729H218.808C227.767 372.729 235.03 365.467 235.03 356.508L235.03 16.2216C235.03 7.2627 227.767 0 218.808 0H16.2216C7.26268 0 0 7.2627 0 16.2216Z" fill="white"/>
</mask>
<g mask="url(#mask0_3_1862)">
<path d="M0 16.2216L0 356.508C0 365.467 7.26268 372.729 16.2216 372.729H218.808C227.767 372.729 235.03 365.467 235.03 356.508L235.03 16.2216C235.03 7.2627 227.767 0 218.808 0H16.2216C7.26268 0 0 7.2627 0 16.2216Z" fill="#00897B"/>
<path opacity="0.25" d="M-56.4111 -63.3235C-56.4111 -63.3235 -73.3019 216.796 122.871 183.856C122.871 183.856 157.55 190.51 173.277 158.968C173.277 158.968 158.747 158.469 163.701 130.221C165.367 120.164 165.858 109.947 165.164 99.7767C164.216 86.0373 158.824 72.98 149.803 62.5786C149.803 62.5786 117.284 -16.1775 -11.3248 -46.7885C-11.3248 -46.7885 -39.3876 -69.4471 -46.6025 -68.5476L-26.4201 -21.2688C-26.4201 -21.2688 7.66071 -37.4389 35.9893 -24.5943C35.9893 -24.5943 -25.1899 -23.0643 -23.8599 -13.9802C-23.5607 -12.1516 -12.0563 10.5739 -12.0563 10.5739C-12.0563 10.5739 47.2942 -17.2098 90.4519 3.75304C90.4519 3.75304 17.303 -4.19926 -7.76711 19.2583L11.6507 52.5304C11.6507 52.5304 72.9628 20.0565 123.003 42.0829C123.003 42.0829 46.2634 36.4267 16.3721 59.5507L39.8795 89.6953C39.8795 89.6953 100.327 59.1846 141.823 77.7838C141.823 77.7838 52.4811 80.2127 45.7314 96.2168C45.7314 96.2168 69.0062 122.602 78.5154 126.628C78.5154 126.628 122.405 105.733 145.547 118.709C145.547 118.709 86.0301 126.661 85.6975 133.182C85.6975 133.182 125.131 159.467 152.197 162.196C152.197 162.196 111.998 161.064 81.9735 139.537C81.9735 139.537 86.3291 164.957 102.788 179.797C102.788 179.797 74.9245 175.704 72.4972 133.049C72.4972 133.049 42.5726 111.322 40.744 105.533C40.744 105.533 37.2195 147.922 48.5909 173.641C48.5909 173.641 22.2905 151.016 34.2603 97.7472L9.9549 67.9686C9.9549 67.9686 2.34078 123.799 10.7529 147.489C10.7529 147.489 -12.5218 120.24 4.43547 59.95L-14.9157 27.5428C-14.9157 27.5428 -25.1566 75.1552 -21.5657 103.503C-21.5657 103.503 -37.6917 73.5585 -20.2024 18.027L-30.6095 -5.26472C-30.6095 -5.26472 -37.4591 29.6059 -38.5562 39.8204C-39.6534 50.0349 -42.4465 50.5672 -42.4465 50.5672C-46.1277 28.4763 -43.6067 5.79585 -35.1647 -14.9461C-35.1647 -14.9461 -53.319 -64.1898 -56.4111 -63.3235Z" fill="#004D40"/>
<path opacity="0.25" d="M320.658 457.897C320.658 457.897 40.5387 474.788 73.4782 278.615C73.4782 278.615 66.824 243.936 98.3659 228.209C98.3659 228.209 98.8651 242.739 127.113 237.785C137.17 236.119 147.387 235.628 157.558 236.322C171.297 237.27 184.354 242.662 194.756 251.683C194.756 251.683 273.511 284.201 304.122 412.811C304.122 412.811 326.78 440.873 325.882 448.088L278.602 427.906C278.602 427.906 294.772 393.825 281.929 365.496C281.929 365.496 280.399 426.676 271.315 425.346C269.485 425.047 246.76 413.542 246.76 413.542C246.76 413.542 274.543 354.192 253.581 311.034C253.581 311.034 261.533 384.183 238.076 409.253L204.804 389.835C204.804 389.835 237.278 328.523 215.251 278.483C215.251 278.483 220.908 355.222 197.784 385.114L167.639 361.606C167.639 361.606 198.15 301.159 179.55 259.663C179.55 259.663 177.122 349.005 161.118 355.754C161.118 355.754 134.733 332.48 130.707 322.97C130.707 322.97 151.602 279.081 138.625 255.939C138.625 255.939 130.673 315.456 124.152 315.788C124.152 315.788 97.8671 276.355 95.1385 249.289C95.1385 249.289 96.27 289.488 117.797 319.512C117.797 319.512 92.3768 315.157 77.5373 298.698C77.5373 298.698 81.63 326.561 124.285 328.989C124.285 328.989 146.012 358.913 151.801 360.742C151.801 360.742 109.412 364.266 83.6931 352.895C83.6931 352.895 106.318 379.195 159.587 367.225L189.366 391.531C189.366 391.531 133.535 399.145 109.845 390.733C109.845 390.733 137.095 414.008 197.384 397.05L229.791 416.402C229.791 416.402 182.179 426.643 153.831 423.051C153.831 423.051 183.776 439.177 239.307 421.688L262.598 432.095C262.598 432.095 227.728 438.945 217.514 440.042C207.299 441.139 206.767 443.932 206.767 443.932C228.858 447.613 251.538 445.092 272.28 436.651C272.28 436.651 321.523 454.805 320.658 457.897Z" fill="#004D40"/>
<path d="M36.0141 66.7762L41.1044 67.8576C41.7471 67.9892 42.3221 68.3089 42.7687 68.7549C43.3641 69.3502 43.7331 70.1745 43.7331 71.0836V79.3815L43.4161 79.3144L43.1003 79.246L42.7832 79.1789L42.4675 79.1118L42.1504 79.0434L41.8333 78.9763L41.5176 78.9092L41.2005 78.8421L36.0154 77.7402L35.6997 77.6718L35.3826 77.6047L35.0668 77.5376L34.7498 77.4692L34.434 77.4021L34.1169 77.335L33.8012 77.2679L33.4841 77.1995L31.5205 76.7824C31.1245 76.7015 30.7712 76.5055 30.4962 76.2305C30.2673 76.0016 30.0923 75.7187 29.995 75.4003L29.4792 73.8163L30.091 73.9465L33.4841 74.6662L33.8012 74.7346L34.1169 74.8017L34.434 74.8688L34.7498 74.9359L35.0668 75.0043L35.3826 75.0714L35.6997 75.1385L36.0154 75.2069L40.5795 76.1759C40.5946 76.1805 40.6111 76.1845 40.6262 76.1864C40.6683 76.195 40.713 76.1983 40.7578 76.1983C41.1768 76.1983 41.5176 75.8575 41.5176 75.4385V71.5027C41.5176 71.1527 41.3755 70.8356 41.1465 70.6067C40.9893 70.4495 40.7906 70.3331 40.569 70.2758L40.4854 70.2581C40.4723 70.2548 40.4584 70.2521 40.444 70.2495L39.6829 70.0864L37.4903 69.6213L37.3469 69.591L36.6114 69.4351C36.5621 69.4246 36.5114 69.42 36.4588 69.42C36.2483 69.42 36.0595 69.5048 35.922 69.643C35.7832 69.7805 35.699 69.9693 35.699 70.1798V73.8735L35.3819 73.8064L35.0662 73.7393L34.7491 73.6709L34.4945 73.6169C34.2478 73.5663 34.0262 73.4433 33.8545 73.2716C33.6255 73.0427 33.4834 72.7269 33.4834 72.3769V68.7385C33.4834 68.1793 33.7104 67.6734 34.0768 67.3057C34.4432 66.9393 34.9504 66.7123 35.5096 66.7123C35.6438 66.7123 35.774 66.7255 35.9003 66.7498C35.9016 66.7498 35.903 66.7498 35.9036 66.7512L35.9457 66.7604C35.9543 66.7617 35.9608 66.763 35.9694 66.765L36.0154 66.7742L36.0141 66.7762ZM33.1045 59.5288C33.0026 59.2506 32.8414 58.9993 32.6348 58.7934C32.3586 58.5184 32.0053 58.3224 31.6093 58.2414L29.7305 57.8513L30.2377 59.4124L30.2765 59.5308C30.3785 59.8091 30.5396 60.0603 30.7462 60.2662C31.0225 60.5412 31.3758 60.7373 31.7718 60.8182L32.6664 60.9899L33.6505 61.2076L33.1433 59.6466L33.1045 59.5282V59.5288ZM35.6984 62.9094L35.3813 62.8423L35.0655 62.7752L34.7485 62.7068L34.4327 62.6397L34.1156 62.5726L33.9525 62.5384L33.7999 62.5055L33.4828 62.4371L30.0884 61.7161L29.4779 61.5872L29.9851 63.1482L30.0239 63.2666C30.1259 63.5449 30.287 63.7962 30.4936 64.0021C30.7699 64.277 31.1231 64.4731 31.5192 64.554L33.4828 64.9711L33.7999 65.0382L34.1156 65.1066L34.4327 65.1737L34.7485 65.2408L35.0655 65.3079L35.3813 65.3763L35.6984 65.4434L36.0141 65.5105L38.6073 66.0611L41.1992 66.6117L41.5162 66.6788L41.832 66.7459L41.8498 66.7492H41.8511L42.1491 66.8136L42.4661 66.8807L42.5721 66.9044H42.5747L42.7826 66.9478L43.0996 67.0163L43.4154 67.0834L43.7325 67.1505V65.6434C43.7325 65.2947 43.5904 64.9776 43.3615 64.7487C43.1898 64.577 42.9681 64.454 42.7214 64.4034L42.4668 64.3494L42.1497 64.281L41.8327 64.2139L41.5169 64.1468L41.1998 64.0797L38.608 63.5291L36.0148 62.9785L35.699 62.9101L35.6984 62.9094ZM40.146 42.1811L38.6073 43.7198L37.0686 42.1811L34.215 39.3274L33.4821 38.5946V40.8885C33.4821 41.4476 33.7091 41.9548 34.0755 42.3212L37.041 45.2868L37.2653 45.5098L37.4883 45.7341L37.7126 45.9584L37.9357 46.1814L38.16 46.4057L38.3843 46.6287L38.6073 46.8531L43.1161 42.3443L43.1621 42.2982C43.5154 41.9344 43.7331 41.4371 43.7331 40.8891V38.594L42.999 39.3281L40.146 42.1811ZM38.6073 47.3017L38.383 47.0774L38.16 46.8531L37.9357 46.63L37.7113 46.4057L37.4883 46.1827L37.264 45.9584L37.041 45.7341L36.8167 45.5111L36.4318 45.1262L36.0148 45.0374L35.699 44.969L35.3819 44.9019L35.0662 44.8348L34.7491 44.7664L34.4334 44.6993L34.1163 44.6322L33.9531 44.598L33.8005 44.5651L33.4834 44.4967L30.089 43.7757L29.4786 43.6468L29.9858 45.2078L30.0246 45.3262C30.1265 45.6045 30.2877 45.8558 30.4943 46.0617C30.7705 46.3367 31.1238 46.5327 31.5198 46.6136L33.4834 47.0307L33.8005 47.0978L34.1163 47.1662L34.4334 47.2333L34.7491 47.3004L35.0662 47.3675L35.3819 47.4359L35.699 47.503L36.0148 47.5701L38.608 48.1207L41.1998 48.6713L41.5169 48.7384L41.8327 48.8055L41.8504 48.8088H41.8517L42.1497 48.8733L42.4668 48.9403L42.5727 48.964H42.5753L42.7832 49.0075L43.1003 49.0759L43.4161 49.143L43.7331 49.2101V47.703C43.7331 47.3543 43.591 47.0372 43.3621 46.8083C43.1904 46.6366 42.9687 46.5136 42.722 46.463L42.4675 46.409L42.1504 46.3406L41.8333 46.2735L41.5176 46.2064L41.2005 46.1393L40.0223 45.8887L38.8329 47.078L38.6086 47.3023L38.6073 47.3017ZM33.4821 58.6414L33.9893 60.2024L34.0281 60.3208C34.1301 60.5991 34.2913 60.8504 34.4978 61.0563C34.7741 61.3313 35.1274 61.5273 35.5234 61.6082L43.7325 63.3508V61.8437C43.7325 61.4951 43.5904 61.178 43.3615 60.9491C43.1898 60.7774 42.9681 60.6544 42.7214 60.6037L42.4668 60.5498L34.0933 58.7703L33.4828 58.6414H33.4821ZM35.9451 48.8239L35.903 48.8147C35.7747 48.7891 35.6431 48.7759 35.5083 48.7759C34.9491 48.7759 34.4419 49.0028 34.0755 49.3693C33.7091 49.737 33.4821 50.2429 33.4821 50.802V54.7056C33.4821 55.6147 33.8512 56.439 34.4465 57.0343C34.8925 57.4803 35.4681 57.8 36.1108 57.9316L41.1998 59.0131L41.5169 59.0802L41.8327 59.1473L41.8504 59.1506H41.8517L41.934 59.1683L42.1497 59.2144L42.4668 59.2828L42.5727 59.3065H42.5753L42.7832 59.3499L43.1003 59.417L43.4161 59.4854L43.7331 59.5525V58.0454C43.7331 57.6968 43.591 57.3797 43.3621 57.1508C43.1904 56.9791 42.9687 56.856 42.722 56.8054L42.4675 56.7514L42.1504 56.683L41.8333 56.6146L41.5176 56.5475L41.2005 56.4804L40.2552 56.2798L39.7269 56.1673L37.5344 55.7022L37.4265 55.6785L36.7733 55.5391C36.7595 55.5364 36.745 55.5345 36.7325 55.5305L36.6489 55.5128C36.4272 55.4555 36.2286 55.3391 36.0714 55.1819C35.8424 54.9529 35.7003 54.6359 35.7003 54.2859V52.2433C35.7003 52.0328 35.7852 51.8427 35.9233 51.7052C36.0608 51.5677 36.2496 51.4835 36.4601 51.4835C36.5108 51.4835 36.5601 51.4881 36.6081 51.4973L36.6114 51.4987H36.6141L37.3482 51.6546L40.2558 52.2723L41.2011 52.4729L41.5182 52.54L41.834 52.6071L41.8517 52.6104H41.853L41.9353 52.6282L42.151 52.6742L42.4681 52.7426L42.574 52.7663H42.5767L42.7845 52.8097L43.1016 52.8768L43.4174 52.9452L43.7344 53.0123L43.7344 51.5052C43.7344 51.1566 43.5924 50.8395 43.3634 50.6106C43.1917 50.4389 42.97 50.3159 42.7234 50.2652L42.4688 50.2113L42.1517 50.1429L41.8346 50.0745L41.5189 50.0074L41.2018 49.9403L36.0168 48.8384L35.9477 48.8246L35.9451 48.8239Z" fill="#01292C"/>
<path d="M45.6456 55.7003L45.8561 55.7444V56.2773C45.8561 56.4641 45.9554 56.5667 46.1909 56.616C46.4264 56.6654 46.5231 56.6049 46.5231 56.4174V55.8845L46.7356 55.9293V56.4825C46.7356 56.7693 46.558 56.9108 46.1902 56.8331C45.8225 56.7555 45.6449 56.5391 45.6449 56.2529V55.6997L45.6456 55.7003Z" fill="#01292C"/>
<path d="M45.6458 55.2294L46.7364 55.459V55.6747L45.6458 55.4452V55.2294ZM45.2346 55.1406L45.4885 55.1939V55.4116L45.2346 55.3583V55.1406Z" fill="#01292C"/>
<path d="M45.6462 54.8816L45.3883 54.827V54.6093L45.6462 54.6639V54.3672L45.8567 54.4113V54.7079L46.3731 54.8165C46.4948 54.8421 46.5362 54.8079 46.5362 54.7066V54.5579L46.7369 54.6001V54.7935C46.7369 55.0151 46.6461 55.0915 46.3606 55.0316L45.8567 54.9257V55.0717L45.6462 55.0276V54.8816Z" fill="#01292C"/>
<path d="M45.6456 53.036L47.1738 54.0043V54.2359L46.6968 53.9339C46.6968 54.0556 46.6574 54.0905 46.5626 54.1069L45.6456 54.2734V54.0458L46.4574 53.8932C46.4969 53.8872 46.5028 53.878 46.5028 53.8379V53.8096L45.6456 53.2649V53.0353V53.036Z" fill="#01292C"/>
<path d="M45.173 51.9854L45.646 52.0847V51.6091C45.646 51.3242 45.8236 51.1828 46.1913 51.2604C46.559 51.3381 46.7366 51.5545 46.7366 51.8387V52.1354C46.7366 52.3932 46.584 52.4978 46.2696 52.4314L45.173 52.2005V51.9847V51.9854ZM45.8565 52.1294L46.2591 52.2143C46.4452 52.2531 46.5235 52.2031 46.5235 52.0281V51.817C46.5235 51.6301 46.4268 51.5282 46.1913 51.4788C45.9558 51.4295 45.8565 51.4894 45.8565 51.6768V52.1301V52.1294Z" fill="#01292C"/>
<path d="M45.646 50.2007C45.646 49.9323 45.7986 49.8586 46.0052 49.902L46.5176 50.0099C46.6748 50.0428 46.7367 50.0967 46.7367 50.2776V50.7796C46.7367 51.0335 46.611 51.1131 46.4045 51.069C46.2058 51.0276 46.0907 50.9052 46.0907 50.6408V50.1303L46.0078 50.1132C45.9229 50.0954 45.8572 50.1283 45.8572 50.2461V50.8881L45.6467 50.844V50.1993L45.646 50.2007ZM46.4683 50.2112L46.2637 50.1684V50.675C46.2637 50.7888 46.3111 50.8394 46.392 50.8565C46.4722 50.8736 46.5242 50.8414 46.5242 50.7342V50.2829C46.5242 50.2401 46.5078 50.2204 46.4683 50.2118V50.2112Z" fill="#01292C"/>
<path d="M45.6455 48.9293C45.6455 48.5656 45.8211 48.4254 46.1224 48.4892L46.7362 48.6182V48.8359L46.1224 48.707C45.9514 48.6708 45.856 48.7484 45.856 48.9741V49.326C45.856 49.3444 45.8665 49.3543 45.8869 49.3589L46.7355 49.5378V49.7536L45.8146 49.5595C45.6863 49.5326 45.6455 49.4813 45.6455 49.3734V48.93V48.9293Z" fill="#01292C"/>
<path d="M45.1724 47.7708L46.0979 47.9655V47.8662C46.0979 47.6952 46.0894 47.659 45.9743 47.5715L45.646 47.3235V47.09L45.9887 47.3492C46.0861 47.4222 46.146 47.486 46.1828 47.5814C46.2117 47.486 46.2795 47.4472 46.3933 47.4064L46.736 47.2854V47.5274L46.4137 47.6386C46.2999 47.6774 46.2815 47.7162 46.2815 47.9057V48.005L46.736 48.1011V48.3168L45.1724 47.9873V47.7715V47.7708Z" fill="#01292C"/>
<path d="M45.1729 59.6956L45.6458 59.7949V59.3193C45.6458 59.0345 45.8234 58.893 46.1912 58.9706C46.5589 59.0483 46.7365 59.2647 46.7365 59.5489V59.8456C46.7365 60.1034 46.5839 60.208 46.2695 60.1416L45.1729 59.9107V59.6949V59.6956ZM45.8563 59.8396L46.2589 59.9245C46.4451 59.9633 46.5234 59.9133 46.5234 59.7383V59.5272C46.5234 59.3403 46.4267 59.2384 46.1912 59.189C45.9557 59.1397 45.8563 59.1996 45.8563 59.387V59.8403V59.8396Z" fill="#01292C"/>
<path d="M45.6459 57.618L47.174 58.5864V58.8179L46.6971 58.516C46.6971 58.6377 46.6576 58.6725 46.5629 58.689L45.6459 58.8554V58.6278L46.4576 58.4752C46.4971 58.4693 46.503 58.46 46.503 58.4199V58.3916L45.6459 57.8469V57.6174V57.618Z" fill="#01292C"/>
<path opacity="0.4" d="M205.318 48.7619C205.318 38.9883 197.395 31.0655 187.621 31.0655C177.847 31.0655 169.925 38.9883 169.925 48.7619C169.925 58.535 177.847 66.4582 187.621 66.4582C197.395 66.4582 205.318 58.535 205.318 48.7619Z" fill="white"/>
<path opacity="0.859468" d="M205.317 70.7841C205.317 61.0102 197.394 53.0877 187.621 53.0877C177.847 53.0877 169.924 61.0102 169.924 70.7841C169.924 80.5572 177.847 88.4804 187.621 88.4804C197.394 88.4804 205.317 80.5572 205.317 70.7841Z" fill="white"/>
<path d="M43.5035 341.889H32.8946V339.764L38.0855 337.882C38.4206 337.763 38.7668 337.65 39.1237 337.541C39.4699 337.433 39.8157 337.32 40.1618 337.201V337.136C39.8157 337.017 39.4699 336.909 39.1237 336.811C38.7668 336.703 38.4206 336.59 38.0855 336.471L32.8946 334.638V332.497H43.5035V334.232H38.6532C38.4044 334.232 38.1341 334.227 37.8422 334.216C37.5502 334.194 37.2582 334.173 36.9662 334.151C36.6634 334.129 36.3714 334.102 36.0902 334.07C35.7982 334.038 35.5279 334.011 35.2791 333.989V334.054L37.7448 334.914L42.514 336.649V337.769L37.7448 339.52L35.2791 340.364V340.429C35.5279 340.407 35.7982 340.386 36.0902 340.364C36.3714 340.332 36.6634 340.305 36.9662 340.283C37.2582 340.25 37.5502 340.229 37.8422 340.218C38.1341 340.196 38.4044 340.186 38.6532 340.186H43.5035V341.889ZM43.6982 326.055C43.6982 326.552 43.6064 327.028 43.4224 327.482C43.2384 327.936 42.9682 328.342 42.6113 328.699C42.2544 329.045 41.8165 329.321 41.2974 329.526C40.7783 329.731 40.1888 329.834 39.5292 329.834C38.8696 329.834 38.2801 329.731 37.761 329.526C37.242 329.321 36.804 329.045 36.4471 328.699C36.0902 328.342 35.8199 327.936 35.636 327.482C35.4414 327.028 35.344 326.552 35.344 326.055C35.344 325.557 35.4414 325.081 35.636 324.627C35.8199 324.162 36.0902 323.757 36.4471 323.411C36.804 323.064 37.242 322.789 37.761 322.583C38.2801 322.367 38.8696 322.259 39.5292 322.259C40.1888 322.259 40.7783 322.367 41.2974 322.583C41.8165 322.789 42.2544 323.064 42.6113 323.411C42.9682 323.757 43.2384 324.162 43.4224 324.627C43.6064 325.081 43.6982 325.557 43.6982 326.055ZM42.1733 326.055C42.1733 325.471 41.9355 325.011 41.4596 324.676C40.9729 324.341 40.3296 324.173 39.5292 324.173C38.7181 324.173 38.0748 324.341 37.5988 324.676C37.1122 325.011 36.8689 325.471 36.8689 326.055C36.8689 326.639 37.1122 327.098 37.5988 327.434C38.0748 327.758 38.7181 327.92 39.5292 327.92C40.3296 327.92 40.9729 327.758 41.4596 327.434C41.9355 327.098 42.1733 326.639 42.1733 326.055ZM43.6982 316.438C43.6982 316.979 43.6064 317.487 43.4224 317.963C43.2384 318.428 42.9682 318.833 42.6113 319.179C42.2544 319.525 41.8165 319.796 41.2974 319.99C40.7783 320.185 40.1888 320.282 39.5292 320.282C38.8696 320.282 38.2801 320.174 37.761 319.958C37.242 319.742 36.804 319.45 36.4471 319.082C36.0902 318.714 35.8199 318.293 35.636 317.817C35.4414 317.33 35.344 316.822 35.344 316.292C35.344 315.773 35.4305 315.33 35.6036 314.962C35.7766 314.583 35.9875 314.248 36.2362 313.956L37.4528 314.864C37.2689 315.081 37.1284 315.297 37.0311 315.513C36.9231 315.719 36.8689 315.946 36.8689 316.195C36.8689 316.843 37.1122 317.368 37.5988 317.768C38.0748 318.168 38.7181 318.368 39.5292 318.368C40.3296 318.368 40.9729 318.174 41.4596 317.784C41.9355 317.384 42.1733 316.871 42.1733 316.243C42.1733 315.93 42.1084 315.638 41.9787 315.367C41.8382 315.086 41.676 314.832 41.492 314.605L42.7249 313.842C43.0493 314.221 43.2926 314.637 43.4548 315.091C43.6171 315.535 43.6982 315.984 43.6982 316.438ZM43.6982 309.85C43.6982 310.553 43.4873 311.12 43.0655 311.553C42.6331 311.985 42.0653 312.202 41.3623 312.202C40.9405 312.202 40.5674 312.115 40.243 311.942C39.9078 311.758 39.621 311.477 39.3832 311.099C39.1454 310.709 38.9452 310.223 38.783 309.639C38.6208 309.044 38.4966 308.335 38.4099 307.514C38.2046 307.524 38.0099 307.557 37.8259 307.611C37.6313 307.654 37.4635 307.735 37.3231 307.854C37.1715 307.962 37.058 308.108 36.9824 308.292C36.8958 308.476 36.8526 308.703 36.8526 308.974C36.8526 309.363 36.9282 309.747 37.0797 310.125C37.2313 310.493 37.4149 310.855 37.6313 311.212L36.3822 311.894C36.101 311.45 35.8577 310.953 35.6522 310.401C35.4468 309.85 35.344 309.255 35.344 308.617C35.344 307.622 35.6414 306.881 36.2362 306.394C36.8202 305.897 37.6692 305.648 38.783 305.648H43.5035V307.189L42.6275 307.319V307.384C42.9302 307.741 43.1846 308.125 43.39 308.536C43.5953 308.936 43.6982 309.374 43.6982 309.85ZM42.2382 309.249C42.2382 308.925 42.1626 308.633 42.0111 308.373C41.8596 308.103 41.6436 307.816 41.3623 307.514H39.5779C39.6428 308.055 39.7294 308.509 39.8374 308.876C39.9454 309.244 40.0701 309.541 40.2105 309.769C40.3403 309.996 40.4918 310.158 40.6647 310.255C40.8376 310.353 41.0216 310.401 41.2163 310.401C41.5731 310.401 41.8327 310.293 41.9949 310.077C42.1571 309.86 42.2382 309.585 42.2382 309.249ZM43.5035 302.767H35.5387V301.226L36.95 301.096V301.031C36.4309 300.75 36.0361 300.409 35.7658 300.009C35.4846 299.609 35.344 299.198 35.344 298.776C35.344 298.398 35.3981 298.095 35.5062 297.868L37.1284 298.192C37.0853 298.333 37.0528 298.463 37.0311 298.581C37.0093 298.701 36.9986 298.847 36.9986 299.019C36.9986 299.333 37.1229 299.663 37.3717 300.009C37.6095 300.355 38.0313 300.653 38.637 300.901H43.5035L43.5035 302.767ZM43.6982 293.435C43.6982 294.441 43.3358 295.241 42.6113 295.836C41.8758 296.42 40.8487 296.712 39.5292 296.712C38.8803 296.712 38.2964 296.62 37.7773 296.436C37.2582 296.241 36.8202 295.987 36.4633 295.673C36.1064 295.36 35.8307 295.003 35.636 294.603C35.4414 294.192 35.344 293.77 35.344 293.337C35.344 292.883 35.4251 292.499 35.5873 292.186C35.7388 291.872 35.9496 291.559 36.22 291.245L34.9385 291.31H32.051V289.444H43.5035V290.985L42.6438 291.115V291.18C42.9358 291.472 43.1846 291.813 43.39 292.202C43.5953 292.591 43.6982 293.002 43.6982 293.435ZM42.1571 292.981C42.1571 292.386 41.8596 291.829 41.2649 291.31H37.5502C37.3013 291.591 37.1284 291.867 37.0311 292.137C36.9337 292.397 36.8851 292.662 36.8851 292.932C36.8851 293.451 37.1122 293.889 37.5664 294.246C38.0206 294.603 38.6695 294.781 39.513 294.781C40.3783 294.781 41.0378 294.63 41.492 294.327C41.9355 294.013 42.1571 293.565 42.1571 292.981Z" fill="white"/>
<path d="M119.399 336.863C119.399 338.244 119.169 339.394 118.709 340.314C118.249 341.234 117.683 341.995 117.01 342.597L115.046 341.137C115.559 340.624 116.001 340.04 116.373 339.385C116.727 338.73 116.904 337.978 116.904 337.129C116.904 336.208 116.683 335.465 116.24 334.899C115.78 334.315 115.152 334.023 114.356 334.023C113.913 334.023 113.515 334.103 113.161 334.262C112.807 334.421 112.506 334.695 112.259 335.085C112.011 335.456 111.825 335.961 111.701 336.598C111.56 337.235 111.489 338.031 111.489 338.987H109.259C109.259 338.155 109.197 337.465 109.073 336.916C108.932 336.35 108.746 335.899 108.516 335.563C108.268 335.209 107.976 334.961 107.64 334.819C107.304 334.66 106.941 334.58 106.552 334.58C105.844 334.58 105.295 334.802 104.906 335.244C104.499 335.686 104.295 336.297 104.295 337.076C104.295 337.748 104.446 338.359 104.747 338.907C105.03 339.438 105.41 339.96 105.888 340.473L104.003 342.039C103.366 341.314 102.853 340.544 102.464 339.73C102.074 338.898 101.88 337.978 101.88 336.969C101.88 336.155 101.977 335.412 102.172 334.74C102.366 334.067 102.658 333.492 103.048 333.014C103.419 332.536 103.888 332.165 104.455 331.899C105.003 331.634 105.631 331.501 106.339 331.501C107.295 331.501 108.091 331.767 108.728 332.298C109.365 332.811 109.861 333.527 110.215 334.448H110.321C110.586 333.439 111.073 332.607 111.781 331.953C112.489 331.28 113.4 330.944 114.515 330.944C115.294 330.944 115.984 331.103 116.585 331.422C117.187 331.722 117.7 332.147 118.125 332.696C118.532 333.227 118.851 333.855 119.081 334.58C119.293 335.288 119.399 336.049 119.399 336.863ZM119.399 321.741C119.399 322.573 119.284 323.343 119.054 324.05C118.824 324.741 118.505 325.342 118.098 325.855C117.691 326.351 117.205 326.749 116.639 327.05C116.072 327.333 115.444 327.475 114.754 327.475C114.223 327.475 113.745 327.395 113.32 327.236C112.878 327.059 112.48 326.829 112.126 326.546C111.772 326.262 111.453 325.944 111.17 325.59C110.887 325.218 110.639 324.829 110.427 324.422H110.321C109.861 325.077 109.312 325.634 108.675 326.094C108.038 326.537 107.268 326.758 106.366 326.758C105.676 326.758 105.056 326.634 104.508 326.386C103.959 326.121 103.49 325.767 103.101 325.324C102.711 324.864 102.411 324.325 102.198 323.705C101.986 323.068 101.88 322.387 101.88 321.661C101.88 320.9 101.995 320.219 102.225 319.617C102.437 318.998 102.747 318.476 103.154 318.051C103.543 317.609 104.021 317.273 104.587 317.043C105.136 316.813 105.755 316.698 106.445 316.698C106.87 316.698 107.277 316.768 107.666 316.91C108.038 317.034 108.392 317.202 108.728 317.414C109.047 317.627 109.348 317.874 109.631 318.157C109.896 318.423 110.126 318.688 110.321 318.954H110.427C110.639 318.564 110.887 318.193 111.17 317.839C111.436 317.485 111.745 317.175 112.099 316.91C112.453 316.644 112.851 316.432 113.294 316.273C113.736 316.114 114.241 316.034 114.807 316.034C115.462 316.034 116.072 316.175 116.639 316.459C117.187 316.724 117.674 317.105 118.098 317.6C118.505 318.096 118.824 318.697 119.054 319.405C119.284 320.113 119.399 320.892 119.399 321.741ZM109.551 320.626C109.091 320.166 108.622 319.821 108.144 319.591C107.666 319.343 107.162 319.219 106.631 319.219C105.888 319.219 105.277 319.44 104.8 319.883C104.304 320.308 104.056 320.918 104.056 321.714C104.056 322.369 104.26 322.918 104.667 323.36C105.056 323.803 105.623 324.024 106.366 324.024C106.79 324.024 107.162 323.935 107.481 323.758C107.799 323.581 108.082 323.343 108.33 323.042C108.56 322.723 108.781 322.36 108.994 321.953C109.188 321.546 109.374 321.104 109.551 320.626ZM117.222 321.688C117.222 320.874 117.001 320.21 116.559 319.697C116.116 319.166 115.497 318.901 114.701 318.901C114.241 318.901 113.851 319.007 113.533 319.219C113.197 319.432 112.905 319.724 112.657 320.095C112.391 320.449 112.152 320.874 111.94 321.369C111.728 321.865 111.507 322.396 111.277 322.962C111.666 323.493 112.126 323.935 112.657 324.289C113.188 324.625 113.781 324.794 114.435 324.794C115.285 324.794 115.966 324.493 116.479 323.891C116.975 323.289 117.222 322.555 117.222 321.688ZM119.081 312.883H117.302C116.17 311.715 115.125 310.662 114.17 309.724C113.214 308.769 112.329 307.964 111.515 307.309C110.701 306.636 109.94 306.123 109.233 305.769C108.525 305.415 107.852 305.238 107.215 305.238C106.313 305.238 105.605 305.477 105.092 305.955C104.561 306.433 104.295 307.123 104.295 308.026C104.295 308.68 104.481 309.282 104.853 309.831C105.224 310.361 105.667 310.857 106.18 311.317L104.481 313.016C103.649 312.237 103.012 311.441 102.57 310.627C102.11 309.795 101.88 308.795 101.88 307.627C101.88 306.813 102.004 306.079 102.251 305.424C102.499 304.769 102.853 304.212 103.313 303.752C103.756 303.292 104.295 302.938 104.932 302.69C105.569 302.425 106.277 302.292 107.056 302.292C107.799 302.292 108.56 302.46 109.339 302.796C110.1 303.115 110.878 303.557 111.675 304.124C112.453 304.672 113.259 305.318 114.09 306.061C114.922 306.805 115.78 307.592 116.665 308.424C116.63 307.981 116.594 307.504 116.559 306.99C116.506 306.477 116.479 306.017 116.479 305.61V301.469H119.081V312.883ZM119.081 294.761C117.576 294.691 116.205 294.558 114.966 294.363C113.71 294.169 112.515 293.894 111.383 293.54C110.25 293.169 109.153 292.7 108.091 292.134C107.012 291.567 105.906 290.877 104.773 290.063V298.053H102.198V286.718H104.056C105.277 287.709 106.445 288.515 107.56 289.134C108.657 289.736 109.79 290.213 110.958 290.567C112.108 290.921 113.338 291.178 114.648 291.337C115.957 291.479 117.435 291.585 119.081 291.656V294.761ZM119.081 270.237H114.727V277.696H112.657L102.198 271.007V267.37H112.365V265.247H114.727V267.37H119.081V270.237ZM112.365 274.67V270.237H108.542C108.047 270.237 107.463 270.228 106.79 270.211C106.118 270.175 105.534 270.14 105.039 270.105V270.211C105.481 270.423 105.915 270.644 106.339 270.874C106.764 271.104 107.206 271.343 107.666 271.591L112.365 274.67ZM119.399 256.203C119.399 257.035 119.24 257.823 118.921 258.566C118.585 259.309 118.081 259.964 117.408 260.53C116.736 261.079 115.878 261.521 114.833 261.857C113.789 262.176 112.559 262.335 111.144 262.335C109.498 262.335 108.091 262.149 106.923 261.778C105.755 261.406 104.8 260.919 104.056 260.318C103.313 259.698 102.765 258.991 102.411 258.194C102.057 257.398 101.88 256.566 101.88 255.699C101.88 254.673 102.066 253.797 102.437 253.071C102.809 252.328 103.26 251.7 103.791 251.186L105.649 252.832C105.277 253.133 104.977 253.531 104.747 254.027C104.499 254.504 104.375 255 104.375 255.513C104.375 256.044 104.481 256.548 104.693 257.026C104.906 257.486 105.26 257.893 105.755 258.247C106.233 258.601 106.87 258.893 107.666 259.123C108.463 259.336 109.445 259.459 110.613 259.495C109.994 258.999 109.507 258.424 109.153 257.769C108.799 257.097 108.622 256.451 108.622 255.832C108.622 255.106 108.728 254.443 108.941 253.841C109.153 253.221 109.48 252.699 109.923 252.275C110.347 251.832 110.887 251.496 111.542 251.266C112.197 251.018 112.967 250.894 113.851 250.894C114.701 250.894 115.471 251.036 116.161 251.319C116.833 251.602 117.408 251.983 117.886 252.461C118.364 252.938 118.736 253.505 119.001 254.159C119.266 254.796 119.399 255.478 119.399 256.203ZM117.063 256.256C117.063 255.549 116.789 254.956 116.24 254.478C115.692 253.982 114.895 253.735 113.851 253.735C112.843 253.735 112.091 253.965 111.595 254.425C111.1 254.885 110.852 255.54 110.852 256.389C110.852 256.867 111.002 257.371 111.303 257.902C111.586 258.433 112.082 258.937 112.79 259.415C114.294 259.256 115.382 258.902 116.055 258.353C116.727 257.787 117.063 257.088 117.063 256.256ZM119.399 242.461C119.399 243.842 119.169 244.992 118.709 245.912C118.249 246.832 117.683 247.593 117.01 248.195L115.046 246.735C115.559 246.222 116.001 245.638 116.373 244.983C116.727 244.328 116.904 243.576 116.904 242.727C116.904 241.807 116.683 241.063 116.24 240.497C115.78 239.913 115.152 239.621 114.356 239.621C113.913 239.621 113.515 239.701 113.161 239.86C112.807 240.019 112.506 240.294 112.259 240.683C112.011 241.055 111.825 241.559 111.701 242.196C111.56 242.833 111.489 243.629 111.489 244.585H109.259C109.259 243.753 109.197 243.063 109.073 242.514C108.932 241.948 108.746 241.497 108.516 241.161C108.268 240.807 107.976 240.559 107.64 240.417C107.304 240.258 106.941 240.179 106.552 240.179C105.844 240.179 105.295 240.4 104.906 240.842C104.499 241.285 104.295 241.895 104.295 242.674C104.295 243.346 104.446 243.957 104.747 244.505C105.03 245.036 105.41 245.558 105.888 246.071L104.003 247.638C103.366 246.912 102.853 246.142 102.464 245.328C102.074 244.496 101.88 243.576 101.88 242.568C101.88 241.754 101.977 241.01 102.172 240.338C102.366 239.665 102.658 239.09 103.048 238.612C103.419 238.135 103.888 237.763 104.455 237.498C105.003 237.232 105.631 237.099 106.339 237.099C107.295 237.099 108.091 237.365 108.728 237.896C109.365 238.409 109.861 239.126 110.215 240.046H110.321C110.586 239.037 111.073 238.205 111.781 237.551C112.489 236.878 113.4 236.542 114.515 236.542C115.294 236.542 115.984 236.701 116.585 237.02C117.187 237.321 117.7 237.745 118.125 238.294C118.532 238.825 118.851 239.453 119.081 240.179C119.293 240.886 119.399 241.647 119.399 242.461ZM119.081 229.701C117.576 229.63 116.205 229.498 114.966 229.303C113.71 229.108 112.515 228.834 111.383 228.48C110.25 228.109 109.153 227.64 108.091 227.073C107.012 226.507 105.906 225.817 104.773 225.003V232.993H102.198V221.658H104.056C105.277 222.649 106.445 223.454 107.56 224.074C108.657 224.675 109.79 225.153 110.958 225.507C112.108 225.861 113.338 226.118 114.648 226.277C115.957 226.419 117.435 226.525 119.081 226.596V229.701ZM119.399 206.743C119.399 208.123 119.169 209.274 118.709 210.194C118.249 211.114 117.683 211.875 117.01 212.477L115.046 211.017C115.559 210.504 116.001 209.92 116.373 209.265C116.727 208.61 116.904 207.858 116.904 207.009C116.904 206.088 116.683 205.345 116.24 204.779C115.78 204.195 115.152 203.903 114.356 203.903C113.913 203.903 113.515 203.983 113.161 204.142C112.807 204.301 112.506 204.575 112.259 204.965C112.011 205.336 111.825 205.841 111.701 206.478C111.56 207.115 111.489 207.911 111.489 208.867H109.259C109.259 208.035 109.197 207.345 109.073 206.796C108.932 206.23 108.746 205.779 108.516 205.442C108.268 205.089 107.976 204.841 107.64 204.699C107.304 204.54 106.941 204.46 106.552 204.46C105.844 204.46 105.295 204.682 104.906 205.124C104.499 205.566 104.295 206.177 104.295 206.956C104.295 207.628 104.446 208.238 104.747 208.787C105.03 209.318 105.41 209.84 105.888 210.353L104.003 211.919C103.366 211.194 102.853 210.424 102.464 209.61C102.074 208.778 101.88 207.858 101.88 206.849C101.88 206.035 101.977 205.292 102.172 204.62C102.366 203.947 102.658 203.372 103.048 202.894C103.419 202.416 103.888 202.045 104.455 201.779C105.003 201.514 105.631 201.381 106.339 201.381C107.295 201.381 108.091 201.647 108.728 202.177C109.365 202.691 109.861 203.407 110.215 204.328H110.321C110.586 203.319 111.073 202.487 111.781 201.832C112.489 201.16 113.4 200.824 114.515 200.824C115.294 200.824 115.984 200.983 116.585 201.302C117.187 201.602 117.7 202.027 118.125 202.576C118.532 203.107 118.851 203.735 119.081 204.46C119.293 205.168 119.399 205.929 119.399 206.743ZM119.081 196.479H116.585V192.709H105.49V195.815H103.579C103.419 194.965 103.234 194.24 103.021 193.638C102.791 193.019 102.517 192.444 102.198 191.913V189.63H116.585V186.312H119.081V196.479ZM119.399 176.976C119.399 178.746 118.647 180.144 117.143 181.17C115.621 182.197 113.427 182.71 110.56 182.71C107.693 182.71 105.534 182.197 104.083 181.17C102.614 180.144 101.88 178.746 101.88 176.976C101.88 175.207 102.614 173.809 104.083 172.782C105.552 171.756 107.711 171.243 110.56 171.243C113.427 171.243 115.621 171.756 117.143 172.782C118.647 173.809 119.399 175.207 119.399 176.976ZM117.01 176.976C117.01 176.569 116.904 176.198 116.692 175.862C116.462 175.508 116.09 175.207 115.577 174.959C115.064 174.711 114.4 174.517 113.586 174.375C112.772 174.233 111.763 174.163 110.56 174.163C109.374 174.163 108.383 174.233 107.587 174.375C106.773 174.517 106.118 174.711 105.623 174.959C105.127 175.207 104.782 175.508 104.587 175.862C104.375 176.198 104.269 176.569 104.269 176.976C104.269 177.383 104.375 177.764 104.587 178.118C104.782 178.454 105.127 178.746 105.623 178.994C106.118 179.242 106.773 179.436 107.587 179.578C108.383 179.719 109.374 179.79 110.56 179.79C111.763 179.79 112.772 179.719 113.586 179.578C114.4 179.436 115.064 179.242 115.577 178.994C116.09 178.746 116.462 178.454 116.692 178.118C116.904 177.764 117.01 177.383 117.01 176.976ZM119.399 162.73C119.399 164.11 119.169 165.261 118.709 166.181C118.249 167.101 117.683 167.862 117.01 168.464L115.046 167.004C115.559 166.491 116.001 165.907 116.373 165.252C116.727 164.597 116.904 163.845 116.904 162.996C116.904 162.075 116.683 161.332 116.24 160.766C115.78 160.182 115.152 159.89 114.356 159.89C113.913 159.89 113.515 159.97 113.161 160.129C112.807 160.288 112.506 160.562 112.259 160.952C112.011 161.323 111.825 161.828 111.701 162.465C111.56 163.102 111.489 163.898 111.489 164.854H109.259C109.259 164.022 109.197 163.332 109.073 162.783C108.932 162.217 108.746 161.766 108.516 161.429C108.268 161.076 107.976 160.828 107.64 160.686C107.304 160.527 106.941 160.447 106.552 160.447C105.844 160.447 105.295 160.669 104.906 161.111C104.499 161.553 104.295 162.164 104.295 162.943C104.295 163.615 104.446 164.225 104.747 164.774C105.03 165.305 105.41 165.827 105.888 166.34L104.003 167.906C103.366 167.181 102.853 166.411 102.464 165.597C102.074 164.765 101.88 163.845 101.88 162.836C101.88 162.022 101.977 161.279 102.172 160.607C102.366 159.934 102.658 159.359 103.048 158.881C103.419 158.403 103.888 158.032 104.455 157.766C105.003 157.501 105.631 157.368 106.339 157.368C107.295 157.368 108.091 157.634 108.728 158.164C109.365 158.678 109.861 159.394 110.215 160.315H110.321C110.586 159.306 111.073 158.474 111.781 157.819C112.489 157.147 113.4 156.811 114.515 156.811C115.294 156.811 115.984 156.97 116.585 157.289C117.187 157.589 117.7 158.014 118.125 158.563C118.532 159.094 118.851 159.722 119.081 160.447C119.293 161.155 119.399 161.916 119.399 162.73ZM119.081 143.594C117.576 143.524 116.205 143.391 114.966 143.196C113.71 143.002 112.515 142.727 111.383 142.373C110.25 142.002 109.153 141.533 108.091 140.967C107.012 140.4 105.906 139.71 104.773 138.896V146.886H102.198V135.552H104.056C105.277 136.543 106.445 137.348 107.56 137.967C108.657 138.569 109.79 139.047 110.958 139.4C112.108 139.754 113.338 140.011 114.648 140.17C115.957 140.312 117.435 140.418 119.081 140.489V143.594ZM119.399 127.012C119.399 128.393 119.169 129.543 118.709 130.463C118.249 131.383 117.683 132.144 117.01 132.746L115.046 131.286C115.559 130.773 116.001 130.189 116.373 129.534C116.727 128.879 116.904 128.127 116.904 127.278C116.904 126.358 116.683 125.614 116.24 125.048C115.78 124.464 115.152 124.172 114.356 124.172C113.913 124.172 113.515 124.252 113.161 124.411C112.807 124.57 112.506 124.844 112.259 125.234C112.011 125.605 111.825 126.11 111.701 126.747C111.56 127.384 111.489 128.18 111.489 129.136H109.259C109.259 128.304 109.197 127.614 109.073 127.065C108.932 126.499 108.746 126.048 108.516 125.712C108.268 125.358 107.976 125.11 107.64 124.968C107.304 124.809 106.941 124.729 106.552 124.729C105.844 124.729 105.295 124.951 104.906 125.393C104.499 125.835 104.295 126.446 104.295 127.225C104.295 127.897 104.446 128.508 104.747 129.056C105.03 129.587 105.41 130.109 105.888 130.622L104.003 132.188C103.366 131.463 102.853 130.693 102.464 129.879C102.074 129.047 101.88 128.127 101.88 127.118C101.88 126.304 101.977 125.561 102.172 124.889C102.366 124.216 102.658 123.641 103.048 123.163C103.419 122.686 103.888 122.314 104.455 122.048C105.003 121.783 105.631 121.65 106.339 121.65C107.295 121.65 108.091 121.916 108.728 122.447C109.365 122.96 109.861 123.677 110.215 124.597H110.321C110.586 123.588 111.073 122.756 111.781 122.102C112.489 121.429 113.4 121.093 114.515 121.093C115.294 121.093 115.984 121.252 116.585 121.571C117.187 121.872 117.7 122.296 118.125 122.845C118.532 123.376 118.851 124.004 119.081 124.729C119.293 125.437 119.399 126.198 119.399 127.012ZM119.399 111.89C119.399 112.722 119.284 113.492 119.054 114.199C118.824 114.89 118.505 115.491 118.098 116.004C117.691 116.5 117.205 116.898 116.639 117.199C116.072 117.482 115.444 117.624 114.754 117.624C114.223 117.624 113.745 117.544 113.32 117.385C112.878 117.208 112.48 116.978 112.126 116.695C111.772 116.411 111.453 116.093 111.17 115.739C110.887 115.367 110.639 114.978 110.427 114.571H110.321C109.861 115.226 109.312 115.783 108.675 116.243C108.038 116.686 107.268 116.907 106.366 116.907C105.676 116.907 105.056 116.783 104.508 116.535C103.959 116.27 103.49 115.916 103.101 115.474C102.711 115.013 102.411 114.474 102.198 113.854C101.986 113.217 101.88 112.536 101.88 111.81C101.88 111.049 101.995 110.368 102.225 109.766C102.437 109.147 102.747 108.625 103.154 108.2C103.543 107.758 104.021 107.422 104.587 107.192C105.136 106.962 105.755 106.847 106.445 106.847C106.87 106.847 107.277 106.917 107.666 107.059C108.038 107.183 108.392 107.351 108.728 107.563C109.047 107.776 109.348 108.023 109.631 108.307C109.896 108.572 110.126 108.837 110.321 109.103H110.427C110.639 108.714 110.887 108.342 111.17 107.988C111.436 107.634 111.745 107.324 112.099 107.059C112.453 106.793 112.851 106.581 113.294 106.422C113.736 106.263 114.241 106.183 114.807 106.183C115.462 106.183 116.072 106.325 116.639 106.608C117.187 106.873 117.674 107.254 118.098 107.749C118.505 108.245 118.824 108.846 119.054 109.554C119.284 110.262 119.399 111.041 119.399 111.89ZM109.551 110.775C109.091 110.315 108.622 109.97 108.144 109.74C107.666 109.492 107.162 109.368 106.631 109.368C105.888 109.368 105.277 109.589 104.8 110.032C104.304 110.457 104.056 111.067 104.056 111.863C104.056 112.518 104.26 113.067 104.667 113.509C105.056 113.952 105.623 114.173 106.366 114.173C106.79 114.173 107.162 114.084 107.481 113.907C107.799 113.73 108.082 113.492 108.33 113.191C108.56 112.872 108.781 112.509 108.994 112.102C109.188 111.695 109.374 111.253 109.551 110.775ZM117.222 111.837C117.222 111.023 117.001 110.359 116.559 109.846C116.116 109.315 115.497 109.05 114.701 109.05C114.241 109.05 113.851 109.156 113.533 109.368C113.197 109.581 112.905 109.873 112.657 110.244C112.391 110.598 112.152 111.023 111.94 111.518C111.728 112.014 111.507 112.545 111.277 113.111C111.666 113.642 112.126 114.084 112.657 114.438C113.188 114.775 113.781 114.943 114.435 114.943C115.285 114.943 115.966 114.642 116.479 114.04C116.975 113.438 117.222 112.704 117.222 111.837ZM110.427 97.5641C110.427 97.0686 110.277 96.5554 109.976 96.0245C109.657 95.476 109.153 94.9805 108.463 94.5381C106.976 94.6973 105.897 95.0689 105.224 95.6529C104.552 96.2192 104.216 96.9093 104.216 97.7234C104.216 98.4135 104.49 99.0064 105.039 99.5019C105.587 99.9974 106.375 100.245 107.401 100.245C108.41 100.245 109.171 100.015 109.684 99.5549C110.179 99.0771 110.427 98.4135 110.427 97.5641ZM119.399 98.2808C119.399 99.2895 119.213 100.165 118.842 100.909C118.47 101.652 118.019 102.28 117.488 102.793L115.63 101.148C116.001 100.829 116.311 100.431 116.559 99.9531C116.789 99.4576 116.904 98.9533 116.904 98.4401C116.904 97.9092 116.798 97.4137 116.585 96.9536C116.373 96.4758 116.028 96.0599 115.55 95.706C115.055 95.3521 114.409 95.0689 113.612 94.8566C112.816 94.6265 111.834 94.4938 110.666 94.4584C111.285 94.9539 111.772 95.5379 112.126 96.2103C112.462 96.8828 112.63 97.5287 112.63 98.1481C112.63 98.8737 112.524 99.5372 112.312 100.139C112.099 100.741 111.781 101.263 111.356 101.705C110.914 102.13 110.365 102.466 109.71 102.714C109.056 102.944 108.286 103.059 107.401 103.059C106.552 103.059 105.791 102.917 105.118 102.634C104.428 102.351 103.844 101.97 103.366 101.493C102.888 101.015 102.526 100.457 102.278 99.8204C102.012 99.1656 101.88 98.4755 101.88 97.7499C101.88 96.9359 102.048 96.1573 102.384 95.414C102.703 94.6708 103.198 94.0249 103.871 93.4763C104.543 92.91 105.401 92.4675 106.445 92.149C107.472 91.8128 108.693 91.6447 110.109 91.6447C111.754 91.6447 113.161 91.8305 114.329 92.2021C115.497 92.556 116.462 93.0427 117.222 93.662C117.966 94.2637 118.514 94.9716 118.868 95.7856C119.222 96.582 119.399 97.4137 119.399 98.2808Z" fill="white"/>
<path d="M181.124 340.243C181.124 340.609 181.056 340.945 180.921 341.252C180.785 341.559 180.59 341.827 180.337 342.057C180.077 342.281 179.761 342.458 179.39 342.588C179.012 342.712 178.588 342.774 178.116 342.774C177.65 342.774 177.231 342.709 176.859 342.579C176.488 342.449 176.172 342.27 175.913 342.039C175.653 341.809 175.455 341.538 175.32 341.225C175.178 340.913 175.107 340.571 175.107 340.199C175.107 339.845 175.181 339.535 175.329 339.27C175.47 338.999 175.635 338.777 175.824 338.606L176.302 339.005C176.137 339.158 176.004 339.332 175.904 339.527C175.803 339.721 175.753 339.942 175.753 340.19C175.753 340.467 175.809 340.718 175.921 340.942C176.028 341.166 176.184 341.358 176.39 341.517C176.591 341.677 176.836 341.801 177.125 341.889C177.414 341.972 177.738 342.013 178.098 342.013C178.464 342.013 178.794 341.972 179.089 341.889C179.378 341.801 179.626 341.68 179.832 341.526C180.039 341.373 180.198 341.187 180.31 340.969C180.422 340.745 180.478 340.494 180.478 340.217C180.478 339.934 180.422 339.686 180.31 339.473C180.192 339.261 180.03 339.061 179.823 338.872L180.284 338.465C180.549 338.695 180.755 338.954 180.903 339.243C181.05 339.532 181.124 339.866 181.124 340.243ZM181.124 336.109C181.124 336.468 181.018 336.769 180.806 337.011C180.593 337.247 180.292 337.365 179.903 337.365C179.431 337.365 179.071 337.156 178.824 336.737C178.57 336.318 178.393 335.649 178.293 334.728C178.157 334.728 178.024 334.743 177.895 334.773C177.765 334.796 177.65 334.84 177.549 334.905C177.449 334.97 177.37 335.062 177.311 335.18C177.246 335.292 177.213 335.436 177.213 335.613C177.213 335.861 177.26 336.094 177.355 336.312C177.449 336.53 177.555 336.725 177.673 336.896L177.169 337.179C177.039 336.979 176.915 336.734 176.797 336.445C176.673 336.156 176.612 335.837 176.612 335.489C176.612 334.964 176.774 334.584 177.098 334.348C177.417 334.112 177.844 333.994 178.381 333.994H181.018V334.596L180.505 334.658V334.684C180.676 334.891 180.823 335.112 180.947 335.348C181.065 335.584 181.124 335.837 181.124 336.109ZM180.54 335.896C180.54 335.69 180.493 335.495 180.399 335.312C180.298 335.129 180.154 334.935 179.965 334.728H178.77C178.818 335.088 178.874 335.392 178.939 335.64C179.003 335.882 179.08 336.079 179.169 336.233C179.257 336.38 179.36 336.489 179.478 336.56C179.59 336.625 179.714 336.657 179.85 336.657C180.098 336.657 180.275 336.583 180.381 336.436C180.487 336.289 180.54 336.109 180.54 335.896ZM181.018 332.287H176.718V331.685L177.496 331.623V331.597C177.225 331.449 177.01 331.272 176.85 331.066C176.691 330.854 176.612 330.623 176.612 330.376C176.612 330.205 176.641 330.051 176.7 329.916L177.337 330.057C177.313 330.128 177.296 330.193 177.284 330.252C177.272 330.311 177.266 330.385 177.266 330.473C177.266 330.656 177.34 330.848 177.488 331.048C177.635 331.243 177.892 331.414 178.257 331.561H181.018V332.287ZM181.124 327.483C181.124 328.026 180.929 328.459 180.54 328.784C180.151 329.102 179.596 329.262 178.877 329.262C178.529 329.262 178.216 329.211 177.939 329.111C177.656 329.005 177.417 328.866 177.222 328.695C177.027 328.524 176.877 328.327 176.771 328.102C176.665 327.878 176.612 327.642 176.612 327.395C176.612 327.147 176.656 326.932 176.744 326.749C176.833 326.566 176.954 326.38 177.107 326.191L176.373 326.227H174.718V325.492H181.018V326.094L180.514 326.156V326.182C180.679 326.354 180.823 326.551 180.947 326.775C181.065 326.994 181.124 327.229 181.124 327.483ZM180.514 327.324C180.514 327.123 180.466 326.935 180.372 326.758C180.272 326.581 180.121 326.404 179.921 326.227H177.673C177.508 326.41 177.393 326.587 177.328 326.758C177.257 326.923 177.222 327.094 177.222 327.271C177.222 327.442 177.263 327.604 177.346 327.757C177.423 327.905 177.535 328.035 177.682 328.147C177.824 328.259 177.995 328.347 178.195 328.412C178.396 328.477 178.62 328.51 178.868 328.51C179.387 328.51 179.791 328.406 180.08 328.2C180.369 327.993 180.514 327.701 180.514 327.324ZM181.018 321.494H175.214V320.76H177.647V318.061H175.214V317.318H181.018V318.061H178.284V320.76H181.018V321.494ZM181.124 313.767C181.124 314.032 181.074 314.286 180.974 314.528C180.873 314.764 180.729 314.973 180.54 315.156C180.345 315.339 180.11 315.486 179.832 315.598C179.549 315.704 179.231 315.757 178.877 315.757C178.517 315.757 178.198 315.704 177.921 315.598C177.638 315.486 177.399 315.339 177.204 315.156C177.01 314.973 176.862 314.764 176.762 314.528C176.662 314.286 176.612 314.032 176.612 313.767C176.612 313.501 176.662 313.25 176.762 313.015C176.862 312.773 177.01 312.56 177.204 312.377C177.399 312.195 177.638 312.05 177.921 311.944C178.198 311.832 178.517 311.776 178.877 311.776C179.231 311.776 179.549 311.832 179.832 311.944C180.11 312.05 180.345 312.195 180.54 312.377C180.729 312.56 180.873 312.773 180.974 313.015C181.074 313.25 181.124 313.501 181.124 313.767ZM180.522 313.767C180.522 313.584 180.484 313.416 180.407 313.262C180.325 313.109 180.213 312.979 180.071 312.873C179.924 312.761 179.75 312.675 179.549 312.616C179.349 312.557 179.124 312.528 178.877 312.528C178.629 312.528 178.405 312.557 178.204 312.616C177.998 312.675 177.821 312.761 177.673 312.873C177.526 312.979 177.414 313.109 177.337 313.262C177.254 313.416 177.213 313.584 177.213 313.767C177.213 313.949 177.254 314.118 177.337 314.271C177.414 314.424 177.526 314.557 177.673 314.669C177.821 314.775 177.998 314.858 178.204 314.917C178.405 314.976 178.629 315.005 178.877 315.005C179.124 315.005 179.349 314.976 179.549 314.917C179.75 314.858 179.924 314.775 180.071 314.669C180.213 314.557 180.325 314.424 180.407 314.271C180.484 314.118 180.522 313.949 180.522 313.767ZM181.124 309.519C181.124 309.797 181.042 309.994 180.876 310.112C180.711 310.23 180.469 310.289 180.151 310.289H174.718V309.564H180.204C180.322 309.564 180.404 309.543 180.452 309.502C180.499 309.461 180.522 309.413 180.522 309.36C180.522 309.337 180.522 309.316 180.522 309.298C180.522 309.275 180.517 309.242 180.505 309.201L181.053 309.104C181.077 309.151 181.095 309.207 181.106 309.272C181.118 309.337 181.124 309.419 181.124 309.519ZM181.124 306.211C181.124 306.754 180.929 307.188 180.54 307.512C180.151 307.831 179.596 307.99 178.877 307.99C178.529 307.99 178.216 307.94 177.939 307.839C177.656 307.733 177.417 307.595 177.222 307.424C177.027 307.253 176.877 307.055 176.771 306.831C176.665 306.607 176.612 306.371 176.612 306.123C176.612 305.875 176.656 305.66 176.744 305.477C176.833 305.294 176.954 305.108 177.107 304.92L176.373 304.955H174.718V304.221H181.018V304.822L180.514 304.884V304.911C180.679 305.082 180.823 305.279 180.947 305.504C181.065 305.722 181.124 305.958 181.124 306.211ZM180.514 306.052C180.514 305.852 180.466 305.663 180.372 305.486C180.272 305.309 180.121 305.132 179.921 304.955H177.673C177.508 305.138 177.393 305.315 177.328 305.486C177.257 305.651 177.222 305.822 177.222 305.999C177.222 306.17 177.263 306.332 177.346 306.486C177.423 306.633 177.535 306.763 177.682 306.875C177.824 306.987 177.995 307.076 178.195 307.14C178.396 307.205 178.62 307.238 178.868 307.238C179.387 307.238 179.791 307.135 180.08 306.928C180.369 306.722 180.514 306.43 180.514 306.052ZM181.124 300.675C181.124 300.964 181.074 301.235 180.974 301.489C180.868 301.737 180.72 301.955 180.531 302.144C180.337 302.327 180.101 302.471 179.823 302.577C179.546 302.684 179.231 302.737 178.877 302.737C178.523 302.737 178.207 302.684 177.93 302.577C177.647 302.465 177.408 302.321 177.213 302.144C177.019 301.961 176.871 301.754 176.771 301.524C176.665 301.294 176.612 301.055 176.612 300.808C176.612 300.536 176.659 300.295 176.753 300.082C176.847 299.864 176.983 299.684 177.16 299.542C177.337 299.395 177.549 299.283 177.797 299.206C178.045 299.13 178.322 299.091 178.629 299.091C178.706 299.091 178.782 299.094 178.859 299.1C178.93 299.1 178.992 299.106 179.045 299.118V302.02C179.505 301.99 179.871 301.849 180.142 301.595C180.407 301.336 180.54 300.999 180.54 300.587C180.54 300.38 180.511 300.191 180.452 300.02C180.387 299.843 180.304 299.675 180.204 299.516L180.682 299.259C180.8 299.448 180.903 299.657 180.991 299.888C181.08 300.118 181.124 300.38 181.124 300.675ZM178.523 302.029V299.728C178.086 299.728 177.756 299.823 177.532 300.011C177.302 300.194 177.187 300.454 177.187 300.79C177.187 300.943 177.216 301.091 177.275 301.232C177.334 301.368 177.423 301.492 177.541 301.604C177.653 301.716 177.791 301.811 177.956 301.887C178.122 301.958 178.31 302.005 178.523 302.029ZM181.018 297.675H176.718V297.073L177.496 297.011V296.985C177.225 296.837 177.01 296.66 176.85 296.454C176.691 296.241 176.612 296.011 176.612 295.764C176.612 295.592 176.641 295.439 176.7 295.303L177.337 295.445C177.313 295.516 177.296 295.581 177.284 295.64C177.272 295.699 177.266 295.772 177.266 295.861C177.266 296.044 177.34 296.235 177.488 296.436C177.635 296.631 177.892 296.802 178.257 296.949H181.018V297.675ZM181.018 292.128H176.718V291.526L177.337 291.464V291.438C177.131 291.231 176.96 291.016 176.824 290.792C176.682 290.562 176.612 290.296 176.612 289.996C176.612 289.541 176.753 289.211 177.036 289.005C177.319 288.792 177.738 288.686 178.293 288.686H181.018V289.412H178.39C177.983 289.412 177.691 289.477 177.514 289.606C177.331 289.736 177.24 289.943 177.24 290.226C177.24 290.45 177.296 290.647 177.408 290.819C177.52 290.99 177.685 291.184 177.903 291.402H181.018V292.128ZM181.124 285.944C181.124 286.304 181.018 286.605 180.806 286.847C180.593 287.083 180.292 287.201 179.903 287.201C179.431 287.201 179.071 286.991 178.824 286.572C178.57 286.154 178.393 285.484 178.293 284.564C178.157 284.564 178.024 284.579 177.895 284.608C177.765 284.632 177.65 284.676 177.549 284.741C177.449 284.806 177.37 284.897 177.311 285.015C177.246 285.127 177.213 285.272 177.213 285.449C177.213 285.697 177.26 285.93 177.355 286.148C177.449 286.366 177.555 286.561 177.673 286.732L177.169 287.015C177.039 286.814 176.915 286.57 176.797 286.281C176.673 285.991 176.612 285.673 176.612 285.325C176.612 284.8 176.774 284.419 177.098 284.183C177.417 283.948 177.844 283.83 178.381 283.83H181.018V284.431L180.505 284.493V284.52C180.676 284.726 180.823 284.947 180.947 285.183C181.065 285.419 181.124 285.673 181.124 285.944ZM180.54 285.732C180.54 285.525 180.493 285.331 180.399 285.148C180.298 284.965 180.154 284.77 179.965 284.564H178.77C178.818 284.924 178.874 285.228 178.939 285.475C179.003 285.717 179.08 285.915 179.169 286.068C179.257 286.216 179.36 286.325 179.478 286.396C179.59 286.46 179.714 286.493 179.85 286.493C180.098 286.493 180.275 286.419 180.381 286.272C180.487 286.124 180.54 285.944 180.54 285.732ZM181.018 282.123H176.718V281.521L177.337 281.459V281.432C177.131 281.244 176.96 281.04 176.824 280.822C176.682 280.598 176.612 280.356 176.612 280.096C176.612 279.766 176.685 279.509 176.833 279.327C176.974 279.138 177.175 278.999 177.434 278.911C177.187 278.687 176.989 278.462 176.842 278.238C176.688 278.008 176.612 277.76 176.612 277.495C176.612 277.053 176.753 276.725 177.036 276.513C177.319 276.295 177.738 276.185 178.293 276.185H181.018V276.911H178.39C177.983 276.911 177.691 276.976 177.514 277.106C177.331 277.235 177.24 277.436 177.24 277.707C177.24 278.032 177.461 278.392 177.903 278.787H181.018V279.512H178.39C177.983 279.512 177.691 279.577 177.514 279.707C177.331 279.837 177.24 280.04 177.24 280.318C177.24 280.642 177.461 281.002 177.903 281.397H181.018V282.123ZM181.124 272.69C181.124 272.979 181.074 273.25 180.974 273.504C180.868 273.751 180.72 273.97 180.531 274.159C180.337 274.341 180.101 274.486 179.823 274.592C179.546 274.698 179.231 274.751 178.877 274.751C178.523 274.751 178.207 274.698 177.93 274.592C177.647 274.48 177.408 274.335 177.213 274.159C177.019 273.976 176.871 273.769 176.771 273.539C176.665 273.309 176.612 273.07 176.612 272.822C176.612 272.551 176.659 272.309 176.753 272.097C176.847 271.879 176.983 271.699 177.16 271.557C177.337 271.41 177.549 271.298 177.797 271.221C178.045 271.144 178.322 271.106 178.629 271.106C178.706 271.106 178.782 271.109 178.859 271.115C178.93 271.115 178.992 271.121 179.045 271.132V274.035C179.505 274.005 179.871 273.864 180.142 273.61C180.407 273.35 180.54 273.014 180.54 272.601C180.54 272.395 180.511 272.206 180.452 272.035C180.387 271.858 180.304 271.69 180.204 271.531L180.682 271.274C180.8 271.463 180.903 271.672 180.991 271.902C181.08 272.132 181.124 272.395 181.124 272.69ZM178.523 274.043V271.743C178.086 271.743 177.756 271.837 177.532 272.026C177.302 272.209 177.187 272.469 177.187 272.805C177.187 272.958 177.216 273.106 177.275 273.247C177.334 273.383 177.423 273.507 177.541 273.619C177.653 273.731 177.791 273.825 177.956 273.902C178.122 273.973 178.31 274.02 178.523 274.043Z" fill="white"/>
<path d="M203.507 342.01H193.862V339.429C193.862 337.955 194.26 336.805 195.057 335.979C195.853 335.153 197.047 334.74 198.64 334.74C199.436 334.74 200.14 334.848 200.749 335.064C201.358 335.271 201.87 335.576 202.283 335.979C202.686 336.372 202.99 336.854 203.197 337.424C203.403 337.984 203.507 338.623 203.507 339.341V342.01ZM202.12 340.3V339.547C202.12 338.564 201.84 337.812 201.28 337.291C200.71 336.76 199.83 336.495 198.64 336.495C197.46 336.495 196.6 336.76 196.059 337.291C195.519 337.822 195.248 338.574 195.248 339.547V340.3H202.12ZM203.684 330.596C203.684 331.235 203.492 331.751 203.108 332.144C202.715 332.538 202.199 332.734 201.56 332.734C201.177 332.734 200.837 332.656 200.543 332.498C200.238 332.331 199.977 332.076 199.761 331.732C199.545 331.378 199.363 330.935 199.215 330.404C199.068 329.863 198.955 329.22 198.876 328.472C198.689 328.482 198.512 328.512 198.345 328.561C198.168 328.6 198.016 328.674 197.888 328.782C197.751 328.881 197.647 329.013 197.578 329.18C197.5 329.347 197.46 329.554 197.46 329.8C197.46 330.154 197.529 330.503 197.667 330.847C197.804 331.181 197.972 331.51 198.168 331.835L197.033 332.454C196.777 332.051 196.556 331.599 196.369 331.097C196.182 330.596 196.089 330.055 196.089 329.475C196.089 328.571 196.359 327.897 196.9 327.455C197.431 327.003 198.203 326.777 199.215 326.777H203.507V328.178L202.71 328.296V328.355C202.986 328.679 203.216 329.028 203.403 329.402C203.59 329.765 203.684 330.164 203.684 330.596ZM202.356 330.05C202.356 329.755 202.287 329.49 202.15 329.254C202.012 329.008 201.816 328.748 201.56 328.472H199.938C199.997 328.964 200.075 329.377 200.174 329.711C200.272 330.046 200.385 330.316 200.513 330.522C200.631 330.729 200.768 330.876 200.926 330.965C201.083 331.053 201.25 331.097 201.427 331.097C201.752 331.097 201.988 330.999 202.135 330.803C202.283 330.606 202.356 330.355 202.356 330.05ZM203.507 324.157H196.266V322.756L197.239 322.638V322.579C196.925 322.255 196.654 321.906 196.428 321.532C196.202 321.149 196.089 320.706 196.089 320.205C196.089 319.428 196.34 318.863 196.841 318.509C197.332 318.155 198.04 317.978 198.965 317.978H203.507V319.674H199.186C198.586 319.674 198.163 319.763 197.918 319.94C197.672 320.117 197.549 320.407 197.549 320.81C197.549 321.124 197.627 321.404 197.785 321.65C197.932 321.886 198.154 322.156 198.448 322.461H203.507V324.157ZM203.507 315.315H196.266V313.619H203.507V315.315ZM194.998 314.46C194.998 314.765 194.909 315.016 194.732 315.212C194.555 315.409 194.324 315.507 194.039 315.507C193.754 315.507 193.523 315.409 193.346 315.212C193.159 315.016 193.066 314.765 193.066 314.46C193.066 314.155 193.159 313.905 193.346 313.708C193.523 313.511 193.754 313.413 194.039 313.413C194.324 313.413 194.555 313.511 194.732 313.708C194.909 313.905 194.998 314.155 194.998 314.46ZM203.684 307.769C203.684 308.27 203.6 308.737 203.433 309.17C203.256 309.603 203.005 309.981 202.681 310.305C202.356 310.63 201.963 310.886 201.501 311.072C201.029 311.249 200.493 311.338 199.894 311.338C199.304 311.338 198.773 311.244 198.301 311.057C197.829 310.871 197.431 310.625 197.106 310.32C196.782 310.006 196.531 309.647 196.354 309.244C196.177 308.841 196.089 308.428 196.089 308.005C196.089 307.513 196.173 307.081 196.34 306.707C196.507 306.334 196.743 306.024 197.047 305.778C197.352 305.523 197.716 305.331 198.139 305.203C198.562 305.075 199.024 305.011 199.525 305.011C199.692 305.011 199.849 305.021 199.997 305.041C200.144 305.051 200.262 305.065 200.351 305.085V309.686C201 309.607 201.501 309.381 201.855 309.008C202.199 308.624 202.371 308.138 202.371 307.548C202.371 307.233 202.327 306.943 202.238 306.678C202.14 306.403 202.007 306.132 201.84 305.867L202.902 305.291C203.128 305.636 203.315 306.019 203.462 306.442C203.61 306.865 203.684 307.307 203.684 307.769ZM199.201 309.701V306.486C198.64 306.486 198.203 306.609 197.888 306.855C197.564 307.091 197.401 307.459 197.401 307.961C197.401 308.393 197.554 308.772 197.859 309.096C198.163 309.421 198.611 309.622 199.201 309.701ZM203.684 301.15C203.684 301.759 203.502 302.187 203.138 302.433C202.774 302.679 202.278 302.802 201.649 302.802H193.095V301.106H201.737C201.943 301.106 202.091 301.066 202.179 300.988C202.258 300.909 202.297 300.826 202.297 300.737C202.297 300.698 202.297 300.663 202.297 300.634C202.297 300.594 202.287 300.541 202.268 300.472L203.536 300.251C203.635 300.477 203.684 300.777 203.684 301.15ZM198.375 292.543L199.554 292.882V290.419L198.375 290.758C197.863 290.915 197.338 291.068 196.797 291.215C196.256 291.353 195.72 291.49 195.189 291.628V291.687C195.73 291.825 196.271 291.962 196.812 292.1C197.342 292.238 197.863 292.385 198.375 292.543ZM203.507 295.772L193.862 292.631V290.626L203.507 287.484V289.284L200.896 290.036V293.28L203.507 294.032V295.772ZM203.684 283.758C203.684 284.534 203.438 285.099 202.946 285.453C202.445 285.807 201.732 285.984 200.808 285.984H196.266V284.288H200.587C201.187 284.288 201.609 284.2 201.855 284.023C202.101 283.846 202.224 283.561 202.224 283.168C202.224 282.853 202.145 282.578 201.988 282.342C201.83 282.096 201.575 281.836 201.221 281.56H196.266V279.864H203.507V281.251L202.445 281.383V281.428C202.818 281.742 203.118 282.086 203.344 282.46C203.57 282.824 203.684 283.256 203.684 283.758ZM203.684 275.106C203.684 275.608 203.59 276.104 203.403 276.596C203.207 277.077 202.966 277.495 202.681 277.849L201.59 277.053C201.845 276.728 202.047 276.409 202.194 276.094C202.332 275.77 202.401 275.421 202.401 275.047C202.401 274.654 202.322 274.364 202.165 274.177C201.998 273.99 201.786 273.897 201.531 273.897C201.383 273.897 201.255 273.941 201.147 274.03C201.029 274.118 200.926 274.236 200.837 274.384C200.749 274.531 200.67 274.698 200.601 274.885C200.523 275.072 200.444 275.258 200.366 275.445C200.277 275.681 200.174 275.922 200.056 276.168C199.938 276.414 199.795 276.635 199.628 276.832C199.461 277.018 199.269 277.176 199.053 277.304C198.827 277.421 198.562 277.48 198.257 277.48C197.618 277.48 197.097 277.245 196.694 276.773C196.291 276.301 196.089 275.657 196.089 274.841C196.089 274.339 196.177 273.887 196.354 273.484C196.531 273.081 196.733 272.732 196.959 272.437L197.991 273.219C197.804 273.474 197.657 273.735 197.549 274C197.431 274.256 197.372 274.526 197.372 274.811C197.372 275.175 197.45 275.445 197.608 275.622C197.755 275.789 197.942 275.873 198.168 275.873C198.316 275.873 198.444 275.834 198.552 275.755C198.65 275.667 198.739 275.553 198.817 275.416C198.896 275.278 198.969 275.121 199.038 274.944C199.107 274.757 199.176 274.565 199.245 274.369C199.333 274.123 199.436 273.877 199.554 273.632C199.662 273.386 199.8 273.164 199.967 272.968C200.134 272.761 200.341 272.599 200.587 272.481C200.823 272.353 201.108 272.29 201.442 272.29C201.757 272.29 202.051 272.353 202.327 272.481C202.592 272.599 202.828 272.776 203.035 273.012C203.231 273.248 203.389 273.543 203.507 273.897C203.625 274.251 203.684 274.654 203.684 275.106ZM203.684 267.922C203.684 268.345 203.62 268.704 203.492 268.999C203.364 269.284 203.187 269.52 202.961 269.707C202.725 269.884 202.45 270.016 202.135 270.105C201.811 270.184 201.452 270.223 201.059 270.223H197.608V271.255H196.34L196.266 270.134L194.29 269.928V268.512H196.266V266.669H197.608V268.512H201.059C201.904 268.512 202.327 268.173 202.327 267.495C202.327 267.367 202.312 267.239 202.283 267.111C202.253 266.974 202.214 266.851 202.165 266.742L203.418 266.448C203.487 266.644 203.546 266.87 203.595 267.126C203.654 267.372 203.684 267.637 203.684 267.922ZM203.507 264.555H196.266V262.859H203.507V264.555ZM194.998 263.7C194.998 264.005 194.909 264.255 194.732 264.452C194.555 264.649 194.324 264.747 194.039 264.747C193.754 264.747 193.523 264.649 193.346 264.452C193.159 264.255 193.066 264.005 193.066 263.7C193.066 263.395 193.159 263.145 193.346 262.948C193.523 262.751 193.754 262.653 194.039 262.653C194.324 262.653 194.555 262.751 194.732 262.948C194.909 263.145 194.998 263.395 194.998 263.7ZM203.507 260.106H196.266V258.705L197.239 258.587V258.528C196.925 258.204 196.654 257.854 196.428 257.481C196.202 257.098 196.089 256.655 196.089 256.154C196.089 255.377 196.34 254.812 196.841 254.458C197.332 254.104 198.04 253.927 198.965 253.927H203.507V255.623H199.186C198.586 255.623 198.163 255.711 197.918 255.888C197.672 256.065 197.549 256.355 197.549 256.758C197.549 257.073 197.627 257.353 197.785 257.599C197.932 257.835 198.154 258.105 198.448 258.41H203.507V260.106Z" fill="white"/>
<path d="M181.018 200.498H175.213V197.154H175.833V199.764H177.655V197.561H178.284V199.764H180.39V197.065H181.018V200.498ZM181.018 196.427L178.77 195.02L176.718 196.321V195.534L177.664 194.959C177.782 194.894 177.903 194.826 178.027 194.755C178.145 194.684 178.263 194.611 178.381 194.534V194.498C178.263 194.434 178.145 194.369 178.027 194.304C177.903 194.239 177.782 194.174 177.664 194.109L176.718 193.587V192.826L178.85 194.127L181.018 192.729V193.516L180.018 194.145C179.888 194.221 179.758 194.298 179.629 194.375C179.499 194.451 179.372 194.531 179.248 194.613V194.649C179.372 194.726 179.499 194.799 179.629 194.87C179.753 194.941 179.882 195.012 180.018 195.082L181.018 195.666V196.427ZM182.832 191.523H176.718V190.921L177.213 190.859V190.833C177.048 190.638 176.906 190.426 176.788 190.196C176.67 189.96 176.611 189.715 176.611 189.461C176.611 189.184 176.665 188.939 176.771 188.727C176.871 188.514 177.018 188.338 177.213 188.196C177.402 188.054 177.632 187.948 177.903 187.877C178.169 187.801 178.47 187.762 178.806 187.762C179.171 187.762 179.499 187.813 179.788 187.913C180.071 188.013 180.313 188.149 180.513 188.32C180.714 188.491 180.867 188.689 180.974 188.913C181.074 189.137 181.124 189.373 181.124 189.621C181.124 189.821 181.08 190.022 180.991 190.222C180.903 190.417 180.782 190.614 180.628 190.815L181.381 190.797H182.832V191.523ZM180.513 189.744C180.513 189.567 180.475 189.405 180.398 189.258C180.316 189.104 180.204 188.975 180.062 188.868C179.915 188.756 179.735 188.671 179.522 188.612C179.31 188.547 179.071 188.514 178.806 188.514C178.57 188.514 178.354 188.535 178.16 188.576C177.965 188.618 177.8 188.686 177.664 188.78C177.523 188.868 177.414 188.986 177.337 189.134C177.26 189.275 177.222 189.447 177.222 189.647C177.222 189.83 177.272 190.016 177.372 190.204C177.473 190.387 177.617 190.585 177.806 190.797H180.062C180.227 190.603 180.345 190.414 180.416 190.231C180.481 190.048 180.513 189.886 180.513 189.744ZM181.018 186.261H176.718V185.535H181.018V186.261ZM175.833 185.889C175.833 186.031 175.789 186.152 175.7 186.252C175.612 186.346 175.499 186.394 175.364 186.394C175.222 186.394 175.11 186.346 175.028 186.252C174.939 186.152 174.895 186.031 174.895 185.889C174.895 185.748 174.939 185.63 175.028 185.535C175.11 185.435 175.222 185.385 175.364 185.385C175.499 185.385 175.612 185.435 175.7 185.535C175.789 185.63 175.833 185.748 175.833 185.889ZM181.018 183.729H176.718V183.128L177.496 183.066V183.039C177.225 182.892 177.01 182.715 176.85 182.508C176.691 182.296 176.611 182.066 176.611 181.818C176.611 181.647 176.641 181.494 176.7 181.358L177.337 181.5C177.313 181.571 177.296 181.635 177.284 181.694C177.272 181.753 177.266 181.827 177.266 181.916C177.266 182.098 177.34 182.29 177.487 182.491C177.635 182.685 177.891 182.856 178.257 183.004H181.018V183.729ZM182.867 180.012C182.867 180.113 182.858 180.204 182.841 180.287C182.829 180.369 182.808 180.446 182.779 180.517L182.203 180.375C182.215 180.328 182.227 180.275 182.239 180.216C182.257 180.157 182.265 180.101 182.265 180.048C182.265 179.8 182.177 179.6 182 179.446C181.829 179.287 181.611 179.163 181.345 179.075L181.027 178.977L176.718 180.703V179.951L179.098 179.075C179.287 179.01 179.487 178.942 179.699 178.871C179.906 178.794 180.109 178.724 180.31 178.659V178.623C180.115 178.558 179.912 178.497 179.699 178.438C179.487 178.379 179.287 178.32 179.098 178.261L176.718 177.491V176.783L181.372 178.402C181.584 178.479 181.782 178.564 181.965 178.659C182.147 178.753 182.304 178.865 182.434 178.995C182.569 179.125 182.675 179.272 182.752 179.437C182.829 179.603 182.867 179.794 182.867 180.012ZM181.124 172.005C181.124 172.548 180.929 172.982 180.54 173.306C180.151 173.624 179.596 173.784 178.877 173.784C178.529 173.784 178.216 173.734 177.939 173.633C177.655 173.527 177.417 173.389 177.222 173.217C177.027 173.046 176.877 172.849 176.771 172.625C176.665 172.4 176.611 172.165 176.611 171.917C176.611 171.669 176.656 171.454 176.744 171.271C176.833 171.088 176.954 170.902 177.107 170.713L176.373 170.749H174.718V170.014H181.018V170.616L180.513 170.678V170.705C180.679 170.876 180.823 171.073 180.947 171.297C181.065 171.516 181.124 171.752 181.124 172.005ZM180.513 171.846C180.513 171.645 180.466 171.457 180.372 171.28C180.272 171.103 180.121 170.926 179.921 170.749H177.673C177.508 170.932 177.393 171.109 177.328 171.28C177.257 171.445 177.222 171.616 177.222 171.793C177.222 171.964 177.263 172.126 177.346 172.28C177.422 172.427 177.535 172.557 177.682 172.669C177.824 172.781 177.995 172.869 178.195 172.934C178.396 172.999 178.62 173.032 178.868 173.032C179.387 173.032 179.791 172.928 180.08 172.722C180.369 172.516 180.513 172.224 180.513 171.846ZM181.124 167.221C181.124 167.581 181.018 167.882 180.805 168.124C180.593 168.359 180.292 168.477 179.903 168.477C179.431 168.477 179.071 168.268 178.823 167.849C178.57 167.43 178.393 166.761 178.293 165.841C178.157 165.841 178.024 165.855 177.894 165.885C177.765 165.909 177.65 165.953 177.549 166.018C177.449 166.083 177.369 166.174 177.31 166.292C177.246 166.404 177.213 166.549 177.213 166.726C177.213 166.973 177.26 167.206 177.355 167.425C177.449 167.643 177.555 167.837 177.673 168.008L177.169 168.292C177.039 168.091 176.915 167.846 176.797 167.557C176.673 167.268 176.611 166.95 176.611 166.602C176.611 166.077 176.774 165.696 177.098 165.46C177.417 165.224 177.844 165.106 178.381 165.106H181.018V165.708L180.505 165.77V165.796C180.676 166.003 180.823 166.224 180.947 166.46C181.065 166.696 181.124 166.95 181.124 167.221ZM180.54 167.009C180.54 166.802 180.493 166.608 180.398 166.425C180.298 166.242 180.154 166.047 179.965 165.841H178.77C178.818 166.201 178.874 166.504 178.938 166.752C179.003 166.994 179.08 167.192 179.169 167.345C179.257 167.492 179.36 167.601 179.478 167.672C179.59 167.737 179.714 167.77 179.85 167.77C180.098 167.77 180.275 167.696 180.381 167.548C180.487 167.401 180.54 167.221 180.54 167.009ZM181.124 162.166C181.124 162.397 181.089 162.591 181.018 162.75C180.947 162.904 180.85 163.031 180.726 163.131C180.602 163.225 180.452 163.293 180.275 163.334C180.098 163.376 179.903 163.396 179.691 163.396H177.31V164.033H176.762L176.718 163.361L175.514 163.272V162.662H176.718V161.503H177.31V162.662H179.699C179.965 162.662 180.171 162.615 180.319 162.52C180.46 162.42 180.531 162.246 180.531 161.998C180.531 161.922 180.519 161.839 180.496 161.751C180.472 161.662 180.446 161.582 180.416 161.512L180.965 161.37C181.006 161.488 181.041 161.618 181.071 161.759C181.106 161.895 181.124 162.031 181.124 162.166ZM181.124 158.555C181.124 158.844 181.074 159.115 180.974 159.369C180.867 159.616 180.72 159.835 180.531 160.023C180.336 160.206 180.101 160.351 179.823 160.457C179.546 160.563 179.23 160.616 178.877 160.616C178.523 160.616 178.207 160.563 177.93 160.457C177.647 160.345 177.408 160.2 177.213 160.023C177.018 159.841 176.871 159.634 176.771 159.404C176.665 159.174 176.611 158.935 176.611 158.687C176.611 158.416 176.659 158.174 176.753 157.962C176.847 157.744 176.983 157.564 177.16 157.422C177.337 157.275 177.549 157.162 177.797 157.086C178.045 157.009 178.322 156.971 178.629 156.971C178.705 156.971 178.782 156.974 178.859 156.98C178.93 156.98 178.992 156.986 179.045 156.997V159.9C179.505 159.87 179.87 159.728 180.142 159.475C180.407 159.215 180.54 158.879 180.54 158.466C180.54 158.26 180.51 158.071 180.452 157.9C180.387 157.723 180.304 157.555 180.204 157.395L180.682 157.139C180.8 157.328 180.903 157.537 180.991 157.767C181.08 157.997 181.124 158.26 181.124 158.555ZM178.523 159.908V157.608C178.086 157.608 177.756 157.702 177.532 157.891C177.302 158.074 177.187 158.333 177.187 158.67C177.187 158.823 177.216 158.97 177.275 159.112C177.334 159.248 177.422 159.372 177.54 159.484C177.653 159.596 177.791 159.69 177.956 159.767C178.122 159.838 178.31 159.885 178.523 159.908Z" fill="white"/>
<path d="M203.683 197.519C203.683 198.503 203.266 199.279 202.43 199.849C201.585 200.42 200.365 200.705 198.773 200.705C197.18 200.705 195.981 200.42 195.174 199.849C194.359 199.279 193.95 198.503 193.95 197.519C193.95 196.536 194.359 195.76 195.174 195.189C195.99 194.619 197.19 194.334 198.773 194.334C200.365 194.334 201.585 194.619 202.43 195.189C203.266 195.76 203.683 196.536 203.683 197.519ZM202.356 197.519C202.356 197.293 202.297 197.087 202.179 196.9C202.051 196.704 201.845 196.536 201.56 196.399C201.275 196.261 200.906 196.153 200.454 196.074C200.001 195.996 199.441 195.956 198.773 195.956C198.114 195.956 197.563 195.996 197.121 196.074C196.669 196.153 196.305 196.261 196.03 196.399C195.754 196.536 195.563 196.704 195.455 196.9C195.337 197.087 195.278 197.293 195.278 197.519C195.278 197.745 195.337 197.957 195.455 198.154C195.563 198.34 195.754 198.503 196.03 198.64C196.305 198.778 196.669 198.886 197.121 198.965C197.563 199.043 198.114 199.083 198.773 199.083C199.441 199.083 200.001 199.043 200.454 198.965C200.906 198.886 201.275 198.778 201.56 198.64C201.845 198.503 202.051 198.34 202.179 198.154C202.297 197.957 202.356 197.745 202.356 197.519ZM203.506 192.584H202.518C201.889 191.935 201.309 191.35 200.778 190.829C200.247 190.298 199.756 189.851 199.304 189.487C198.851 189.113 198.429 188.828 198.035 188.631C197.642 188.435 197.269 188.337 196.915 188.337C196.413 188.337 196.02 188.469 195.735 188.735C195.44 189 195.292 189.384 195.292 189.885C195.292 190.249 195.396 190.583 195.602 190.888C195.809 191.183 196.054 191.458 196.339 191.714L195.396 192.657C194.934 192.225 194.58 191.782 194.334 191.33C194.078 190.868 193.95 190.313 193.95 189.664C193.95 189.212 194.019 188.804 194.157 188.44C194.294 188.076 194.491 187.767 194.747 187.511C194.993 187.255 195.292 187.059 195.646 186.921C196 186.773 196.394 186.7 196.826 186.7C197.239 186.7 197.662 186.793 198.094 186.98C198.517 187.157 198.95 187.403 199.392 187.717C199.825 188.022 200.272 188.381 200.734 188.794C201.196 189.207 201.673 189.644 202.164 190.106C202.145 189.861 202.125 189.595 202.106 189.31C202.076 189.025 202.061 188.769 202.061 188.543V186.242H203.506V192.584ZM205.866 184.816L193.036 181.38V180.23L205.866 183.666V184.816ZM203.683 175.795C203.683 176.562 203.556 177.201 203.3 177.712C203.045 178.223 202.73 178.646 202.356 178.98L201.265 178.169C201.55 177.884 201.796 177.56 202.002 177.196C202.199 176.832 202.297 176.414 202.297 175.942C202.297 175.431 202.174 175.019 201.929 174.704C201.673 174.379 201.324 174.217 200.882 174.217C200.636 174.217 200.414 174.261 200.218 174.35C200.021 174.438 199.854 174.591 199.716 174.807C199.579 175.013 199.476 175.294 199.407 175.648C199.328 176.001 199.289 176.444 199.289 176.975H198.05C198.05 176.513 198.016 176.129 197.947 175.824C197.868 175.51 197.765 175.259 197.637 175.072C197.5 174.876 197.337 174.738 197.151 174.659C196.964 174.571 196.762 174.527 196.546 174.527C196.153 174.527 195.848 174.65 195.632 174.895C195.406 175.141 195.292 175.48 195.292 175.913C195.292 176.287 195.376 176.626 195.543 176.93C195.701 177.225 195.912 177.516 196.177 177.801L195.13 178.671C194.776 178.268 194.491 177.84 194.275 177.388C194.058 176.926 193.95 176.414 193.95 175.854C193.95 175.402 194.005 174.989 194.113 174.615C194.221 174.242 194.383 173.922 194.599 173.657C194.806 173.391 195.066 173.185 195.381 173.037C195.686 172.89 196.035 172.816 196.428 172.816C196.959 172.816 197.401 172.964 197.755 173.258C198.109 173.544 198.384 173.942 198.581 174.453H198.64C198.787 173.893 199.058 173.431 199.451 173.067C199.844 172.693 200.351 172.506 200.97 172.506C201.402 172.506 201.786 172.595 202.12 172.772C202.455 172.939 202.74 173.175 202.976 173.48C203.202 173.775 203.379 174.124 203.506 174.527C203.624 174.92 203.683 175.343 203.683 175.795ZM203.683 167.409C203.683 168.392 203.266 169.168 202.43 169.739C201.585 170.309 200.365 170.594 198.773 170.594C197.18 170.594 195.981 170.309 195.174 169.739C194.359 169.168 193.95 168.392 193.95 167.409C193.95 166.425 194.359 165.649 195.174 165.079C195.99 164.508 197.19 164.223 198.773 164.223C200.365 164.223 201.585 164.508 202.43 165.079C203.266 165.649 203.683 166.425 203.683 167.409ZM202.356 167.409C202.356 167.182 202.297 166.976 202.179 166.789C202.051 166.592 201.845 166.425 201.56 166.288C201.275 166.15 200.906 166.042 200.454 165.964C200.001 165.885 199.441 165.846 198.773 165.846C198.114 165.846 197.563 165.885 197.121 165.964C196.669 166.042 196.305 166.15 196.03 166.288C195.754 166.425 195.563 166.592 195.455 166.789C195.337 166.976 195.278 167.182 195.278 167.409C195.278 167.635 195.337 167.846 195.455 168.043C195.563 168.229 195.754 168.392 196.03 168.53C196.305 168.667 196.669 168.775 197.121 168.854C197.563 168.932 198.114 168.972 198.773 168.972C199.441 168.972 200.001 168.932 200.454 168.854C200.906 168.775 201.275 168.667 201.56 168.53C201.845 168.392 202.051 168.229 202.179 168.043C202.297 167.846 202.356 167.635 202.356 167.409Z" fill="white"/>
</g>
</svg>
