<svg width="236" height="373" viewBox="0 0 236 373" fill="none" xmlns="http://www.w3.org/2000/svg">
<g clip-path="url(#clip0_3_1719)">
<mask id="mask0_3_1719" style="mask-type:luminance" maskUnits="userSpaceOnUse" x="0" y="0" width="236" height="373">
<path d="M0 16.2217L0 356.508C0 365.467 7.26268 372.729 16.2216 372.729H218.808C227.767 372.729 235.03 365.467 235.03 356.508V16.2217C235.03 7.26276 227.767 6.10352e-05 218.808 6.10352e-05H16.2216C7.26268 6.10352e-05 0 7.26276 0 16.2217Z" fill="white"/>
</mask>
<g mask="url(#mask0_3_1719)">
<path d="M0 16.2217L0 356.508C0 365.467 7.26268 372.729 16.2216 372.729H218.808C227.767 372.729 235.03 365.467 235.03 356.508V16.2217C235.03 7.26276 227.767 6.10352e-05 218.808 6.10352e-05H16.2216C7.26268 6.10352e-05 0 7.26276 0 16.2217Z" fill="#00BFA5"/>
<g opacity="0.25">
<path d="M33.3806 104.396C33.3806 103.323 32.5107 102.451 31.4387 102.451C30.3665 102.451 29.4939 103.323 29.4939 104.396C29.4939 105.468 30.3665 106.338 31.4387 106.338C32.5107 106.338 33.3806 105.468 33.3806 104.396Z" fill="white"/>
<path d="M60.5883 134.847C60.5883 133.773 59.7183 132.902 58.6462 132.902C57.5715 132.902 56.7014 133.773 56.7014 134.847C56.7014 135.919 57.5715 136.79 58.6462 136.79C59.7183 136.79 60.5883 135.919 60.5883 134.847Z" fill="white"/>
<path d="M58.6442 99.1421C61.5431 99.1421 63.8945 101.493 63.8945 104.396C63.8945 107.298 61.5431 109.649 58.6442 109.649C55.7431 109.649 53.3917 107.298 53.3917 104.396C53.3917 101.493 55.7431 99.1421 58.6442 99.1421Z" fill="white"/>
<path d="M60.5882 73.9444C60.5882 72.872 59.7182 72.0015 58.6461 72.0015C57.5714 72.0015 56.7013 72.872 56.7013 73.9444C56.7013 75.0191 57.5714 75.887 58.6461 75.887C59.7182 75.887 60.5882 75.0191 60.5882 73.9444Z" fill="white"/>
<path d="M85.8498 132.902C86.9223 132.902 87.792 133.773 87.792 134.847C87.792 135.919 86.9223 136.79 85.8498 136.79C84.7755 136.79 83.9054 135.919 83.9054 134.847C83.9054 133.773 84.7755 132.902 85.8498 132.902Z" fill="white"/>
<path d="M87.7915 104.396C87.7915 103.323 86.9218 102.451 85.8493 102.451C84.775 102.451 83.9049 103.323 83.9049 104.396C83.9049 105.468 84.775 106.338 85.8493 106.338C86.9218 106.338 87.7915 105.468 87.7915 104.396Z" fill="white"/>
<path d="M85.8498 72.0018C86.9223 72.0018 87.792 72.8722 87.792 73.9447C87.792 75.0194 86.9223 75.8872 85.8498 75.8872C84.7755 75.8872 83.9054 75.0194 83.9054 73.9447C83.9054 72.8722 84.7755 72.0018 85.8498 72.0018Z" fill="white"/>
<path d="M114.999 165.298C114.999 164.224 114.129 163.354 113.054 163.354C111.982 163.354 111.112 164.224 111.112 165.298C111.112 166.371 111.982 167.241 113.054 167.241C114.129 167.241 114.999 166.371 114.999 165.298Z" fill="white"/>
<path d="M113.055 132.902C114.129 132.902 114.999 133.773 114.999 134.847C114.999 135.919 114.129 136.79 113.055 136.79C111.982 136.79 111.112 135.919 111.112 134.847C111.112 133.773 111.982 132.902 113.055 132.902Z" fill="white"/>
<path d="M114.999 104.396C114.999 103.323 114.129 102.45 113.054 102.45C111.982 102.45 111.112 103.323 111.112 104.396C111.112 105.468 111.982 106.338 113.054 106.338C114.129 106.338 114.999 105.468 114.999 104.396Z" fill="white"/>
<path d="M113.053 69.6261C115.437 69.6261 117.371 71.5602 117.371 73.9444C117.371 76.3286 115.437 78.2627 113.053 78.2627C110.67 78.2627 108.738 76.3286 108.738 73.9444C108.738 71.5602 110.67 69.6261 113.053 69.6261Z" fill="white"/>
<path d="M114.999 43.4927C114.999 42.4203 114.129 41.5502 113.055 41.5502C111.983 41.5502 111.113 42.4203 111.113 43.4927C111.113 44.5674 111.983 45.4375 113.055 45.4375C114.129 45.4375 114.999 44.5674 114.999 43.4927Z" fill="white"/>
<path d="M140.258 163.353C141.33 163.353 142.203 164.223 142.203 165.298C142.203 166.371 141.33 167.241 140.258 167.241C139.186 167.241 138.316 166.371 138.316 165.298C138.316 164.223 139.186 163.353 140.258 163.353Z" fill="white"/>
<path d="M144.25 134.847C144.25 132.643 142.463 130.855 140.259 130.855C138.056 130.855 136.269 132.643 136.269 134.847C136.269 137.05 138.056 138.838 140.259 138.838C142.463 138.838 144.25 137.05 144.25 134.847Z" fill="white"/>
<path d="M140.258 102.451C141.33 102.451 142.203 103.323 142.203 104.396C142.203 105.468 141.33 106.338 140.258 106.338C139.186 106.338 138.316 105.468 138.316 104.396C138.316 103.323 139.186 102.451 140.258 102.451Z" fill="white"/>
<path d="M142.203 73.9447C142.203 72.8722 141.331 72.0018 140.258 72.0018C139.187 72.0018 138.317 72.8722 138.317 73.9447C138.317 75.0194 139.187 75.8872 140.258 75.8872C141.331 75.8872 142.203 75.0194 142.203 73.9447Z" fill="white"/>
<path d="M140.258 41.5502C141.331 41.5502 142.203 42.4203 142.203 43.4927C142.203 44.5674 141.331 45.4375 140.258 45.4375C139.187 45.4375 138.317 44.5674 138.317 43.4927C138.317 42.4203 139.187 41.5502 140.258 41.5502Z" fill="white"/>
<path d="M172.475 195.749C172.475 192.98 170.231 190.735 167.463 190.735C164.696 190.735 162.453 192.98 162.453 195.749C162.453 198.516 164.696 200.761 167.463 200.761C170.231 200.761 172.475 198.516 172.475 195.749Z" fill="white"/>
<path d="M167.465 163.354C168.537 163.354 169.407 164.224 169.407 165.298C169.407 166.371 168.537 167.241 167.465 167.241C166.391 167.241 165.521 166.371 165.521 165.298C165.521 164.224 166.391 163.354 167.465 163.354Z" fill="white"/>
<path d="M169.406 134.847C169.406 133.772 168.536 132.902 167.464 132.902C166.391 132.902 165.521 133.772 165.521 134.847C165.521 135.919 166.391 136.79 167.464 136.79C168.536 136.79 169.406 135.919 169.406 134.847Z" fill="white"/>
<path d="M167.465 97.6927C171.167 97.6927 174.166 100.693 174.166 104.395C174.166 108.098 171.167 111.098 167.465 111.098C163.764 111.098 160.765 108.098 160.765 104.395C160.765 100.693 163.764 97.6927 167.465 97.6927Z" fill="white"/>
<path d="M169.407 73.9447C169.407 72.8722 168.537 72.0018 167.465 72.0018C166.392 72.0018 165.521 72.8722 165.521 73.9447C165.521 75.0194 166.392 75.8872 167.465 75.8872C168.537 75.8872 169.407 75.0194 169.407 73.9447Z" fill="white"/>
<path d="M167.464 41.55C168.536 41.55 169.407 42.42 169.407 43.4925C169.407 44.5672 168.536 45.4373 167.464 45.4373C166.391 45.4373 165.521 44.5672 165.521 43.4925C165.521 42.42 166.391 41.55 167.464 41.55Z" fill="white"/>
<path d="M171.473 13.0419C171.473 10.8273 169.678 9.03261 167.464 9.03261C165.25 9.03261 163.456 10.8273 163.456 13.0419C163.456 15.2562 165.25 17.0513 167.464 17.0513C169.678 17.0513 171.473 15.2562 171.473 13.0419Z" fill="white"/>
<path d="M194.67 193.804C195.743 193.804 196.613 194.674 196.613 195.749C196.613 196.821 195.743 197.691 194.67 197.691C193.596 197.691 192.726 196.821 192.726 195.749C192.726 194.674 193.596 193.804 194.67 193.804Z" fill="white"/>
<path d="M198.428 165.298C198.428 163.221 196.746 161.537 194.67 161.537C192.594 161.537 190.91 163.221 190.91 165.298C190.91 167.374 192.594 169.057 194.67 169.057C196.746 169.057 198.428 167.374 198.428 165.298Z" fill="white"/>
<path d="M194.67 132.902C195.742 132.902 196.613 133.773 196.613 134.847C196.613 135.919 195.742 136.79 194.67 136.79C193.596 136.79 192.726 135.919 192.726 134.847C192.726 133.773 193.596 132.902 194.67 132.902Z" fill="white"/>
<path d="M196.612 104.396C196.612 103.323 195.742 102.451 194.669 102.451C193.595 102.451 192.725 103.323 192.725 104.396C192.725 105.468 193.595 106.338 194.669 106.338C195.742 106.338 196.612 105.468 196.612 104.396Z" fill="white"/>
<path d="M194.67 72.0018C195.742 72.0018 196.613 72.8722 196.613 73.9447C196.613 75.0194 195.742 75.8872 194.67 75.8872C193.596 75.8872 192.726 75.0194 192.726 73.9447C192.726 72.8722 193.596 72.0018 194.67 72.0018Z" fill="white"/>
<path d="M196.613 43.4927C196.613 42.4203 195.743 41.5502 194.67 41.5502C193.596 41.5502 192.726 42.4203 192.726 43.4927C192.726 44.5674 193.596 45.4375 194.67 45.4375C195.743 45.4375 196.613 44.5674 196.613 43.4927Z" fill="white"/>
<path d="M194.669 11.0991C195.742 11.0991 196.612 11.9696 196.612 13.0421C196.612 14.1167 195.742 14.9868 194.669 14.9868C193.595 14.9868 192.725 14.1167 192.725 13.0421C192.725 11.9696 193.595 11.0991 194.669 11.0991Z" fill="white"/>
<path d="M224.99 226.2C224.99 224.477 223.596 223.083 221.874 223.083C220.154 223.083 218.76 224.477 218.76 226.2C218.76 227.921 220.154 229.315 221.874 229.315C223.596 229.315 224.99 227.921 224.99 226.2Z" fill="white"/>
<path d="M221.873 193.804C222.948 193.804 223.818 194.674 223.818 195.749C223.818 196.821 222.948 197.691 221.873 197.691C220.801 197.691 219.931 196.821 219.931 195.749C219.931 194.674 220.801 193.804 221.873 193.804Z" fill="white"/>
<path d="M223.818 165.298C223.818 164.223 222.948 163.353 221.873 163.353C220.801 163.353 219.931 164.223 219.931 165.298C219.931 166.371 220.801 167.241 221.873 167.241C222.948 167.241 223.818 166.371 223.818 165.298Z" fill="white"/>
<path d="M221.873 132.902C222.948 132.902 223.818 133.772 223.818 134.847C223.818 135.919 222.948 136.79 221.873 136.79C220.801 136.79 219.931 135.919 219.931 134.847C219.931 133.772 220.801 132.902 221.873 132.902Z" fill="white"/>
<path d="M223.818 104.396C223.818 103.323 222.948 102.451 221.873 102.451C220.801 102.451 219.931 103.323 219.931 104.396C219.931 105.468 220.801 106.338 221.873 106.338C222.948 106.338 223.818 105.468 223.818 104.396Z" fill="white"/>
<path d="M221.873 69.0821C224.559 69.0821 226.734 71.2595 226.734 73.9442C226.734 76.6285 224.559 78.8059 221.873 78.8059C219.189 78.8059 217.015 76.6285 217.015 73.9442C217.015 71.2595 219.189 69.0821 221.873 69.0821Z" fill="white"/>
<path d="M223.818 43.4925C223.818 42.42 222.948 41.55 221.873 41.55C220.801 41.55 219.931 42.42 219.931 43.4925C219.931 44.5672 220.801 45.4373 221.873 45.4373C222.948 45.4373 223.818 44.5672 223.818 43.4925Z" fill="white"/>
<path d="M221.873 11.0994C222.948 11.0994 223.818 11.9698 223.818 13.0423C223.818 14.117 222.948 14.9871 221.873 14.9871C220.801 14.9871 219.931 14.117 219.931 13.0423C219.931 11.9698 220.801 11.0994 221.873 11.0994Z" fill="white"/>
</g>
<g opacity="0.25">
<path d="M173.814 303.727C173.814 304.799 174.684 305.672 175.756 305.672C176.828 305.672 177.701 304.799 177.701 303.727C177.701 302.654 176.828 301.784 175.756 301.784C174.684 301.784 173.814 302.654 173.814 303.727Z" fill="white"/>
<path d="M146.607 273.275C146.607 274.35 147.477 275.22 148.549 275.22C149.624 275.22 150.494 274.35 150.494 273.275C150.494 272.203 149.624 271.333 148.549 271.333C147.477 271.333 146.607 272.203 146.607 273.275Z" fill="white"/>
<path d="M148.55 308.98C145.651 308.98 143.3 306.629 143.3 303.726C143.3 300.825 145.651 298.473 148.55 298.473C151.451 298.473 153.802 300.825 153.802 303.726C153.802 306.629 151.451 308.98 148.55 308.98Z" fill="white"/>
<path d="M146.606 334.178C146.606 335.25 147.477 336.121 148.549 336.121C149.623 336.121 150.493 335.25 150.493 334.178C150.493 333.103 149.623 332.235 148.549 332.235C147.477 332.235 146.606 333.103 146.606 334.178Z" fill="white"/>
<path d="M121.345 275.22C120.273 275.22 119.403 274.35 119.403 273.275C119.403 272.203 120.273 271.333 121.345 271.333C122.419 271.333 123.29 272.203 123.29 273.275C123.29 274.35 122.419 275.22 121.345 275.22Z" fill="white"/>
<path d="M119.403 303.727C119.403 304.799 120.273 305.672 121.346 305.672C122.42 305.672 123.29 304.799 123.29 303.727C123.29 302.654 122.42 301.784 121.346 301.784C120.273 301.784 119.403 302.654 119.403 303.727Z" fill="white"/>
<path d="M121.345 336.121C120.273 336.121 119.403 335.25 119.403 334.178C119.403 333.103 120.273 332.235 121.345 332.235C122.42 332.235 123.29 333.103 123.29 334.178C123.29 335.25 122.42 336.121 121.345 336.121Z" fill="white"/>
<path d="M92.1953 242.824C92.1953 243.899 93.0654 244.769 94.1401 244.769C95.2122 244.769 96.0822 243.899 96.0822 242.824C96.0822 241.752 95.2122 240.881 94.1401 240.881C93.0654 240.881 92.1953 241.752 92.1953 242.824Z" fill="white"/>
<path d="M94.1406 275.22C93.0659 275.22 92.1958 274.35 92.1958 273.276C92.1958 272.203 93.0659 271.333 94.1406 271.333C95.2127 271.333 96.0827 272.203 96.0827 273.276C96.0827 274.35 95.2127 275.22 94.1406 275.22Z" fill="white"/>
<path d="M92.1954 303.726C92.1954 304.799 93.0655 305.671 94.1402 305.671C95.2123 305.671 96.0824 304.799 96.0824 303.726C96.0824 302.654 95.2123 301.784 94.1402 301.784C93.0655 301.784 92.1954 302.654 92.1954 303.726Z" fill="white"/>
<path d="M94.1419 338.496C91.758 338.496 89.8243 336.562 89.8243 334.178C89.8243 331.794 91.758 329.86 94.1419 329.86C96.525 329.86 98.4565 331.794 98.4565 334.178C98.4565 336.562 96.525 338.496 94.1419 338.496Z" fill="white"/>
<path d="M92.1958 364.63C92.1958 365.702 93.0659 366.573 94.1406 366.573C95.2127 366.573 96.0827 365.702 96.0827 364.63C96.0827 363.555 95.2127 362.685 94.1406 362.685C93.0659 362.685 92.1958 363.555 92.1958 364.63Z" fill="white"/>
<path d="M66.9371 244.769C65.8646 244.769 64.9923 243.899 64.9923 242.824C64.9923 241.752 65.8646 240.881 66.9371 240.881C68.0088 240.881 68.8789 241.752 68.8789 242.824C68.8789 243.899 68.0088 244.769 66.9371 244.769Z" fill="white"/>
<path d="M62.9452 273.276C62.9452 275.479 64.7325 277.268 66.9365 277.268C69.1393 277.268 70.9266 275.479 70.9266 273.276C70.9266 271.072 69.1393 269.284 66.9365 269.284C64.7325 269.284 62.9452 271.072 62.9452 273.276Z" fill="white"/>
<path d="M66.9371 305.672C65.8646 305.672 64.9923 304.799 64.9923 303.727C64.9923 302.654 65.8646 301.784 66.9371 301.784C68.0088 301.784 68.8789 302.654 68.8789 303.727C68.8789 304.799 68.0088 305.672 66.9371 305.672Z" fill="white"/>
<path d="M64.9922 334.178C64.9922 335.251 65.8645 336.121 66.9369 336.121C68.0087 336.121 68.8787 335.251 68.8787 334.178C68.8787 333.103 68.0087 332.236 66.9369 332.236C65.8645 332.236 64.9922 333.103 64.9922 334.178Z" fill="white"/>
<path d="M66.9365 366.573C65.864 366.573 64.9917 365.702 64.9917 364.63C64.9917 363.555 65.864 362.685 66.9365 362.685C68.0082 362.685 68.8783 363.555 68.8783 364.63C68.8783 365.702 68.0082 366.573 66.9365 366.573Z" fill="white"/>
<path d="M34.7205 212.374C34.7205 215.143 36.9648 217.388 39.7321 217.388C42.4997 217.388 44.7427 215.143 44.7427 212.374C44.7427 209.606 42.4997 207.361 39.7321 207.361C36.9648 207.361 34.7205 209.606 34.7205 212.374Z" fill="white"/>
<path d="M39.7304 244.769C38.6583 244.769 37.7882 243.899 37.7882 242.824C37.7882 241.752 38.6583 240.881 39.7304 240.881C40.804 240.881 41.674 241.752 41.674 242.824C41.674 243.899 40.804 244.769 39.7304 244.769Z" fill="white"/>
<path d="M37.7877 273.275C37.7877 274.35 38.6578 275.22 39.7299 275.22C40.8035 275.22 41.6735 274.35 41.6735 273.275C41.6735 272.203 40.8035 271.333 39.7299 271.333C38.6578 271.333 37.7877 272.203 37.7877 273.275Z" fill="white"/>
<path d="M39.7295 310.43C36.0279 310.43 33.0281 307.43 33.0281 303.727C33.0281 300.025 36.0279 297.025 39.7295 297.025C43.431 297.025 46.4298 300.025 46.4298 303.727C46.4298 307.43 43.431 310.43 39.7295 310.43Z" fill="white"/>
<path d="M37.7882 334.178C37.7882 335.251 38.6583 336.121 39.7304 336.121C40.804 336.121 41.674 335.251 41.674 334.178C41.674 333.103 40.804 332.236 39.7304 332.236C38.6583 332.236 37.7882 333.103 37.7882 334.178Z" fill="white"/>
<path d="M39.7298 366.572C38.6577 366.572 37.7876 365.702 37.7876 364.63C37.7876 363.555 38.6577 362.685 39.7298 362.685C40.8033 362.685 41.6734 363.555 41.6734 364.63C41.6734 365.702 40.8033 366.572 39.7298 366.572Z" fill="white"/>
<path d="M12.5255 214.318C11.4525 214.318 10.5825 213.448 10.5825 212.374C10.5825 211.301 11.4525 210.431 12.5255 210.431C13.5995 210.431 14.4694 211.301 14.4694 212.374C14.4694 213.448 13.5995 214.318 12.5255 214.318Z" fill="white"/>
<path d="M8.76685 242.824C8.76685 244.902 10.4498 246.585 12.5253 246.585C14.6016 246.585 16.2854 244.902 16.2854 242.824C16.2854 240.749 14.6016 239.065 12.5253 239.065C10.4498 239.065 8.76685 240.749 8.76685 242.824Z" fill="white"/>
<path d="M12.5257 275.22C11.4526 275.22 10.5826 274.35 10.5826 273.275C10.5826 272.203 11.4526 271.333 12.5257 271.333C13.5996 271.333 14.4696 272.203 14.4696 273.275C14.4696 274.35 13.5996 275.22 12.5257 275.22Z" fill="white"/>
<path d="M10.5822 303.727C10.5822 304.799 11.4521 305.672 12.5252 305.672C13.5992 305.672 14.4691 304.799 14.4691 303.727C14.4691 302.654 13.5992 301.784 12.5252 301.784C11.4521 301.784 10.5822 302.654 10.5822 303.727Z" fill="white"/>
<path d="M12.5252 336.121C11.4521 336.121 10.5822 335.25 10.5822 334.178C10.5822 333.103 11.4521 332.235 12.5252 332.235C13.5992 332.235 14.4691 333.103 14.4691 334.178C14.4691 335.25 13.5992 336.121 12.5252 336.121Z" fill="white"/>
<path d="M10.5826 364.63C10.5826 365.702 11.4526 366.573 12.5257 366.573C13.5996 366.573 14.4696 365.702 14.4696 364.63C14.4696 363.555 13.5996 362.685 12.5257 362.685C11.4526 362.685 10.5826 363.555 10.5826 364.63Z" fill="white"/>
</g>
<path d="M36.0136 66.7767L41.1039 67.8582C41.7466 67.9897 42.3216 68.3095 42.7683 68.7555C43.3636 69.3508 43.7326 70.1751 43.7326 71.0842V79.3821L43.4156 79.315L43.0998 79.2466L42.7827 79.1795L42.467 79.1124L42.1499 79.044L41.8328 78.9769L41.5171 78.9098L41.2 78.8427L36.015 77.7408L35.6992 77.6724L35.3821 77.6053L35.0664 77.5382L34.7493 77.4698L34.4335 77.4027L34.1164 77.3356L33.8007 77.2685L33.4836 77.2001L31.52 76.783C31.124 76.7021 30.7707 76.506 30.4957 76.2311C30.2668 76.0021 30.0918 75.7193 29.9945 75.4009L29.4787 73.8168L30.0905 73.9471L33.4836 74.6667L33.8007 74.7352L34.1164 74.8023L34.4335 74.8694L34.7493 74.9365L35.0664 75.0049L35.3821 75.072L35.6992 75.1391L36.015 75.2075L40.579 76.1765C40.5941 76.1811 40.6106 76.185 40.6257 76.187C40.6678 76.1955 40.7125 76.1988 40.7573 76.1988C41.1763 76.1988 41.5171 75.8581 41.5171 75.439V71.5032C41.5171 71.1533 41.375 70.8362 41.146 70.6073C40.9888 70.45 40.7902 70.3336 40.5685 70.2764L40.4849 70.2586C40.4718 70.2553 40.458 70.2527 40.4435 70.2501L39.6824 70.0869L37.4898 69.6218L37.3464 69.5916L36.611 69.4357C36.5616 69.4251 36.511 69.4205 36.4583 69.4205C36.2478 69.4205 36.059 69.5054 35.9215 69.6435C35.7827 69.781 35.6985 69.9698 35.6985 70.1803V73.8741L35.3815 73.807L35.0657 73.7399L34.7486 73.6714L34.494 73.6175C34.2474 73.5668 34.0257 73.4438 33.854 73.2721C33.625 73.0432 33.483 72.7275 33.483 72.3775V68.739C33.483 68.1799 33.7099 67.674 34.0763 67.3063C34.4427 66.9398 34.9499 66.7129 35.5091 66.7129C35.6433 66.7129 35.7735 66.726 35.8998 66.7504C35.9011 66.7504 35.9025 66.7504 35.9031 66.7517L35.9452 66.7609C35.9538 66.7622 35.9604 66.7635 35.9689 66.7655L36.015 66.7747L36.0136 66.7767ZM33.104 59.5294C33.0021 59.2511 32.8409 58.9998 32.6344 58.7939C32.3581 58.5189 32.0048 58.3229 31.6088 58.242L29.73 57.8519L30.2372 59.4129L30.276 59.5313C30.378 59.8096 30.5392 60.0609 30.7457 60.2668C31.022 60.5418 31.3753 60.7378 31.7713 60.8187L32.6659 60.9904L33.65 61.2082L33.1429 59.6471L33.104 59.5287V59.5294ZM35.6979 62.91L35.3808 62.8429L35.065 62.7758L34.748 62.7074L34.4322 62.6403L34.1151 62.5732L33.952 62.5389L33.7994 62.5061L33.4823 62.4376L30.0879 61.7167L29.4774 61.5877L29.9846 63.1488L30.0234 63.2672C30.1254 63.5454 30.2866 63.7967 30.4931 64.0026C30.7694 64.2776 31.1227 64.4736 31.5187 64.5545L33.4823 64.9716L33.7994 65.0387L34.1151 65.1071L34.4322 65.1742L34.748 65.2413L35.065 65.3084L35.3808 65.3768L35.6979 65.4439L36.0136 65.511L38.6068 66.0616L41.1987 66.6122L41.5157 66.6793L41.8315 66.7464L41.8493 66.7497H41.8506L42.1486 66.8142L42.4657 66.8813L42.5716 66.905H42.5742L42.7821 66.9484L43.0991 67.0168L43.4149 67.0839L43.732 67.151V65.6439C43.732 65.2953 43.5899 64.9782 43.361 64.7493C43.1893 64.5776 42.9676 64.4546 42.7209 64.4039L42.4663 64.35L42.1492 64.2815L41.8322 64.2144L41.5164 64.1473L41.1993 64.0802L38.6075 63.5296L36.0143 62.979L35.6985 62.9106L35.6979 62.91ZM40.1455 42.1817L38.6068 43.7203L37.0681 42.1817L34.2145 39.328L33.4816 38.5952V40.889C33.4816 41.4482 33.7086 41.9554 34.075 42.3218L37.0405 45.2873L37.2648 45.5103L37.4878 45.7346L37.7122 45.9589L37.9352 46.182L38.1595 46.4063L38.3838 46.6293L38.6068 46.8536L43.1156 42.3448L43.1616 42.2988C43.5149 41.935 43.7326 41.4377 43.7326 40.8897V38.5945L42.9985 39.3287L40.1455 42.1817ZM38.6068 47.3022L38.3825 47.0779L38.1595 46.8536L37.9352 46.6306L37.7108 46.4063L37.4878 46.1833L37.2635 45.9589L37.0405 45.7346L36.8162 45.5116L36.4314 45.1268L36.0143 45.038L35.6985 44.9696L35.3815 44.9025L35.0657 44.8354L34.7486 44.767L34.4329 44.6999L34.1158 44.6328L33.9527 44.5985L33.8 44.5657L33.483 44.4972L30.0885 43.7763L29.4781 43.6473L29.9853 45.2084L30.0241 45.3268C30.126 45.605 30.2872 45.8563 30.4938 46.0622C30.7701 46.3372 31.1233 46.5332 31.5193 46.6141L33.483 47.0312L33.8 47.0983L34.1158 47.1667L34.4329 47.2338L34.7486 47.3009L35.0657 47.368L35.3815 47.4364L35.6985 47.5035L36.0143 47.5706L38.6075 48.1212L41.1993 48.6718L41.5164 48.7389L41.8322 48.806L41.8499 48.8093H41.8512L42.1492 48.8738L42.4663 48.9409L42.5722 48.9646H42.5749L42.7827 49.008L43.0998 49.0764L43.4156 49.1435L43.7326 49.2106V47.7035C43.7326 47.3549 43.5905 47.0378 43.3616 46.8089C43.1899 46.6372 42.9682 46.5142 42.7216 46.4635L42.467 46.4096L42.1499 46.3411L41.8328 46.274L41.5171 46.207L41.2 46.1399L40.0218 45.8892L38.8324 47.0786L38.6081 47.3029L38.6068 47.3022ZM33.4816 58.642L33.9888 60.203L34.0276 60.3214C34.1296 60.5997 34.2908 60.851 34.4973 61.0569C34.7736 61.3318 35.1269 61.5279 35.5229 61.6088L43.732 63.3514V61.8443C43.732 61.4956 43.5899 61.1785 43.361 60.9496C43.1893 60.7779 42.9676 60.6549 42.7209 60.6043L42.4663 60.5503L34.0928 58.7709L33.4823 58.642H33.4816ZM35.9446 48.8245L35.9025 48.8153C35.7742 48.7896 35.6426 48.7764 35.5078 48.7764C34.9486 48.7764 34.4414 49.0034 34.075 49.3698C33.7086 49.7375 33.4816 50.2434 33.4816 50.8026V54.7061C33.4816 55.6153 33.8507 56.4395 34.446 57.0349C34.892 57.4809 35.4676 57.8006 36.1103 57.9321L41.1993 59.0136L41.5164 59.0807L41.8322 59.1478L41.8499 59.1511H41.8512L41.9335 59.1689L42.1492 59.2149L42.4663 59.2833L42.5722 59.307H42.5749L42.7827 59.3504L43.0998 59.4175L43.4156 59.4859L43.7326 59.553V58.046C43.7326 57.6973 43.5905 57.3802 43.3616 57.1513C43.1899 56.9796 42.9682 56.8566 42.7216 56.8059L42.467 56.752L42.1499 56.6836L41.8328 56.6152L41.5171 56.5481L41.2 56.481L40.2547 56.2803L39.7264 56.1678L37.5339 55.7028L37.426 55.6791L36.7728 55.5396C36.759 55.537 36.7445 55.535 36.732 55.5311L36.6484 55.5133C36.4268 55.4561 36.2281 55.3396 36.0709 55.1824C35.8419 54.9535 35.6999 54.6364 35.6999 54.2864V52.2439C35.6999 52.0334 35.7847 51.8433 35.9229 51.7058C36.0603 51.5683 36.2491 51.4841 36.4596 51.4841C36.5103 51.4841 36.5596 51.4887 36.6077 51.4979L36.611 51.4992H36.6136L37.3477 51.6551L40.2553 52.2728L41.2006 52.4735L41.5177 52.5406L41.8335 52.6077L41.8512 52.6109H41.8526L41.9348 52.6287L42.1506 52.6748L42.4676 52.7432L42.5735 52.7669H42.5762L42.784 52.8103L43.1011 52.8774L43.4169 52.9458L43.734 53.0129V51.5058C43.734 51.1571 43.5919 50.8401 43.3629 50.6111C43.1912 50.4394 42.9696 50.3164 42.7229 50.2658L42.4683 50.2118L42.1512 50.1434L41.8341 50.075L41.5184 50.0079L41.2013 49.9408L36.0163 48.8389L35.9472 48.8251L35.9446 48.8245Z" fill="#01292C"/>
<path d="M45.6453 55.7006L45.8558 55.7447V56.2776C45.8558 56.4644 45.9551 56.567 46.1907 56.6163C46.4262 56.6657 46.5229 56.6052 46.5229 56.4177V55.8848L46.7353 55.9296V56.4828C46.7353 56.7696 46.5577 56.9111 46.19 56.8334C45.8223 56.7558 45.6447 56.5394 45.6447 56.2532V55.7L45.6453 55.7006Z" fill="#01292C"/>
<path d="M45.6456 55.2299L46.7363 55.4595V55.6753L45.6456 55.4457V55.2299ZM45.2345 55.1411L45.4884 55.1944V55.4122L45.2345 55.3589V55.1411Z" fill="#01292C"/>
<path d="M45.6454 54.8822L45.3876 54.8275V54.6098L45.6454 54.6644V54.3677L45.8559 54.4118V54.7085L46.3723 54.817C46.494 54.8427 46.5355 54.8085 46.5355 54.7072V54.5585L46.7361 54.6006V54.794C46.7361 55.0157 46.6453 55.092 46.3598 55.0321L45.8559 54.9262V55.0723L45.6454 55.0282V54.8822Z" fill="#01292C"/>
<path d="M45.6458 53.0365L47.1739 54.0049V54.2364L46.697 53.9345C46.697 54.0562 46.6575 54.0911 46.5628 54.1075L45.6458 54.2739V54.0463L46.4575 53.8937C46.497 53.8878 46.5029 53.8786 46.5029 53.8384V53.8102L45.6458 53.2655V53.0359V53.0365Z" fill="#01292C"/>
<path d="M45.1726 51.9862L45.6456 52.0855V51.6099C45.6456 51.325 45.8232 51.1836 46.1909 51.2612C46.5587 51.3389 46.7363 51.5553 46.7363 51.8395V52.1361C46.7363 52.394 46.5837 52.4986 46.2692 52.4322L45.1726 52.2013V51.9855V51.9862ZM45.8561 52.1302L46.2587 52.2151C46.4449 52.2539 46.5231 52.2039 46.5231 52.0289V51.8178C46.5231 51.6309 46.4264 51.529 46.1909 51.4796C45.9554 51.4303 45.8561 51.4902 45.8561 51.6776V52.1309V52.1302Z" fill="#01292C"/>
<path d="M45.646 50.2012C45.646 49.9328 45.7986 49.8591 46.0052 49.9026L46.5176 50.0104C46.6748 50.0433 46.7367 50.0973 46.7367 50.2782V50.7801C46.7367 51.034 46.611 51.1136 46.4045 51.0695C46.2058 51.0281 46.0907 50.9057 46.0907 50.6413V50.1308L46.0078 50.1137C45.9229 50.096 45.8572 50.1288 45.8572 50.2466V50.8886L45.6467 50.8446V50.1999L45.646 50.2012ZM46.4683 50.2117L46.2637 50.169V50.6755C46.2637 50.7893 46.3111 50.84 46.392 50.8571C46.4722 50.8742 46.5242 50.8419 46.5242 50.7347V50.2834C46.5242 50.2407 46.5078 50.2209 46.4683 50.2124V50.2117Z" fill="#01292C"/>
<path d="M45.646 48.9296C45.646 48.5659 45.8216 48.4257 46.1229 48.4896L46.7367 48.6185V48.8362L46.1229 48.7073C45.9519 48.6711 45.8565 48.7487 45.8565 48.9744V49.3263C45.8565 49.3447 45.867 49.3546 45.8874 49.3592L46.736 49.5381V49.7539L45.8151 49.5598C45.6868 49.5329 45.646 49.4816 45.646 49.3737V48.9303V48.9296Z" fill="#01292C"/>
<path d="M45.1724 47.7714L46.0979 47.9661V47.8668C46.0979 47.6957 46.0894 47.6595 45.9743 47.5721L45.646 47.3241V47.0905L45.9887 47.3497C46.0861 47.4227 46.146 47.4865 46.1828 47.5819C46.2117 47.4865 46.2795 47.4477 46.3933 47.4069L46.736 47.2859V47.528L46.4137 47.6392C46.2999 47.678 46.2815 47.7168 46.2815 47.9062V48.0056L46.736 48.1016V48.3174L45.1724 47.9878V47.772V47.7714Z" fill="#01292C"/>
<path d="M45.1727 59.6964L45.6457 59.7957V59.3201C45.6457 59.0352 45.8233 58.8938 46.1911 58.9714C46.5588 59.0491 46.7364 59.2655 46.7364 59.5497V59.8464C46.7364 60.1042 46.5838 60.2088 46.2693 60.1424L45.1727 59.9115V59.6957V59.6964ZM45.8562 59.8404L46.2588 59.9253C46.445 59.9641 46.5233 59.9141 46.5233 59.7391V59.528C46.5233 59.3411 46.4266 59.2392 46.1911 59.1898C45.9555 59.1405 45.8562 59.2004 45.8562 59.3878V59.8411V59.8404Z" fill="#01292C"/>
<path d="M45.6458 57.6188L47.1739 58.5871V58.8187L46.697 58.5168C46.697 58.6385 46.6575 58.6733 46.5628 58.6898L45.6458 58.8562V58.6286L46.4575 58.476C46.497 58.4701 46.5029 58.4608 46.5029 58.4207V58.3924L45.6458 57.8477V57.6182V57.6188Z" fill="#01292C"/>
<path opacity="0.4" d="M205.319 48.7639C205.319 38.9903 197.396 31.0675 187.622 31.0675C177.848 31.0675 169.926 38.9903 169.926 48.7639C169.926 58.537 177.848 66.4602 187.622 66.4602C197.396 66.4602 205.319 58.537 205.319 48.7639Z" fill="white"/>
<path opacity="0.859468" d="M205.319 70.7856C205.319 61.0117 197.396 53.0893 187.623 53.0893C177.849 53.0893 169.926 61.0117 169.926 70.7856C169.926 80.5588 177.849 88.4819 187.623 88.4819C197.396 88.4819 205.319 80.5588 205.319 70.7856Z" fill="white"/>
<path d="M43.5036 341.889H32.8947V339.764L38.0856 337.883C38.4207 337.764 38.7669 337.65 39.1238 337.542C39.47 337.434 39.8158 337.32 40.162 337.201V337.136C39.8158 337.017 39.47 336.909 39.1238 336.812C38.7669 336.704 38.4207 336.59 38.0856 336.471L32.8947 334.638V332.497H43.5036V334.233H38.6534C38.4045 334.233 38.1343 334.227 37.8423 334.217C37.5503 334.195 37.2583 334.173 36.9663 334.152C36.6635 334.13 36.3715 334.103 36.0903 334.071C35.7983 334.038 35.528 334.011 35.2793 333.989V334.054L37.7449 334.914L42.5141 336.65V337.769L37.7449 339.521L35.2793 340.365V340.429C35.528 340.408 35.7983 340.386 36.0903 340.365C36.3715 340.332 36.6635 340.305 36.9663 340.283C37.2583 340.251 37.5503 340.229 37.8423 340.219C38.1343 340.197 38.4045 340.186 38.6534 340.186H43.5036V341.889ZM43.6983 326.055C43.6983 326.553 43.6065 327.029 43.4225 327.483C43.2386 327.937 42.9683 328.342 42.6114 328.699C42.2546 329.046 41.8166 329.321 41.2975 329.527C40.7784 329.732 40.1889 329.835 39.5293 329.835C38.8698 329.835 38.2803 329.732 37.7612 329.527C37.2421 329.321 36.8041 329.046 36.4472 328.699C36.0903 328.342 35.82 327.937 35.6361 327.483C35.4415 327.029 35.3441 326.553 35.3441 326.055C35.3441 325.558 35.4415 325.082 35.6361 324.628C35.82 324.163 36.0903 323.757 36.4472 323.411C36.8041 323.065 37.2421 322.789 37.7612 322.584C38.2803 322.367 38.8698 322.259 39.5293 322.259C40.1889 322.259 40.7784 322.367 41.2975 322.584C41.8166 322.789 42.2546 323.065 42.6114 323.411C42.9683 323.757 43.2386 324.163 43.4225 324.628C43.6065 325.082 43.6983 325.558 43.6983 326.055ZM42.1735 326.055C42.1735 325.471 41.9357 325.012 41.4597 324.676C40.9731 324.341 40.3297 324.174 39.5293 324.174C38.7182 324.174 38.0749 324.341 37.599 324.676C37.1123 325.012 36.869 325.471 36.869 326.055C36.869 326.639 37.1123 327.099 37.599 327.434C38.0749 327.759 38.7182 327.921 39.5293 327.921C40.3297 327.921 40.9731 327.759 41.4597 327.434C41.9357 327.099 42.1735 326.639 42.1735 326.055ZM43.6983 316.438C43.6983 316.979 43.6065 317.488 43.4225 317.963C43.2386 318.428 42.9683 318.834 42.6114 319.18C42.2546 319.526 41.8166 319.796 41.2975 319.991C40.7784 320.186 40.1889 320.283 39.5293 320.283C38.8698 320.283 38.2803 320.175 37.7612 319.958C37.2421 319.742 36.8041 319.45 36.4472 319.083C36.0903 318.715 35.82 318.293 35.6361 317.817C35.4415 317.331 35.3441 316.823 35.3441 316.292C35.3441 315.773 35.4307 315.33 35.6037 314.962C35.7767 314.584 35.9876 314.248 36.2363 313.956L37.453 314.865C37.269 315.081 37.1285 315.298 37.0312 315.514C36.9232 315.719 36.869 315.947 36.869 316.195C36.869 316.844 37.1123 317.369 37.599 317.769C38.0749 318.169 38.7182 318.369 39.5293 318.369C40.3297 318.369 40.9731 318.174 41.4597 317.785C41.9357 317.385 42.1735 316.871 42.1735 316.244C42.1735 315.93 42.1086 315.638 41.9788 315.368C41.8383 315.087 41.6761 314.832 41.4921 314.605L42.725 313.843C43.0494 314.222 43.2927 314.638 43.455 315.092C43.6172 315.535 43.6983 315.984 43.6983 316.438ZM43.6983 309.85C43.6983 310.553 43.4874 311.121 43.0656 311.553C42.6332 311.986 42.0654 312.202 41.3624 312.202C40.9406 312.202 40.5675 312.116 40.2431 311.943C39.908 311.759 39.6211 311.478 39.3833 311.099C39.1455 310.71 38.9453 310.223 38.7831 309.639C38.6209 309.045 38.4967 308.336 38.41 307.514C38.2047 307.525 38.01 307.557 37.8261 307.612C37.6314 307.655 37.4636 307.736 37.3232 307.855C37.1717 307.963 37.0581 308.109 36.9825 308.293C36.8959 308.477 36.8528 308.704 36.8528 308.974C36.8528 309.364 36.9283 309.747 37.0799 310.126C37.2314 310.494 37.415 310.856 37.6314 311.213L36.3823 311.894C36.1011 311.451 35.8578 310.953 35.6524 310.402C35.4469 309.85 35.3441 309.256 35.3441 308.617C35.3441 307.622 35.6416 306.882 36.2363 306.395C36.8203 305.898 37.6694 305.649 38.7831 305.649H43.5036V307.19L42.6277 307.32V307.384C42.9303 307.741 43.1847 308.125 43.3901 308.536C43.5954 308.936 43.6983 309.374 43.6983 309.85ZM42.2383 309.25C42.2383 308.926 42.1628 308.634 42.0112 308.374C41.8597 308.104 41.6437 307.817 41.3624 307.514H39.578C39.6429 308.055 39.7295 308.509 39.8375 308.877C39.9456 309.244 40.0702 309.542 40.2106 309.769C40.3404 309.996 40.4919 310.158 40.6648 310.256C40.8378 310.353 41.0217 310.402 41.2164 310.402C41.5733 310.402 41.8328 310.294 41.995 310.077C42.1572 309.861 42.2383 309.585 42.2383 309.25ZM43.5036 302.767H35.5388V301.226L36.9501 301.096V301.032C36.431 300.751 36.0363 300.41 35.7659 300.01C35.4847 299.61 35.3441 299.198 35.3441 298.777C35.3441 298.398 35.3982 298.095 35.5064 297.868L37.1285 298.193C37.0854 298.334 37.0529 298.463 37.0312 298.582C37.0094 298.701 36.9988 298.847 36.9988 299.02C36.9988 299.334 37.123 299.664 37.3718 300.01C37.6096 300.356 38.0314 300.653 38.6371 300.902H43.5036V302.767ZM43.6983 293.435C43.6983 294.441 43.3359 295.241 42.6114 295.836C41.8759 296.42 40.8488 296.712 39.5293 296.712C38.8805 296.712 38.2965 296.62 37.7774 296.436C37.2583 296.242 36.8203 295.988 36.4634 295.674C36.1066 295.36 35.8308 295.003 35.6361 294.603C35.4415 294.192 35.3441 293.77 35.3441 293.338C35.3441 292.884 35.4253 292.5 35.5875 292.186C35.7389 291.873 35.9498 291.559 36.2201 291.245L34.9386 291.31H32.0511V289.445H43.5036V290.986L42.6439 291.116V291.181C42.9359 291.473 43.1847 291.813 43.3901 292.203C43.5954 292.592 43.6983 293.003 43.6983 293.435ZM42.1572 292.981C42.1572 292.386 41.8597 291.829 41.265 291.31H37.5503C37.3014 291.592 37.1285 291.867 37.0312 292.138C36.9339 292.397 36.8852 292.662 36.8852 292.932C36.8852 293.452 37.1123 293.89 37.5665 294.246C38.0207 294.603 38.6696 294.782 39.5131 294.782C40.3784 294.782 41.0379 294.63 41.4921 294.328C41.9357 294.014 42.1572 293.565 42.1572 292.981Z" fill="white"/>
<path d="M119.4 336.865C119.4 338.245 119.17 339.396 118.71 340.316C118.25 341.236 117.684 341.997 117.011 342.599L115.047 341.139C115.56 340.625 116.003 340.042 116.374 339.387C116.728 338.732 116.905 337.98 116.905 337.13C116.905 336.21 116.684 335.467 116.242 334.901C115.781 334.317 115.153 334.025 114.357 334.025C113.914 334.025 113.516 334.104 113.162 334.264C112.808 334.423 112.508 334.697 112.26 335.087C112.012 335.458 111.826 335.963 111.702 336.6C111.561 337.237 111.49 338.033 111.49 338.989H109.26C109.26 338.157 109.198 337.467 109.075 336.918C108.933 336.352 108.747 335.901 108.517 335.564C108.269 335.21 107.977 334.963 107.641 334.821C107.305 334.662 106.942 334.582 106.553 334.582C105.845 334.582 105.296 334.803 104.907 335.246C104.5 335.688 104.297 336.299 104.297 337.077C104.297 337.75 104.447 338.36 104.748 338.909C105.031 339.44 105.411 339.962 105.889 340.475L104.005 342.041C103.367 341.316 102.854 340.546 102.465 339.732C102.076 338.9 101.881 337.98 101.881 336.971C101.881 336.157 101.978 335.414 102.173 334.741C102.368 334.069 102.66 333.494 103.049 333.016C103.421 332.538 103.89 332.167 104.456 331.901C105.004 331.636 105.633 331.503 106.34 331.503C107.296 331.503 108.092 331.768 108.729 332.299C109.367 332.813 109.862 333.529 110.216 334.449H110.322C110.588 333.441 111.074 332.609 111.782 331.954C112.49 331.282 113.401 330.946 114.516 330.946C115.295 330.946 115.985 331.105 116.587 331.423C117.188 331.724 117.702 332.149 118.126 332.698C118.533 333.228 118.852 333.857 119.082 334.582C119.294 335.29 119.4 336.051 119.4 336.865ZM119.4 321.743C119.4 322.574 119.285 323.344 119.055 324.052C118.825 324.742 118.507 325.344 118.1 325.857C117.693 326.353 117.206 326.751 116.64 327.052C116.073 327.335 115.445 327.476 114.755 327.476C114.224 327.476 113.746 327.397 113.322 327.237C112.879 327.061 112.481 326.83 112.127 326.547C111.773 326.264 111.455 325.946 111.172 325.592C110.888 325.22 110.641 324.831 110.428 324.424H110.322C109.862 325.079 109.313 325.636 108.676 326.096C108.039 326.538 107.27 326.76 106.367 326.76C105.677 326.76 105.057 326.636 104.509 326.388C103.96 326.123 103.491 325.769 103.102 325.326C102.713 324.866 102.412 324.326 102.2 323.707C101.987 323.07 101.881 322.389 101.881 321.663C101.881 320.902 101.996 320.221 102.226 319.619C102.438 319 102.748 318.478 103.155 318.053C103.544 317.611 104.022 317.274 104.589 317.044C105.137 316.814 105.756 316.699 106.447 316.699C106.871 316.699 107.278 316.77 107.668 316.912C108.039 317.036 108.393 317.204 108.729 317.416C109.048 317.628 109.349 317.876 109.632 318.159C109.897 318.425 110.127 318.69 110.322 318.956H110.428C110.641 318.566 110.888 318.195 111.172 317.841C111.437 317.487 111.747 317.177 112.101 316.912C112.455 316.646 112.853 316.434 113.295 316.275C113.738 316.115 114.242 316.036 114.808 316.036C115.463 316.036 116.073 316.177 116.64 316.46C117.188 316.726 117.675 317.106 118.1 317.602C118.507 318.097 118.825 318.699 119.055 319.407C119.285 320.115 119.4 320.893 119.4 321.743ZM109.552 320.628C109.092 320.168 108.623 319.823 108.145 319.593C107.668 319.345 107.163 319.221 106.632 319.221C105.889 319.221 105.279 319.442 104.801 319.885C104.305 320.309 104.058 320.92 104.058 321.716C104.058 322.371 104.261 322.92 104.668 323.362C105.057 323.804 105.624 324.026 106.367 324.026C106.792 324.026 107.163 323.937 107.482 323.76C107.8 323.583 108.084 323.344 108.331 323.043C108.561 322.725 108.783 322.362 108.995 321.955C109.19 321.548 109.375 321.106 109.552 320.628ZM117.224 321.69C117.224 320.876 117.003 320.212 116.56 319.699C116.118 319.168 115.498 318.902 114.702 318.902C114.242 318.902 113.853 319.009 113.534 319.221C113.198 319.433 112.906 319.725 112.658 320.097C112.393 320.451 112.154 320.876 111.941 321.371C111.729 321.867 111.508 322.398 111.278 322.964C111.667 323.495 112.127 323.937 112.658 324.291C113.189 324.627 113.782 324.795 114.437 324.795C115.286 324.795 115.967 324.495 116.48 323.893C116.976 323.291 117.224 322.557 117.224 321.69ZM119.082 312.885H117.303C116.171 311.717 115.127 310.664 114.171 309.726C113.215 308.771 112.331 307.965 111.517 307.311C110.703 306.638 109.942 306.125 109.234 305.771C108.526 305.417 107.854 305.24 107.216 305.24C106.314 305.24 105.606 305.479 105.093 305.957C104.562 306.435 104.297 307.125 104.297 308.027C104.297 308.682 104.482 309.284 104.854 309.832C105.226 310.363 105.668 310.859 106.181 311.319L104.482 313.018C103.651 312.239 103.014 311.443 102.571 310.629C102.111 309.797 101.881 308.797 101.881 307.629C101.881 306.815 102.005 306.081 102.253 305.426C102.5 304.771 102.854 304.214 103.314 303.754C103.757 303.294 104.297 302.94 104.934 302.692C105.571 302.426 106.279 302.294 107.057 302.294C107.8 302.294 108.561 302.462 109.34 302.798C110.101 303.117 110.88 303.559 111.676 304.125C112.455 304.674 113.26 305.32 114.091 306.063C114.923 306.806 115.781 307.594 116.666 308.426C116.631 307.983 116.595 307.505 116.56 306.992C116.507 306.479 116.48 306.019 116.48 305.612V301.471H119.082V312.885ZM119.082 294.763C117.578 294.692 116.206 294.56 114.967 294.365C113.711 294.17 112.516 293.896 111.384 293.542C110.251 293.171 109.154 292.702 108.092 292.135C107.013 291.569 105.907 290.879 104.774 290.065V298.055H102.2V286.72H104.058C105.279 287.711 106.447 288.516 107.562 289.136C108.659 289.737 109.791 290.215 110.959 290.569C112.109 290.923 113.339 291.18 114.649 291.339C115.958 291.481 117.436 291.587 119.082 291.658V294.763ZM119.082 270.239H114.729V277.698H112.658L102.2 271.009V267.372H112.366V265.249H114.729V267.372H119.082V270.239ZM112.366 274.672V270.239H108.544C108.048 270.239 107.464 270.23 106.792 270.212C106.119 270.177 105.535 270.142 105.04 270.106V270.212C105.482 270.425 105.916 270.646 106.34 270.876C106.765 271.106 107.208 271.345 107.668 271.593L112.366 274.672ZM119.4 256.205C119.4 257.037 119.241 257.824 118.923 258.568C118.586 259.311 118.082 259.966 117.41 260.532C116.737 261.08 115.879 261.523 114.835 261.859C113.791 262.178 112.561 262.337 111.145 262.337C109.499 262.337 108.092 262.151 106.924 261.779C105.756 261.408 104.801 260.921 104.058 260.319C103.314 259.7 102.766 258.992 102.412 258.196C102.058 257.4 101.881 256.568 101.881 255.701C101.881 254.674 102.067 253.798 102.438 253.073C102.81 252.33 103.261 251.701 103.792 251.188L105.65 252.834C105.279 253.135 104.978 253.533 104.748 254.028C104.5 254.506 104.376 255.002 104.376 255.515C104.376 256.046 104.482 256.55 104.695 257.028C104.907 257.488 105.261 257.895 105.756 258.249C106.234 258.603 106.871 258.895 107.668 259.125C108.464 259.337 109.446 259.461 110.614 259.497C109.995 259.001 109.508 258.426 109.154 257.771C108.8 257.099 108.623 256.453 108.623 255.833C108.623 255.108 108.729 254.444 108.942 253.843C109.154 253.223 109.482 252.701 109.924 252.277C110.349 251.834 110.888 251.498 111.543 251.268C112.198 251.02 112.968 250.896 113.853 250.896C114.702 250.896 115.472 251.038 116.162 251.321C116.834 251.604 117.41 251.985 117.887 252.462C118.365 252.94 118.737 253.506 119.002 254.161C119.268 254.798 119.4 255.48 119.4 256.205ZM117.064 256.258C117.064 255.55 116.79 254.958 116.242 254.48C115.693 253.984 114.897 253.736 113.853 253.736C112.844 253.736 112.092 253.967 111.596 254.427C111.101 254.887 110.853 255.541 110.853 256.391C110.853 256.869 111.003 257.373 111.304 257.904C111.587 258.435 112.083 258.939 112.791 259.417C114.295 259.258 115.383 258.904 116.056 258.355C116.728 257.789 117.064 257.09 117.064 256.258ZM119.4 242.463C119.4 243.843 119.17 244.994 118.71 245.914C118.25 246.834 117.684 247.595 117.011 248.197L115.047 246.737C115.56 246.224 116.003 245.64 116.374 244.985C116.728 244.33 116.905 243.578 116.905 242.729C116.905 241.808 116.684 241.065 116.242 240.499C115.781 239.915 115.153 239.623 114.357 239.623C113.914 239.623 113.516 239.703 113.162 239.862C112.808 240.021 112.508 240.295 112.26 240.685C112.012 241.056 111.826 241.561 111.702 242.198C111.561 242.835 111.49 243.631 111.49 244.587H109.26C109.26 243.755 109.198 243.065 109.075 242.516C108.933 241.95 108.747 241.499 108.517 241.162C108.269 240.809 107.977 240.561 107.641 240.419C107.305 240.26 106.942 240.18 106.553 240.18C105.845 240.18 105.296 240.402 104.907 240.844C104.5 241.286 104.297 241.897 104.297 242.676C104.297 243.348 104.447 243.958 104.748 244.507C105.031 245.038 105.411 245.56 105.889 246.073L104.005 247.639C103.367 246.914 102.854 246.144 102.465 245.33C102.076 244.498 101.881 243.578 101.881 242.569C101.881 241.755 101.978 241.012 102.173 240.34C102.368 239.667 102.66 239.092 103.049 238.614C103.421 238.136 103.89 237.765 104.456 237.499C105.004 237.234 105.633 237.101 106.34 237.101C107.296 237.101 108.092 237.367 108.729 237.897C109.367 238.411 109.862 239.127 110.216 240.048H110.322C110.588 239.039 111.074 238.207 111.782 237.552C112.49 236.88 113.401 236.544 114.516 236.544C115.295 236.544 115.985 236.703 116.587 237.022C117.188 237.322 117.702 237.747 118.126 238.296C118.533 238.827 118.852 239.455 119.082 240.18C119.294 240.888 119.4 241.649 119.4 242.463ZM119.082 229.703C117.578 229.632 116.206 229.499 114.967 229.305C113.711 229.11 112.516 228.836 111.384 228.482C110.251 228.11 109.154 227.641 108.092 227.075C107.013 226.509 105.907 225.819 104.774 225.005V232.994H102.2V221.66H104.058C105.279 222.651 106.447 223.456 107.562 224.076C108.659 224.677 109.791 225.155 110.959 225.509C112.109 225.863 113.339 226.119 114.649 226.279C115.958 226.42 117.436 226.526 119.082 226.597V229.703ZM119.4 206.745C119.4 208.125 119.17 209.276 118.71 210.196C118.25 211.116 117.684 211.877 117.011 212.479L115.047 211.019C115.56 210.505 116.003 209.921 116.374 209.267C116.728 208.612 116.905 207.86 116.905 207.01C116.905 206.09 116.684 205.347 116.242 204.781C115.781 204.197 115.153 203.905 114.357 203.905C113.914 203.905 113.516 203.984 113.162 204.144C112.808 204.303 112.508 204.577 112.26 204.966C112.012 205.338 111.826 205.842 111.702 206.479C111.561 207.117 111.49 207.913 111.49 208.868H109.26C109.26 208.037 109.198 207.347 109.075 206.798C108.933 206.232 108.747 205.78 108.517 205.444C108.269 205.09 107.977 204.843 107.641 204.701C107.305 204.542 106.942 204.462 106.553 204.462C105.845 204.462 105.296 204.683 104.907 205.126C104.5 205.568 104.297 206.179 104.297 206.957C104.297 207.63 104.447 208.24 104.748 208.789C105.031 209.32 105.411 209.842 105.889 210.355L104.005 211.921C103.367 211.196 102.854 210.426 102.465 209.612C102.076 208.78 101.881 207.86 101.881 206.851C101.881 206.037 101.978 205.294 102.173 204.621C102.368 203.949 102.66 203.374 103.049 202.896C103.421 202.418 103.89 202.047 104.456 201.781C105.004 201.516 105.633 201.383 106.34 201.383C107.296 201.383 108.092 201.648 108.729 202.179C109.367 202.692 109.862 203.409 110.216 204.329H110.322C110.588 203.321 111.074 202.489 111.782 201.834C112.49 201.162 113.401 200.826 114.516 200.826C115.295 200.826 115.985 200.985 116.587 201.303C117.188 201.604 117.702 202.029 118.126 202.577C118.533 203.108 118.852 203.737 119.082 204.462C119.294 205.17 119.4 205.931 119.4 206.745ZM119.082 196.48H116.587V192.711H105.491V195.817H103.58C103.421 194.967 103.235 194.242 103.022 193.64C102.792 193.021 102.518 192.446 102.2 191.915V189.632H116.587V186.314H119.082V196.48ZM119.4 176.978C119.4 178.748 118.648 180.146 117.144 181.172C115.622 182.199 113.428 182.712 110.561 182.712C107.694 182.712 105.535 182.199 104.084 181.172C102.615 180.146 101.881 178.748 101.881 176.978C101.881 175.209 102.615 173.811 104.084 172.784C105.553 171.758 107.712 171.245 110.561 171.245C113.428 171.245 115.622 171.758 117.144 172.784C118.648 173.811 119.4 175.209 119.4 176.978ZM117.011 176.978C117.011 176.571 116.905 176.2 116.693 175.863C116.463 175.509 116.091 175.209 115.578 174.961C115.065 174.713 114.401 174.518 113.587 174.377C112.773 174.235 111.764 174.164 110.561 174.164C109.375 174.164 108.384 174.235 107.588 174.377C106.774 174.518 106.119 174.713 105.624 174.961C105.128 175.209 104.783 175.509 104.589 175.863C104.376 176.2 104.27 176.571 104.27 176.978C104.27 177.385 104.376 177.766 104.589 178.12C104.783 178.456 105.128 178.748 105.624 178.996C106.119 179.243 106.774 179.438 107.588 179.58C108.384 179.721 109.375 179.792 110.561 179.792C111.764 179.792 112.773 179.721 113.587 179.58C114.401 179.438 115.065 179.243 115.578 178.996C116.091 178.748 116.463 178.456 116.693 178.12C116.905 177.766 117.011 177.385 117.011 176.978ZM119.4 162.732C119.4 164.112 119.17 165.262 118.71 166.183C118.25 167.103 117.684 167.864 117.011 168.466L115.047 167.006C115.56 166.492 116.003 165.908 116.374 165.254C116.728 164.599 116.905 163.847 116.905 162.997C116.905 162.077 116.684 161.334 116.242 160.768C115.781 160.184 115.153 159.892 114.357 159.892C113.914 159.892 113.516 159.971 113.162 160.131C112.808 160.29 112.508 160.564 112.26 160.953C112.012 161.325 111.826 161.829 111.702 162.466C111.561 163.104 111.49 163.9 111.49 164.855H109.26C109.26 164.024 109.198 163.334 109.075 162.785C108.933 162.219 108.747 161.767 108.517 161.431C108.269 161.077 107.977 160.83 107.641 160.688C107.305 160.529 106.942 160.449 106.553 160.449C105.845 160.449 105.296 160.67 104.907 161.113C104.5 161.555 104.297 162.166 104.297 162.944C104.297 163.617 104.447 164.227 104.748 164.776C105.031 165.307 105.411 165.829 105.889 166.342L104.005 167.908C103.367 167.183 102.854 166.413 102.465 165.599C102.076 164.767 101.881 163.847 101.881 162.838C101.881 162.024 101.978 161.281 102.173 160.608C102.368 159.936 102.66 159.361 103.049 158.883C103.421 158.405 103.89 158.034 104.456 157.768C105.004 157.503 105.633 157.37 106.34 157.37C107.296 157.37 108.092 157.635 108.729 158.166C109.367 158.679 109.862 159.396 110.216 160.316H110.322C110.588 159.308 111.074 158.476 111.782 157.821C112.49 157.149 113.401 156.812 114.516 156.812C115.295 156.812 115.985 156.972 116.587 157.29C117.188 157.591 117.702 158.016 118.126 158.564C118.533 159.095 118.852 159.724 119.082 160.449C119.294 161.157 119.4 161.918 119.4 162.732ZM119.082 143.596C117.578 143.525 116.206 143.393 114.967 143.198C113.711 143.003 112.516 142.729 111.384 142.375C110.251 142.004 109.154 141.535 108.092 140.968C107.013 140.402 105.907 139.712 104.774 138.898V146.888H102.2V135.553H104.058C105.279 136.544 106.447 137.349 107.562 137.969C108.659 138.571 109.791 139.048 110.959 139.402C112.109 139.756 113.339 140.013 114.649 140.172C115.958 140.314 117.436 140.42 119.082 140.491V143.596ZM119.4 127.014C119.4 128.394 119.17 129.545 118.71 130.465C118.25 131.385 117.684 132.146 117.011 132.748L115.047 131.288C115.56 130.775 116.003 130.191 116.374 129.536C116.728 128.881 116.905 128.129 116.905 127.28C116.905 126.359 116.684 125.616 116.242 125.05C115.781 124.466 115.153 124.174 114.357 124.174C113.914 124.174 113.516 124.253 113.162 124.413C112.808 124.572 112.508 124.846 112.26 125.236C112.012 125.607 111.826 126.112 111.702 126.749C111.561 127.386 111.49 128.182 111.49 129.138H109.26C109.26 128.306 109.198 127.616 109.075 127.067C108.933 126.501 108.747 126.05 108.517 125.713C108.269 125.359 107.977 125.112 107.641 124.97C107.305 124.811 106.942 124.731 106.553 124.731C105.845 124.731 105.296 124.952 104.907 125.395C104.5 125.837 104.297 126.448 104.297 127.226C104.297 127.899 104.447 128.509 104.748 129.058C105.031 129.589 105.411 130.111 105.889 130.624L104.005 132.19C103.367 131.465 102.854 130.695 102.465 129.881C102.076 129.049 101.881 128.129 101.881 127.12C101.881 126.306 101.978 125.563 102.173 124.891C102.368 124.218 102.66 123.643 103.049 123.165C103.421 122.687 103.89 122.316 104.456 122.05C105.004 121.785 105.633 121.652 106.34 121.652C107.296 121.652 108.092 121.918 108.729 122.448C109.367 122.962 109.862 123.678 110.216 124.599H110.322C110.588 123.59 111.074 122.758 111.782 122.103C112.49 121.431 113.401 121.095 114.516 121.095C115.295 121.095 115.985 121.254 116.587 121.572C117.188 121.873 117.702 122.298 118.126 122.847C118.533 123.377 118.852 124.006 119.082 124.731C119.294 125.439 119.4 126.2 119.4 127.014ZM119.4 111.892C119.4 112.724 119.285 113.493 119.055 114.201C118.825 114.891 118.507 115.493 118.1 116.006C117.693 116.502 117.206 116.9 116.64 117.201C116.073 117.484 115.445 117.625 114.755 117.625C114.224 117.625 113.746 117.546 113.322 117.387C112.879 117.21 112.481 116.979 112.127 116.696C111.773 116.413 111.455 116.095 111.172 115.741C110.888 115.369 110.641 114.98 110.428 114.573H110.322C109.862 115.228 109.313 115.785 108.676 116.245C108.039 116.688 107.27 116.909 106.367 116.909C105.677 116.909 105.057 116.785 104.509 116.537C103.96 116.272 103.491 115.918 103.102 115.475C102.713 115.015 102.412 114.475 102.2 113.856C101.987 113.219 101.881 112.538 101.881 111.812C101.881 111.051 101.996 110.37 102.226 109.768C102.438 109.149 102.748 108.627 103.155 108.202C103.544 107.76 104.022 107.423 104.589 107.193C105.137 106.963 105.756 106.848 106.447 106.848C106.871 106.848 107.278 106.919 107.668 107.061C108.039 107.185 108.393 107.353 108.729 107.565C109.048 107.777 109.349 108.025 109.632 108.308C109.897 108.574 110.127 108.839 110.322 109.105H110.428C110.641 108.715 110.888 108.344 111.172 107.99C111.437 107.636 111.747 107.326 112.101 107.061C112.455 106.795 112.853 106.583 113.295 106.424C113.738 106.264 114.242 106.185 114.808 106.185C115.463 106.185 116.073 106.326 116.64 106.609C117.188 106.875 117.675 107.255 118.1 107.751C118.507 108.246 118.825 108.848 119.055 109.556C119.285 110.264 119.4 111.042 119.4 111.892ZM109.552 110.777C109.092 110.317 108.623 109.972 108.145 109.742C107.668 109.494 107.163 109.37 106.632 109.37C105.889 109.37 105.279 109.591 104.801 110.034C104.305 110.458 104.058 111.069 104.058 111.865C104.058 112.52 104.261 113.069 104.668 113.511C105.057 113.953 105.624 114.175 106.367 114.175C106.792 114.175 107.163 114.086 107.482 113.909C107.8 113.732 108.084 113.493 108.331 113.193C108.561 112.874 108.783 112.511 108.995 112.104C109.19 111.697 109.375 111.255 109.552 110.777ZM117.224 111.839C117.224 111.025 117.003 110.361 116.56 109.848C116.118 109.317 115.498 109.052 114.702 109.052C114.242 109.052 113.853 109.158 113.534 109.37C113.198 109.582 112.906 109.874 112.658 110.246C112.393 110.6 112.154 111.025 111.941 111.52C111.729 112.016 111.508 112.547 111.278 113.113C111.667 113.644 112.127 114.086 112.658 114.44C113.189 114.776 113.782 114.944 114.437 114.944C115.286 114.944 115.967 114.644 116.48 114.042C116.976 113.44 117.224 112.706 117.224 111.839ZM110.428 97.5659C110.428 97.0704 110.278 96.5572 109.977 96.0263C109.659 95.4777 109.154 94.9822 108.464 94.5398C106.978 94.6991 105.898 95.0707 105.226 95.6547C104.553 96.2209 104.217 96.9111 104.217 97.7251C104.217 98.4153 104.491 99.0081 105.04 99.5036C105.588 99.9991 106.376 100.247 107.402 100.247C108.411 100.247 109.172 100.017 109.685 99.5567C110.181 99.0789 110.428 98.4153 110.428 97.5659ZM119.4 98.2826C119.4 99.2913 119.215 100.167 118.843 100.91C118.471 101.654 118.02 102.282 117.489 102.795L115.631 101.149C116.003 100.831 116.312 100.433 116.56 99.9549C116.79 99.4594 116.905 98.9551 116.905 98.4419C116.905 97.911 116.799 97.4154 116.587 96.9553C116.374 96.4775 116.029 96.0617 115.551 95.7078C115.056 95.3539 114.41 95.0707 113.614 94.8583C112.817 94.6283 111.835 94.4956 110.667 94.4602C111.287 94.9557 111.773 95.5396 112.127 96.2121C112.463 96.8846 112.632 97.5305 112.632 98.1499C112.632 98.8754 112.525 99.539 112.313 100.141C112.101 100.742 111.782 101.264 111.357 101.707C110.915 102.132 110.366 102.468 109.712 102.715C109.057 102.946 108.287 103.061 107.402 103.061C106.553 103.061 105.792 102.919 105.119 102.636C104.429 102.353 103.845 101.972 103.367 101.494C102.89 101.017 102.527 100.459 102.279 99.8221C102.014 99.1674 101.881 98.4772 101.881 97.7517C101.881 96.9377 102.049 96.159 102.385 95.4158C102.704 94.6725 103.199 94.0266 103.872 93.478C104.544 92.9118 105.403 92.4693 106.447 92.1508C107.473 91.8145 108.694 91.6465 110.11 91.6465C111.756 91.6465 113.162 91.8323 114.33 92.2039C115.498 92.5578 116.463 93.0444 117.224 93.6638C117.967 94.2655 118.516 94.9734 118.869 95.7874C119.223 96.5837 119.4 97.4155 119.4 98.2826Z" fill="white"/>
<path d="M181.125 340.245C181.125 340.611 181.057 340.947 180.921 341.254C180.786 341.56 180.591 341.829 180.337 342.059C180.078 342.283 179.762 342.46 179.391 342.59C179.013 342.714 178.588 342.776 178.117 342.776C177.651 342.776 177.232 342.711 176.86 342.581C176.489 342.451 176.173 342.271 175.913 342.041C175.654 341.811 175.456 341.54 175.321 341.227C175.179 340.915 175.108 340.572 175.108 340.201C175.108 339.847 175.182 339.537 175.329 339.272C175.471 339 175.636 338.779 175.825 338.608L176.303 339.006C176.138 339.16 176.005 339.334 175.905 339.528C175.804 339.723 175.754 339.944 175.754 340.192C175.754 340.469 175.81 340.72 175.922 340.944C176.028 341.168 176.185 341.36 176.391 341.519C176.592 341.678 176.837 341.802 177.126 341.891C177.415 341.973 177.739 342.015 178.099 342.015C178.465 342.015 178.795 341.973 179.09 341.891C179.379 341.802 179.627 341.681 179.833 341.528C180.04 341.375 180.199 341.189 180.311 340.971C180.423 340.746 180.479 340.496 180.479 340.219C180.479 339.935 180.423 339.688 180.311 339.475C180.193 339.263 180.031 339.062 179.824 338.874L180.284 338.467C180.55 338.697 180.756 338.956 180.904 339.245C181.051 339.534 181.125 339.868 181.125 340.245ZM181.125 336.11C181.125 336.47 181.019 336.771 180.806 337.013C180.594 337.249 180.293 337.367 179.904 337.367C179.432 337.367 179.072 337.157 178.824 336.739C178.571 336.32 178.394 335.65 178.294 334.73C178.158 334.73 178.025 334.745 177.895 334.774C177.766 334.798 177.651 334.842 177.55 334.907C177.45 334.972 177.37 335.063 177.311 335.181C177.247 335.293 177.214 335.438 177.214 335.615C177.214 335.863 177.261 336.096 177.356 336.314C177.45 336.532 177.556 336.727 177.674 336.898L177.17 337.181C177.04 336.98 176.916 336.736 176.798 336.447C176.674 336.158 176.612 335.839 176.612 335.491C176.612 334.966 176.775 334.586 177.099 334.35C177.418 334.114 177.845 333.996 178.382 333.996H181.019V334.597L180.506 334.659V334.686C180.677 334.892 180.824 335.113 180.948 335.349C181.066 335.585 181.125 335.839 181.125 336.11ZM180.541 335.898C180.541 335.692 180.494 335.497 180.399 335.314C180.299 335.131 180.155 334.937 179.966 334.73H178.771C178.819 335.09 178.875 335.394 178.939 335.641C179.004 335.883 179.081 336.081 179.17 336.234C179.258 336.382 179.361 336.491 179.479 336.562C179.591 336.627 179.715 336.659 179.851 336.659C180.099 336.659 180.276 336.585 180.382 336.438C180.488 336.29 180.541 336.11 180.541 335.898ZM181.019 332.289H176.719V331.687L177.497 331.625V331.599C177.226 331.451 177.011 331.274 176.851 331.068C176.692 330.855 176.612 330.625 176.612 330.378C176.612 330.206 176.642 330.053 176.701 329.917L177.338 330.059C177.314 330.13 177.297 330.195 177.285 330.254C177.273 330.313 177.267 330.386 177.267 330.475C177.267 330.658 177.341 330.849 177.488 331.05C177.636 331.245 177.892 331.416 178.258 331.563H181.019V332.289ZM181.125 327.485C181.125 328.028 180.93 328.461 180.541 328.786C180.152 329.104 179.597 329.263 178.878 329.263C178.529 329.263 178.217 329.213 177.94 329.113C177.656 329.007 177.418 328.868 177.223 328.697C177.028 328.526 176.878 328.328 176.772 328.104C176.665 327.88 176.612 327.644 176.612 327.396C176.612 327.149 176.657 326.933 176.745 326.75C176.834 326.568 176.955 326.382 177.108 326.193L176.373 326.228H174.719V325.494H181.019V326.096L180.514 326.158V326.184C180.68 326.355 180.824 326.553 180.948 326.777C181.066 326.995 181.125 327.231 181.125 327.485ZM180.514 327.326C180.514 327.125 180.467 326.936 180.373 326.759C180.273 326.582 180.122 326.405 179.922 326.228H177.674C177.509 326.411 177.394 326.588 177.329 326.759C177.258 326.925 177.223 327.096 177.223 327.273C177.223 327.444 177.264 327.606 177.347 327.759C177.423 327.907 177.536 328.036 177.683 328.149C177.825 328.261 177.996 328.349 178.196 328.414C178.397 328.479 178.621 328.511 178.869 328.511C179.388 328.511 179.792 328.408 180.081 328.202C180.37 327.995 180.514 327.703 180.514 327.326ZM181.019 321.496H175.214V320.761H177.648V318.063H175.214V317.319H181.019V318.063H178.285V320.761H181.019V321.496ZM181.125 313.768C181.125 314.034 181.075 314.287 180.975 314.529C180.874 314.765 180.73 314.975 180.541 315.158C180.346 315.34 180.11 315.488 179.833 315.6C179.55 315.706 179.231 315.759 178.878 315.759C178.518 315.759 178.199 315.706 177.922 315.6C177.639 315.488 177.4 315.34 177.205 315.158C177.011 314.975 176.863 314.765 176.763 314.529C176.663 314.287 176.612 314.034 176.612 313.768C176.612 313.503 176.663 313.252 176.763 313.016C176.863 312.774 177.011 312.562 177.205 312.379C177.4 312.196 177.639 312.052 177.922 311.946C178.199 311.834 178.518 311.778 178.878 311.778C179.231 311.778 179.55 311.834 179.833 311.946C180.11 312.052 180.346 312.196 180.541 312.379C180.73 312.562 180.874 312.774 180.975 313.016C181.075 313.252 181.125 313.503 181.125 313.768ZM180.523 313.768C180.523 313.586 180.485 313.417 180.408 313.264C180.326 313.111 180.214 312.981 180.072 312.875C179.925 312.763 179.751 312.677 179.55 312.618C179.349 312.559 179.125 312.53 178.878 312.53C178.63 312.53 178.406 312.559 178.205 312.618C177.999 312.677 177.822 312.763 177.674 312.875C177.527 312.981 177.415 313.111 177.338 313.264C177.255 313.417 177.214 313.586 177.214 313.768C177.214 313.951 177.255 314.119 177.338 314.273C177.415 314.426 177.527 314.559 177.674 314.671C177.822 314.777 177.999 314.86 178.205 314.919C178.406 314.978 178.63 315.007 178.878 315.007C179.125 315.007 179.349 314.978 179.55 314.919C179.751 314.86 179.925 314.777 180.072 314.671C180.214 314.559 180.326 314.426 180.408 314.273C180.485 314.119 180.523 313.951 180.523 313.768ZM181.125 309.521C181.125 309.799 181.042 309.996 180.877 310.114C180.712 310.232 180.47 310.291 180.152 310.291H174.719V309.566H180.205C180.323 309.566 180.405 309.545 180.452 309.504C180.5 309.462 180.523 309.415 180.523 309.362C180.523 309.338 180.523 309.318 180.523 309.3C180.523 309.276 180.517 309.244 180.506 309.203L181.054 309.105C181.078 309.153 181.095 309.209 181.107 309.274C181.119 309.338 181.125 309.421 181.125 309.521ZM181.125 306.213C181.125 306.756 180.93 307.189 180.541 307.514C180.152 307.832 179.597 307.992 178.878 307.992C178.529 307.992 178.217 307.941 177.94 307.841C177.656 307.735 177.418 307.596 177.223 307.425C177.028 307.254 176.878 307.057 176.772 306.833C176.665 306.608 176.612 306.372 176.612 306.125C176.612 305.877 176.657 305.662 176.745 305.479C176.834 305.296 176.955 305.11 177.108 304.921L176.373 304.957H174.719V304.222H181.019V304.824L180.514 304.886V304.912C180.68 305.084 180.824 305.281 180.948 305.505C181.066 305.724 181.125 305.96 181.125 306.213ZM180.514 306.054C180.514 305.853 180.467 305.665 180.373 305.488C180.273 305.311 180.122 305.134 179.922 304.957H177.674C177.509 305.14 177.394 305.317 177.329 305.488C177.258 305.653 177.223 305.824 177.223 306.001C177.223 306.172 177.264 306.334 177.347 306.487C177.423 306.635 177.536 306.765 177.683 306.877C177.825 306.989 177.996 307.077 178.196 307.142C178.397 307.207 178.621 307.24 178.869 307.24C179.388 307.24 179.792 307.136 180.081 306.93C180.37 306.723 180.514 306.431 180.514 306.054ZM181.125 300.677C181.125 300.966 181.075 301.237 180.975 301.491C180.868 301.739 180.721 301.957 180.532 302.146C180.337 302.328 180.102 302.473 179.824 302.579C179.547 302.685 179.231 302.738 178.878 302.738C178.524 302.738 178.208 302.685 177.931 302.579C177.648 302.467 177.409 302.323 177.214 302.146C177.019 301.963 176.872 301.756 176.772 301.526C176.665 301.296 176.612 301.057 176.612 300.809C176.612 300.538 176.66 300.296 176.754 300.084C176.848 299.866 176.984 299.686 177.161 299.544C177.338 299.397 177.55 299.285 177.798 299.208C178.046 299.131 178.323 299.093 178.63 299.093C178.706 299.093 178.783 299.096 178.86 299.102C178.931 299.102 178.993 299.108 179.046 299.119V302.022C179.506 301.992 179.871 301.851 180.143 301.597C180.408 301.337 180.541 301.001 180.541 300.588C180.541 300.382 180.511 300.193 180.452 300.022C180.388 299.845 180.305 299.677 180.205 299.518L180.683 299.261C180.801 299.45 180.904 299.659 180.992 299.889C181.081 300.119 181.125 300.382 181.125 300.677ZM178.524 302.031V299.73C178.087 299.73 177.757 299.824 177.533 300.013C177.303 300.196 177.188 300.456 177.188 300.792C177.188 300.945 177.217 301.093 177.276 301.234C177.335 301.37 177.423 301.494 177.541 301.606C177.654 301.718 177.792 301.812 177.957 301.889C178.122 301.96 178.311 302.007 178.524 302.031ZM181.019 297.677H176.719V297.075L177.497 297.013V296.986C177.226 296.839 177.011 296.662 176.851 296.455C176.692 296.243 176.612 296.013 176.612 295.765C176.612 295.594 176.642 295.441 176.701 295.305L177.338 295.447C177.314 295.518 177.297 295.582 177.285 295.641C177.273 295.7 177.267 295.774 177.267 295.863C177.267 296.045 177.341 296.237 177.488 296.438C177.636 296.632 177.892 296.803 178.258 296.951H181.019V297.677ZM181.019 292.13H176.719V291.528L177.338 291.466V291.44C177.131 291.233 176.96 291.018 176.825 290.794C176.683 290.564 176.612 290.298 176.612 289.997C176.612 289.543 176.754 289.213 177.037 289.006C177.32 288.794 177.739 288.688 178.294 288.688H181.019V289.413H178.391C177.984 289.413 177.692 289.478 177.515 289.608C177.332 289.738 177.241 289.944 177.241 290.227C177.241 290.452 177.297 290.649 177.409 290.82C177.521 290.991 177.686 291.186 177.904 291.404H181.019V292.13ZM181.125 285.946C181.125 286.306 181.019 286.607 180.806 286.849C180.594 287.085 180.293 287.202 179.904 287.202C179.432 287.202 179.072 286.993 178.824 286.574C178.571 286.155 178.394 285.486 178.294 284.566C178.158 284.566 178.025 284.58 177.895 284.61C177.766 284.634 177.651 284.678 177.55 284.743C177.45 284.808 177.37 284.899 177.311 285.017C177.247 285.129 177.214 285.274 177.214 285.451C177.214 285.698 177.261 285.931 177.356 286.15C177.45 286.368 177.556 286.562 177.674 286.734L177.17 287.017C177.04 286.816 176.916 286.571 176.798 286.282C176.674 285.993 176.612 285.675 176.612 285.327C176.612 284.802 176.775 284.421 177.099 284.185C177.418 283.949 177.845 283.831 178.382 283.831H181.019V284.433L180.506 284.495V284.521C180.677 284.728 180.824 284.949 180.948 285.185C181.066 285.421 181.125 285.675 181.125 285.946ZM180.541 285.734C180.541 285.527 180.494 285.333 180.399 285.15C180.299 284.967 180.155 284.772 179.966 284.566H178.771C178.819 284.926 178.875 285.229 178.939 285.477C179.004 285.719 179.081 285.917 179.17 286.07C179.258 286.217 179.361 286.327 179.479 286.397C179.591 286.462 179.715 286.495 179.851 286.495C180.099 286.495 180.276 286.421 180.382 286.273C180.488 286.126 180.541 285.946 180.541 285.734ZM181.019 282.124H176.719V281.523L177.338 281.461V281.434C177.131 281.245 176.96 281.042 176.825 280.824C176.683 280.6 176.612 280.358 176.612 280.098C176.612 279.768 176.686 279.511 176.834 279.328C176.975 279.14 177.176 279.001 177.435 278.912C177.188 278.688 176.99 278.464 176.842 278.24C176.689 278.01 176.612 277.762 176.612 277.497C176.612 277.054 176.754 276.727 177.037 276.515C177.32 276.296 177.739 276.187 178.294 276.187H181.019V276.913H178.391C177.984 276.913 177.692 276.978 177.515 277.107C177.332 277.237 177.241 277.438 177.241 277.709C177.241 278.034 177.462 278.393 177.904 278.789H181.019V279.514H178.391C177.984 279.514 177.692 279.579 177.515 279.709C177.332 279.839 177.241 280.042 177.241 280.319C177.241 280.644 177.462 281.004 177.904 281.399H181.019V282.124ZM181.125 272.691C181.125 272.981 181.075 273.252 180.975 273.506C180.868 273.753 180.721 273.972 180.532 274.16C180.337 274.343 180.102 274.488 179.824 274.594C179.547 274.7 179.231 274.753 178.878 274.753C178.524 274.753 178.208 274.7 177.931 274.594C177.648 274.482 177.409 274.337 177.214 274.16C177.019 273.977 176.872 273.771 176.772 273.541C176.665 273.311 176.612 273.072 176.612 272.824C176.612 272.553 176.66 272.311 176.754 272.099C176.848 271.88 176.984 271.7 177.161 271.559C177.338 271.411 177.55 271.299 177.798 271.223C178.046 271.146 178.323 271.108 178.63 271.108C178.706 271.108 178.783 271.111 178.86 271.117C178.931 271.117 178.993 271.122 179.046 271.134V274.036C179.506 274.007 179.871 273.865 180.143 273.612C180.408 273.352 180.541 273.016 180.541 272.603C180.541 272.397 180.511 272.208 180.452 272.037C180.388 271.86 180.305 271.692 180.205 271.532L180.683 271.276C180.801 271.465 180.904 271.674 180.992 271.904C181.081 272.134 181.125 272.397 181.125 272.691ZM178.524 274.045V271.745C178.087 271.745 177.757 271.839 177.533 272.028C177.303 272.211 177.188 272.47 177.188 272.807C177.188 272.96 177.217 273.107 177.276 273.249C177.335 273.385 177.423 273.508 177.541 273.621C177.654 273.733 177.792 273.827 177.957 273.904C178.122 273.974 178.311 274.022 178.524 274.045Z" fill="white"/>
<path d="M203.508 342.011H193.863V339.431C193.863 337.956 194.261 336.806 195.058 335.98C195.854 335.154 197.049 334.741 198.641 334.741C199.438 334.741 200.141 334.849 200.75 335.066C201.359 335.272 201.871 335.577 202.284 335.98C202.687 336.373 202.992 336.855 203.198 337.425C203.405 337.986 203.508 338.625 203.508 339.342V342.011ZM202.122 340.301V339.549C202.122 338.566 201.841 337.813 201.281 337.292C200.711 336.762 199.831 336.496 198.641 336.496C197.461 336.496 196.601 336.762 196.061 337.292C195.52 337.823 195.249 338.575 195.249 339.549V340.301H202.122ZM203.685 330.597C203.685 331.236 203.493 331.752 203.11 332.146C202.716 332.539 202.2 332.736 201.561 332.736C201.178 332.736 200.839 332.657 200.544 332.5C200.239 332.333 199.978 332.077 199.762 331.733C199.546 331.379 199.364 330.937 199.216 330.406C199.069 329.865 198.956 329.221 198.877 328.474C198.69 328.484 198.513 328.513 198.346 328.562C198.169 328.602 198.017 328.675 197.889 328.783C197.752 328.882 197.648 329.015 197.579 329.182C197.501 329.349 197.461 329.555 197.461 329.801C197.461 330.155 197.53 330.504 197.668 330.848C197.805 331.182 197.973 331.512 198.169 331.836L197.034 332.455C196.778 332.052 196.557 331.6 196.37 331.099C196.183 330.597 196.09 330.056 196.09 329.477C196.09 328.572 196.36 327.899 196.901 327.456C197.432 327.004 198.204 326.778 199.216 326.778H203.508V328.179L202.711 328.297V328.356C202.987 328.68 203.218 329.029 203.404 329.403C203.591 329.767 203.685 330.165 203.685 330.597ZM202.357 330.052C202.357 329.757 202.289 329.491 202.151 329.255C202.014 329.009 201.817 328.749 201.561 328.474H199.939C199.998 328.965 200.076 329.378 200.175 329.713C200.273 330.047 200.386 330.317 200.514 330.524C200.632 330.73 200.77 330.878 200.927 330.966C201.084 331.054 201.251 331.099 201.428 331.099C201.753 331.099 201.989 331 202.136 330.804C202.284 330.607 202.357 330.357 202.357 330.052ZM203.508 324.158H196.267V322.757L197.24 322.64V322.581C196.926 322.256 196.655 321.907 196.429 321.533C196.203 321.15 196.09 320.708 196.09 320.206C196.09 319.429 196.341 318.864 196.842 318.51C197.334 318.156 198.041 317.979 198.966 317.979H203.508V319.675H199.187C198.587 319.675 198.165 319.764 197.919 319.941C197.673 320.118 197.55 320.408 197.55 320.811C197.55 321.125 197.628 321.406 197.786 321.651C197.933 321.887 198.155 322.158 198.45 322.463H203.508V324.158ZM203.508 315.317H196.267V313.621H203.508V315.317ZM194.999 314.461C194.999 314.766 194.91 315.017 194.733 315.213C194.556 315.41 194.325 315.508 194.04 315.508C193.755 315.508 193.524 315.41 193.347 315.213C193.16 315.017 193.067 314.766 193.067 314.461C193.067 314.157 193.16 313.906 193.347 313.709C193.524 313.513 193.755 313.414 194.04 313.414C194.325 313.414 194.556 313.513 194.733 313.709C194.91 313.906 194.999 314.157 194.999 314.461ZM203.685 307.77C203.685 308.272 203.601 308.739 203.434 309.171C203.257 309.604 203.006 309.982 202.682 310.307C202.357 310.631 201.964 310.887 201.502 311.073C201.03 311.25 200.495 311.339 199.895 311.339C199.305 311.339 198.774 311.246 198.302 311.059C197.83 310.872 197.432 310.626 197.108 310.321C196.783 310.007 196.532 309.648 196.355 309.245C196.178 308.842 196.09 308.429 196.09 308.006C196.09 307.515 196.174 307.082 196.341 306.708C196.508 306.335 196.744 306.025 197.049 305.779C197.353 305.524 197.717 305.332 198.14 305.204C198.563 305.077 199.025 305.012 199.526 305.012C199.693 305.012 199.85 305.022 199.998 305.042C200.145 305.052 200.263 305.067 200.352 305.086V309.687C201.001 309.609 201.502 309.383 201.856 309.009C202.2 308.625 202.372 308.139 202.372 307.549C202.372 307.234 202.328 306.944 202.24 306.679C202.141 306.404 202.008 306.133 201.841 305.868L202.903 305.293C203.129 305.637 203.316 306.02 203.463 306.443C203.611 306.866 203.685 307.308 203.685 307.77ZM199.202 309.702V306.487C198.641 306.487 198.204 306.61 197.889 306.856C197.565 307.092 197.403 307.46 197.403 307.962C197.403 308.395 197.555 308.773 197.86 309.097C198.165 309.422 198.612 309.623 199.202 309.702ZM203.685 301.151C203.685 301.761 203.503 302.188 203.139 302.434C202.775 302.68 202.279 302.803 201.65 302.803H193.096V301.107H201.738C201.945 301.107 202.092 301.068 202.181 300.989C202.259 300.911 202.298 300.827 202.298 300.738C202.298 300.699 202.298 300.665 202.298 300.635C202.298 300.596 202.289 300.542 202.269 300.473L203.537 300.252C203.636 300.478 203.685 300.778 203.685 301.151ZM198.376 292.544L199.556 292.883V290.42L198.376 290.76C197.864 290.917 197.339 291.069 196.798 291.217C196.257 291.354 195.721 291.492 195.19 291.63V291.689C195.731 291.826 196.272 291.964 196.813 292.102C197.344 292.239 197.864 292.387 198.376 292.544ZM203.508 295.774L193.863 292.632V290.627L203.508 287.486V289.285L200.898 290.037V293.281L203.508 294.033V295.774ZM203.685 283.759C203.685 284.536 203.439 285.101 202.947 285.455C202.446 285.809 201.733 285.986 200.809 285.986H196.267V284.29H200.588C201.188 284.29 201.61 284.201 201.856 284.024C202.102 283.847 202.225 283.562 202.225 283.169C202.225 282.854 202.146 282.579 201.989 282.343C201.831 282.098 201.576 281.837 201.222 281.562H196.267V279.866H203.508V281.252L202.446 281.385V281.429C202.819 281.744 203.12 282.088 203.346 282.461C203.572 282.825 203.685 283.257 203.685 283.759ZM203.685 275.108C203.685 275.609 203.591 276.105 203.404 276.597C203.208 277.078 202.967 277.497 202.682 277.85L201.591 277.054C201.846 276.73 202.048 276.41 202.195 276.096C202.333 275.771 202.402 275.422 202.402 275.049C202.402 274.655 202.323 274.365 202.166 274.178C201.999 273.992 201.787 273.898 201.532 273.898C201.384 273.898 201.256 273.942 201.148 274.031C201.03 274.119 200.927 274.237 200.839 274.385C200.75 274.532 200.672 274.699 200.603 274.886C200.524 275.073 200.445 275.26 200.367 275.447C200.278 275.683 200.175 275.923 200.057 276.169C199.939 276.415 199.796 276.636 199.629 276.833C199.462 277.019 199.271 277.177 199.054 277.305C198.828 277.423 198.563 277.482 198.258 277.482C197.619 277.482 197.098 277.246 196.695 276.774C196.292 276.302 196.09 275.658 196.09 274.842C196.09 274.341 196.178 273.888 196.355 273.485C196.532 273.082 196.734 272.733 196.96 272.438L197.992 273.22C197.805 273.475 197.658 273.736 197.55 274.001C197.432 274.257 197.373 274.527 197.373 274.813C197.373 275.176 197.452 275.447 197.609 275.624C197.756 275.791 197.943 275.874 198.169 275.874C198.317 275.874 198.445 275.835 198.553 275.756C198.651 275.668 198.74 275.555 198.818 275.417C198.897 275.279 198.97 275.122 199.039 274.945C199.108 274.758 199.177 274.567 199.246 274.37C199.334 274.124 199.438 273.878 199.556 273.633C199.664 273.387 199.801 273.166 199.968 272.969C200.135 272.763 200.342 272.601 200.588 272.483C200.824 272.355 201.109 272.291 201.443 272.291C201.758 272.291 202.053 272.355 202.328 272.483C202.593 272.601 202.829 272.777 203.036 273.013C203.232 273.249 203.39 273.544 203.508 273.898C203.626 274.252 203.685 274.655 203.685 275.108ZM203.685 267.924C203.685 268.346 203.621 268.705 203.493 269C203.365 269.285 203.188 269.521 202.962 269.708C202.726 269.885 202.451 270.018 202.136 270.106C201.812 270.185 201.453 270.224 201.06 270.224H197.609V271.256H196.341L196.267 270.136L194.291 269.929V268.513H196.267V266.67H197.609V268.513H201.06C201.905 268.513 202.328 268.174 202.328 267.496C202.328 267.368 202.313 267.24 202.284 267.112C202.254 266.975 202.215 266.852 202.166 266.744L203.419 266.449C203.488 266.646 203.547 266.872 203.596 267.127C203.655 267.373 203.685 267.639 203.685 267.924ZM203.508 264.556H196.267V262.861H203.508V264.556ZM194.999 263.701C194.999 264.006 194.91 264.257 194.733 264.453C194.556 264.65 194.325 264.748 194.04 264.748C193.755 264.748 193.524 264.65 193.347 264.453C193.16 264.257 193.067 264.006 193.067 263.701C193.067 263.397 193.16 263.146 193.347 262.949C193.524 262.753 193.755 262.654 194.04 262.654C194.325 262.654 194.556 262.753 194.733 262.949C194.91 263.146 194.999 263.397 194.999 263.701ZM203.508 260.107H196.267V258.706L197.24 258.588V258.529C196.926 258.205 196.655 257.856 196.429 257.482C196.203 257.099 196.09 256.656 196.09 256.155C196.09 255.378 196.341 254.813 196.842 254.459C197.334 254.105 198.041 253.928 198.966 253.928H203.508V255.624H199.187C198.587 255.624 198.165 255.713 197.919 255.89C197.673 256.067 197.55 256.356 197.55 256.76C197.55 257.074 197.628 257.354 197.786 257.6C197.933 257.836 198.155 258.106 198.45 258.411H203.508V260.107Z" fill="white"/>
<path d="M181.018 200.5H175.214V197.155H175.833V199.765H177.656V197.562H178.284V199.765H180.39V197.067H181.018V200.5ZM181.018 196.429L178.771 195.022L176.718 196.323V195.535L177.665 194.96C177.783 194.895 177.904 194.827 178.028 194.757C178.146 194.686 178.264 194.612 178.382 194.535V194.5C178.264 194.435 178.146 194.37 178.028 194.305C177.904 194.24 177.783 194.176 177.665 194.111L176.718 193.589V192.828L178.85 194.128L181.018 192.73V193.518L180.018 194.146C179.889 194.223 179.759 194.299 179.629 194.376C179.499 194.453 179.373 194.532 179.249 194.615V194.65C179.373 194.727 179.499 194.801 179.629 194.872C179.753 194.942 179.883 195.013 180.018 195.084L181.018 195.668V196.429ZM182.832 191.524H176.718V190.923L177.214 190.861V190.834C177.048 190.64 176.907 190.427 176.789 190.197C176.671 189.961 176.612 189.716 176.612 189.463C176.612 189.186 176.665 188.941 176.771 188.728C176.871 188.516 177.019 188.339 177.214 188.197C177.402 188.056 177.632 187.95 177.904 187.879C178.169 187.802 178.47 187.764 178.806 187.764C179.172 187.764 179.499 187.814 179.788 187.914C180.072 188.015 180.313 188.15 180.514 188.321C180.714 188.492 180.868 188.69 180.974 188.914C181.074 189.138 181.124 189.374 181.124 189.622C181.124 189.823 181.08 190.023 180.992 190.224C180.903 190.418 180.782 190.616 180.629 190.817L181.381 190.799H182.832V191.524ZM180.514 189.746C180.514 189.569 180.476 189.407 180.399 189.259C180.316 189.106 180.204 188.976 180.063 188.87C179.915 188.758 179.735 188.672 179.523 188.613C179.311 188.548 179.072 188.516 178.806 188.516C178.57 188.516 178.355 188.537 178.16 188.578C177.966 188.619 177.8 188.687 177.665 188.781C177.523 188.87 177.414 188.988 177.337 189.135C177.261 189.277 177.222 189.448 177.222 189.649C177.222 189.831 177.273 190.017 177.373 190.206C177.473 190.389 177.618 190.586 177.806 190.799H180.063C180.228 190.604 180.346 190.415 180.417 190.233C180.482 190.05 180.514 189.887 180.514 189.746ZM181.018 186.262H176.718V185.537H181.018V186.262ZM175.833 185.891C175.833 186.032 175.789 186.153 175.701 186.253C175.612 186.348 175.5 186.395 175.364 186.395C175.223 186.395 175.111 186.348 175.028 186.253C174.94 186.153 174.895 186.032 174.895 185.891C174.895 185.749 174.94 185.631 175.028 185.537C175.111 185.436 175.223 185.386 175.364 185.386C175.5 185.386 175.612 185.436 175.701 185.537C175.789 185.631 175.833 185.749 175.833 185.891ZM181.018 183.731H176.718V183.129L177.497 183.067V183.041C177.225 182.893 177.01 182.716 176.851 182.51C176.692 182.298 176.612 182.068 176.612 181.82C176.612 181.649 176.641 181.495 176.7 181.36L177.337 181.501C177.314 181.572 177.296 181.637 177.284 181.696C177.273 181.755 177.267 181.829 177.267 181.917C177.267 182.1 177.34 182.292 177.488 182.492C177.635 182.687 177.892 182.858 178.258 183.005H181.018V183.731ZM182.868 180.014C182.868 180.114 182.859 180.206 182.841 180.288C182.829 180.371 182.809 180.448 182.779 180.518L182.204 180.377C182.216 180.33 182.228 180.277 182.239 180.218C182.257 180.159 182.266 180.103 182.266 180.049C182.266 179.802 182.177 179.601 182 179.448C181.829 179.288 181.611 179.165 181.346 179.076L181.027 178.979L176.718 180.704V179.952L179.098 179.076C179.287 179.011 179.488 178.943 179.7 178.873C179.906 178.796 180.11 178.725 180.31 178.66V178.625C180.116 178.56 179.912 178.498 179.7 178.439C179.488 178.38 179.287 178.321 179.098 178.262L176.718 177.492V176.784L181.372 178.404C181.585 178.48 181.782 178.566 181.965 178.66C182.148 178.755 182.304 178.867 182.434 178.996C182.57 179.126 182.676 179.274 182.753 179.439C182.829 179.604 182.868 179.796 182.868 180.014ZM181.124 172.007C181.124 172.549 180.93 172.983 180.54 173.307C180.151 173.626 179.597 173.785 178.877 173.785C178.529 173.785 178.216 173.735 177.939 173.635C177.656 173.529 177.417 173.39 177.222 173.219C177.028 173.048 176.877 172.85 176.771 172.626C176.665 172.402 176.612 172.166 176.612 171.918C176.612 171.671 176.656 171.455 176.745 171.272C176.833 171.09 176.954 170.904 177.107 170.715L176.373 170.75H174.718V170.016H181.018V170.618L180.514 170.68V170.706C180.679 170.877 180.824 171.075 180.948 171.299C181.065 171.517 181.124 171.753 181.124 172.007ZM180.514 171.848C180.514 171.647 180.467 171.458 180.372 171.281C180.272 171.104 180.122 170.927 179.921 170.75H177.674C177.509 170.933 177.393 171.11 177.329 171.281C177.258 171.446 177.222 171.617 177.222 171.794C177.222 171.966 177.264 172.128 177.346 172.281C177.423 172.429 177.535 172.558 177.683 172.67C177.824 172.782 177.995 172.871 178.196 172.936C178.396 173.001 178.62 173.033 178.868 173.033C179.387 173.033 179.791 172.93 180.08 172.724C180.369 172.517 180.514 172.225 180.514 171.848ZM181.124 167.223C181.124 167.582 181.018 167.883 180.806 168.125C180.594 168.361 180.293 168.479 179.903 168.479C179.432 168.479 179.072 168.27 178.824 167.851C178.57 167.432 178.393 166.762 178.293 165.842C178.157 165.842 178.025 165.857 177.895 165.886C177.765 165.91 177.65 165.954 177.55 166.019C177.45 166.084 177.37 166.175 177.311 166.293C177.246 166.406 177.214 166.55 177.214 166.727C177.214 166.975 177.261 167.208 177.355 167.426C177.45 167.644 177.556 167.839 177.674 168.01L177.169 168.293C177.04 168.093 176.916 167.848 176.798 167.559C176.674 167.27 176.612 166.951 176.612 166.603C176.612 166.078 176.774 165.698 177.099 165.462C177.417 165.226 177.845 165.108 178.382 165.108H181.018V165.709L180.505 165.771V165.798C180.676 166.004 180.824 166.226 180.948 166.462C181.065 166.698 181.124 166.951 181.124 167.223ZM180.54 167.01C180.54 166.804 180.493 166.609 180.399 166.426C180.299 166.243 180.154 166.049 179.965 165.842H178.771C178.818 166.202 178.874 166.506 178.939 166.754C179.004 166.995 179.081 167.193 179.169 167.346C179.258 167.494 179.361 167.603 179.479 167.674C179.591 167.739 179.715 167.771 179.85 167.771C180.098 167.771 180.275 167.697 180.381 167.55C180.487 167.402 180.54 167.223 180.54 167.01ZM181.124 162.168C181.124 162.398 181.089 162.593 181.018 162.752C180.948 162.905 180.85 163.032 180.726 163.132C180.602 163.227 180.452 163.295 180.275 163.336C180.098 163.377 179.903 163.398 179.691 163.398H177.311V164.035H176.762L176.718 163.362L175.515 163.274V162.663H176.718V161.504H177.311V162.663H179.7C179.965 162.663 180.172 162.616 180.319 162.522C180.461 162.422 180.532 162.248 180.532 162C180.532 161.923 180.52 161.841 180.496 161.752C180.473 161.664 180.446 161.584 180.417 161.513L180.965 161.372C181.006 161.49 181.042 161.619 181.071 161.761C181.107 161.897 181.124 162.032 181.124 162.168ZM181.124 158.556C181.124 158.845 181.074 159.116 180.974 159.37C180.868 159.618 180.72 159.836 180.532 160.025C180.337 160.208 180.101 160.352 179.824 160.458C179.547 160.565 179.231 160.618 178.877 160.618C178.523 160.618 178.208 160.565 177.93 160.458C177.647 160.346 177.408 160.202 177.214 160.025C177.019 159.842 176.871 159.636 176.771 159.406C176.665 159.175 176.612 158.937 176.612 158.689C176.612 158.417 176.659 158.176 176.753 157.963C176.848 157.745 176.984 157.565 177.16 157.424C177.337 157.276 177.55 157.164 177.798 157.087C178.045 157.011 178.323 156.972 178.629 156.972C178.706 156.972 178.783 156.975 178.859 156.981C178.93 156.981 178.992 156.987 179.045 156.999V159.901C179.505 159.872 179.871 159.73 180.142 159.476C180.408 159.217 180.54 158.881 180.54 158.468C180.54 158.261 180.511 158.072 180.452 157.901C180.387 157.724 180.305 157.556 180.204 157.397L180.682 157.14C180.8 157.329 180.903 157.539 180.992 157.769C181.08 157.999 181.124 158.261 181.124 158.556ZM178.523 159.91V157.609C178.087 157.609 177.756 157.704 177.532 157.892C177.302 158.075 177.187 158.335 177.187 158.671C177.187 158.825 177.217 158.972 177.276 159.114C177.334 159.249 177.423 159.373 177.541 159.485C177.653 159.597 177.792 159.692 177.957 159.768C178.122 159.839 178.311 159.886 178.523 159.91Z" fill="white"/>
<path d="M203.685 197.521C203.685 198.504 203.268 199.281 202.432 199.851C201.586 200.421 200.367 200.706 198.775 200.706C197.182 200.706 195.983 200.421 195.176 199.851C194.36 199.281 193.952 198.504 193.952 197.521C193.952 196.538 194.36 195.761 195.176 195.191C195.992 194.621 197.192 194.336 198.775 194.336C200.367 194.336 201.586 194.621 202.432 195.191C203.268 195.761 203.685 196.538 203.685 197.521ZM202.358 197.521C202.358 197.295 202.299 197.089 202.181 196.902C202.053 196.705 201.847 196.538 201.562 196.4C201.277 196.263 200.908 196.154 200.456 196.076C200.003 195.997 199.443 195.958 198.775 195.958C198.116 195.958 197.565 195.997 197.123 196.076C196.671 196.154 196.307 196.263 196.032 196.4C195.756 196.538 195.564 196.705 195.456 196.902C195.338 197.089 195.28 197.295 195.28 197.521C195.28 197.747 195.338 197.959 195.456 198.155C195.564 198.342 195.756 198.504 196.032 198.642C196.307 198.779 196.671 198.888 197.123 198.966C197.565 199.045 198.116 199.084 198.775 199.084C199.443 199.084 200.003 199.045 200.456 198.966C200.908 198.888 201.277 198.779 201.562 198.642C201.847 198.504 202.053 198.342 202.181 198.155C202.299 197.959 202.358 197.747 202.358 197.521ZM203.508 192.585H202.52C201.891 191.936 201.311 191.352 200.78 190.83C200.249 190.299 199.758 189.852 199.305 189.488C198.853 189.115 198.431 188.83 198.037 188.633C197.644 188.436 197.27 188.338 196.916 188.338C196.415 188.338 196.022 188.471 195.737 188.736C195.442 189.002 195.294 189.385 195.294 189.886C195.294 190.25 195.397 190.585 195.604 190.889C195.81 191.184 196.056 191.46 196.341 191.715L195.397 192.659C194.936 192.226 194.582 191.784 194.336 191.332C194.08 190.87 193.952 190.314 193.952 189.665C193.952 189.213 194.021 188.805 194.159 188.441C194.296 188.078 194.493 187.768 194.749 187.512C194.995 187.257 195.294 187.06 195.648 186.922C196.002 186.775 196.395 186.701 196.828 186.701C197.241 186.701 197.664 186.795 198.096 186.981C198.519 187.158 198.952 187.404 199.394 187.719C199.826 188.024 200.274 188.382 200.736 188.795C201.198 189.208 201.675 189.646 202.166 190.108C202.147 189.862 202.127 189.597 202.107 189.311C202.078 189.026 202.063 188.771 202.063 188.544V186.244H203.508V192.585ZM205.868 184.818L193.038 181.382V180.232L205.868 183.668V184.818ZM203.685 175.796C203.685 176.563 203.557 177.203 203.302 177.714C203.046 178.225 202.732 178.648 202.358 178.982L201.267 178.171C201.552 177.886 201.798 177.561 202.004 177.197C202.201 176.834 202.299 176.416 202.299 175.944C202.299 175.433 202.176 175.02 201.93 174.705C201.675 174.381 201.326 174.219 200.883 174.219C200.637 174.219 200.416 174.263 200.22 174.351C200.023 174.44 199.856 174.592 199.718 174.808C199.581 175.015 199.478 175.295 199.409 175.649C199.33 176.003 199.291 176.445 199.291 176.976H198.052C198.052 176.514 198.018 176.131 197.949 175.826C197.87 175.512 197.767 175.261 197.639 175.074C197.502 174.877 197.339 174.74 197.152 174.661C196.965 174.573 196.764 174.528 196.548 174.528C196.154 174.528 195.85 174.651 195.633 174.897C195.407 175.143 195.294 175.482 195.294 175.914C195.294 176.288 195.378 176.627 195.545 176.932C195.702 177.227 195.914 177.517 196.179 177.802L195.132 178.672C194.778 178.269 194.493 177.842 194.277 177.389C194.06 176.927 193.952 176.416 193.952 175.855C193.952 175.403 194.006 174.991 194.115 174.617C194.223 174.243 194.385 173.924 194.601 173.658C194.808 173.393 195.068 173.186 195.383 173.039C195.688 172.891 196.036 172.818 196.43 172.818C196.961 172.818 197.403 172.965 197.757 173.26C198.111 173.545 198.386 173.944 198.583 174.455H198.642C198.789 173.894 199.06 173.432 199.453 173.068C199.846 172.695 200.352 172.508 200.972 172.508C201.404 172.508 201.788 172.596 202.122 172.773C202.456 172.941 202.741 173.177 202.977 173.481C203.203 173.776 203.38 174.125 203.508 174.528C203.626 174.922 203.685 175.344 203.685 175.796ZM203.685 167.41C203.685 168.393 203.268 169.17 202.432 169.74C201.586 170.31 200.367 170.596 198.775 170.596C197.182 170.596 195.983 170.31 195.176 169.74C194.36 169.17 193.952 168.393 193.952 167.41C193.952 166.427 194.36 165.65 195.176 165.08C195.992 164.51 197.192 164.225 198.775 164.225C200.367 164.225 201.586 164.51 202.432 165.08C203.268 165.65 203.685 166.427 203.685 167.41ZM202.358 167.41C202.358 167.184 202.299 166.977 202.181 166.791C202.053 166.594 201.847 166.427 201.562 166.289C201.277 166.152 200.908 166.044 200.456 165.965C200.003 165.886 199.443 165.847 198.775 165.847C198.116 165.847 197.565 165.886 197.123 165.965C196.671 166.044 196.307 166.152 196.032 166.289C195.756 166.427 195.564 166.594 195.456 166.791C195.338 166.977 195.28 167.184 195.28 167.41C195.28 167.636 195.338 167.848 195.456 168.044C195.564 168.231 195.756 168.393 196.032 168.531C196.307 168.669 196.671 168.777 197.123 168.855C197.565 168.934 198.116 168.973 198.775 168.973C199.443 168.973 200.003 168.934 200.456 168.855C200.908 168.777 201.277 168.669 201.562 168.531C201.847 168.393 202.053 168.231 202.181 168.044C202.299 167.848 202.358 167.636 202.358 167.41Z" fill="white"/>
</g>
</g>
<defs>
<clipPath id="clip0_3_1719">
<rect width="372.729" height="235.214" fill="white" transform="matrix(0 -1 1 0 0 372.729)"/>
</clipPath>
</defs>
</svg>
