<svg width="124" height="36" viewBox="0 0 124 36" fill="none" xmlns="http://www.w3.org/2000/svg">
<path d="M123.311 31.8487C123.311 33.7672 121.732 35.3212 119.78 35.3212H4.22415C2.27258 35.3212 0.688477 33.7672 0.688477 31.8487V4.15671C0.688477 2.23914 2.27258 0.679688 4.22415 0.679688H119.779C121.732 0.679688 123.31 2.23914 123.31 4.15671L123.311 31.8487Z" fill="black"/>
<path d="M119.407 0.721124C121.534 0.721124 123.264 2.4165 123.264 4.5V31.5C123.264 33.5835 121.534 35.2789 119.407 35.2789H4.59259C2.46622 35.2789 0.735963 33.5835 0.735963 31.5V4.5C0.735963 2.4165 2.46622 0.721124 4.59259 0.721124H119.407ZM119.407 0H4.59259C2.06781 0 0 2.02613 0 4.5V31.5C0 33.9739 2.06781 36 4.59259 36H119.407C121.932 36 124 33.9739 124 31.5V4.5C124 2.02613 121.932 0 119.407 0Z" fill="#A6A6A6"/>
<path d="M27.6725 17.806C27.6459 14.9053 30.0965 13.4941 30.2086 13.4284C28.8207 11.4457 26.6695 11.1748 25.9136 11.1532C24.1069 10.9669 22.3543 12.2125 21.434 12.2125C20.4952 12.2125 19.078 11.1712 17.5505 11.2018C15.5848 11.2315 13.746 12.3466 12.7374 14.0782C10.6561 17.6089 12.2084 22.7974 14.2025 25.6513C15.2 27.049 16.3656 28.6096 17.8912 28.5547C19.3838 28.4944 19.9414 27.6223 21.7426 27.6223C23.5273 27.6223 24.0508 28.5547 25.6068 28.5196C27.2087 28.4944 28.2172 27.1156 29.1798 25.7053C30.3326 24.1033 30.7955 22.5256 30.8139 22.4446C30.7762 22.432 27.7029 21.2827 27.6725 17.806Z" fill="white"/>
<path d="M24.7333 9.2758C25.5361 8.2921 26.0853 6.9538 25.9329 5.5957C24.7709 5.6461 23.3179 6.3832 22.4811 7.3453C21.7408 8.1931 21.0794 9.5827 21.2503 10.8895C22.5555 10.9849 23.8956 10.2442 24.7333 9.2758Z" fill="white"/>
<path d="M45.0533 9.00783C45.0533 10.0671 44.7291 10.8645 44.0815 11.4C43.4817 11.8941 42.6293 12.1416 41.5253 12.1416C40.9778 12.1416 40.5094 12.1182 40.1172 12.0714V6.28353C40.6288 6.20253 41.1799 6.16113 41.7751 6.16113C42.8268 6.16113 43.6195 6.38523 44.1541 6.83343C44.753 7.34013 45.0533 8.06463 45.0533 9.00783ZM44.0383 9.03393C44.0383 8.34723 43.8528 7.82073 43.4817 7.45353C43.1106 7.08723 42.5687 6.90363 41.855 6.90363C41.5519 6.90363 41.2938 6.92343 41.0798 6.96483V11.3649C41.1983 11.3829 41.4151 11.391 41.7301 11.391C42.4668 11.391 43.0353 11.1903 43.4358 10.7889C43.8363 10.3875 44.0383 9.80253 44.0383 9.03393Z" fill="white"/>
<path d="M50.4351 9.93334C50.4351 10.5858 50.245 11.1204 49.8647 11.5398C49.4661 11.9709 48.938 12.186 48.2785 12.186C47.6428 12.186 47.1367 11.9799 46.7592 11.5659C46.3826 11.1528 46.1943 10.6317 46.1943 10.0035C46.1943 9.34654 46.3881 8.80744 46.7776 8.38894C47.167 7.97044 47.6906 7.76074 48.3501 7.76074C48.9857 7.76074 49.4964 7.96684 49.8831 8.37994C50.2505 8.78134 50.4351 9.29974 50.4351 9.93334ZM49.4367 9.96394C49.4367 9.57244 49.3504 9.23674 49.1786 8.95684C48.9765 8.61844 48.689 8.44924 48.3152 8.44924C47.9285 8.44924 47.6346 8.61844 47.4325 8.95684C47.2598 9.23674 47.1744 9.57784 47.1744 9.98104C47.1744 10.3725 47.2607 10.7082 47.4325 10.9881C47.641 11.3265 47.9313 11.4957 48.306 11.4957C48.6734 11.4957 48.9618 11.3238 49.1694 10.9791C49.3476 10.6938 49.4367 10.3554 49.4367 9.96394Z" fill="white"/>
<path d="M57.6504 7.84668L56.2956 12.0893H55.4138L54.8526 10.247C54.7103 9.78708 54.5945 9.32988 54.5045 8.87628H54.4871C54.4035 9.34248 54.2877 9.79878 54.1389 10.247L53.5428 12.0893H52.6509L51.377 7.84668H52.3662L52.8558 9.86358C52.9743 10.3406 53.0716 10.7951 53.1497 11.2253H53.1671C53.2388 10.8707 53.3573 10.4189 53.5244 9.87258L54.1389 7.84758H54.9234L55.5121 9.82938C55.6545 10.3127 55.7702 10.778 55.8593 11.2262H55.886C55.9512 10.7897 56.0495 10.3244 56.1799 9.82938L56.7053 7.84758H57.6504V7.84668Z" fill="white"/>
<path d="M62.641 12.0895H61.6784V9.65951C61.6784 8.91071 61.3882 8.53631 60.8058 8.53631C60.5202 8.53631 60.2896 8.63891 60.1105 8.84501C59.9332 9.05111 59.8432 9.29411 59.8432 9.57221V12.0886H58.8806V9.05921C58.8806 8.68661 58.8687 8.28251 58.8457 7.84511H59.6917L59.7367 8.50841H59.7633C59.8754 8.30231 60.0425 8.13221 60.2621 7.99631C60.5229 7.83791 60.815 7.75781 61.1346 7.75781C61.5388 7.75781 61.875 7.88561 62.1423 8.14211C62.4748 8.45621 62.641 8.92511 62.641 9.54791V12.0895V12.0895Z" fill="white"/>
<path d="M65.2957 12.0897H64.334V5.90039H65.2957V12.0897Z" fill="white"/>
<path d="M70.9625 9.93334C70.9625 10.5858 70.7723 11.1204 70.3921 11.5398C69.9934 11.9709 69.4644 12.186 68.8058 12.186C68.1693 12.186 67.6632 11.9799 67.2866 11.5659C66.91 11.1528 66.7217 10.6317 66.7217 10.0035C66.7217 9.34654 66.9155 8.80744 67.3049 8.38894C67.6944 7.97044 68.2179 7.76074 68.8765 7.76074C69.5131 7.76074 70.0228 7.96684 70.4104 8.37994C70.7779 8.78134 70.9625 9.29974 70.9625 9.93334ZM69.9631 9.96394C69.9631 9.57244 69.8768 9.23674 69.705 8.95684C69.5039 8.61844 69.2155 8.44924 68.8425 8.44924C68.4549 8.44924 68.161 8.61844 67.9598 8.95684C67.7872 9.23674 67.7017 9.57784 67.7017 9.98104C67.7017 10.3725 67.7881 10.7082 67.9598 10.9881C68.1683 11.3265 68.4586 11.4957 68.8334 11.4957C69.2008 11.4957 69.4883 11.3238 69.6958 10.9791C69.875 10.6938 69.9631 10.3554 69.9631 9.96394Z" fill="white"/>
<path d="M75.622 12.0897H74.7577L74.6861 11.601H74.6594C74.3637 11.9907 73.9421 12.186 73.3946 12.186C72.9859 12.186 72.6552 12.0573 72.4063 11.8017C72.1804 11.5695 72.0674 11.2806 72.0674 10.9377C72.0674 10.4193 72.2878 10.0242 72.7315 9.75064C73.1742 9.47704 73.797 9.34294 74.5988 9.34924V9.27004C74.5988 8.71114 74.2994 8.43214 73.6996 8.43214C73.2725 8.43214 72.8959 8.53744 72.5707 8.74624L72.3751 8.12704C72.7774 7.88314 73.2743 7.76074 73.8603 7.76074C74.9919 7.76074 75.5596 8.34574 75.5596 9.51574V11.0781C75.5596 11.502 75.5807 11.8395 75.622 12.0897ZM74.6227 10.6317V9.97744C73.5609 9.95944 73.03 10.2447 73.03 10.8324C73.03 11.0538 73.0906 11.2194 73.2146 11.3301C73.3386 11.4408 73.4966 11.4957 73.6849 11.4957C73.8962 11.4957 74.0936 11.43 74.2737 11.2995C74.4546 11.1681 74.5657 11.0016 74.6071 10.7973C74.6172 10.7514 74.6227 10.6956 74.6227 10.6317Z" fill="white"/>
<path d="M81.0913 12.0897H80.2371L80.1921 11.4084H80.1655C79.8927 11.9268 79.4279 12.186 78.7748 12.186C78.2531 12.186 77.8187 11.9853 77.4742 11.5839C77.1298 11.1825 76.958 10.6614 76.958 10.0215C76.958 9.33479 77.1445 8.77859 77.5192 8.35379C77.882 7.95779 78.3266 7.75979 78.8557 7.75979C79.4371 7.75979 79.844 7.95149 80.0755 8.33579H80.0938V5.90039H81.0573V10.9467C81.0573 11.3598 81.0684 11.7405 81.0913 12.0897ZM80.0938 10.3005V9.59309C80.0938 9.47069 80.0846 9.37169 80.0672 9.29609C80.013 9.06929 79.8963 8.87849 79.7191 8.72459C79.54 8.57069 79.3241 8.49329 79.0752 8.49329C78.716 8.49329 78.435 8.63279 78.2283 8.91269C78.0235 9.19259 77.9197 9.54989 77.9197 9.98639C77.9197 10.4058 78.018 10.746 78.2155 11.0079C78.424 11.2869 78.705 11.4264 79.0568 11.4264C79.3728 11.4264 79.6254 11.3103 79.8174 11.0772C80.0029 10.8621 80.0938 10.6029 80.0938 10.3005Z" fill="white"/>
<path d="M89.3238 9.93334C89.3238 10.5858 89.1337 11.1204 88.7534 11.5398C88.3548 11.9709 87.8275 12.186 87.1671 12.186C86.5324 12.186 86.0263 11.9799 85.6479 11.5659C85.2713 11.1528 85.083 10.6317 85.083 10.0035C85.083 9.34654 85.2768 8.80744 85.6663 8.38894C86.0557 7.97044 86.5793 7.76074 87.2397 7.76074C87.8744 7.76074 88.386 7.96684 88.7718 8.37994C89.1392 8.78134 89.3238 9.29974 89.3238 9.93334ZM88.3263 9.96394C88.3263 9.57244 88.24 9.23674 88.0682 8.95684C87.8652 8.61844 87.5786 8.44924 87.2039 8.44924C86.8181 8.44924 86.5242 8.61844 86.3212 8.95684C86.1485 9.23674 86.0631 9.57784 86.0631 9.98104C86.0631 10.3725 86.1494 10.7082 86.3212 10.9881C86.5297 11.3265 86.8199 11.4957 87.1947 11.4957C87.5621 11.4957 87.8514 11.3238 88.059 10.9791C88.2363 10.6938 88.3263 10.3554 88.3263 9.96394Z" fill="white"/>
<path d="M94.4995 12.0895H93.5378V9.65951C93.5378 8.91071 93.2475 8.53631 92.6643 8.53631C92.3786 8.53631 92.1481 8.63891 91.9699 8.84501C91.7917 9.05111 91.7026 9.29411 91.7026 9.57221V12.0886H90.7391V9.05921C90.7391 8.68661 90.728 8.28251 90.7051 7.84511H91.5501L91.5951 8.50841H91.6218C91.7347 8.30231 91.9019 8.13221 92.1205 7.99631C92.3823 7.83791 92.6735 7.75781 92.994 7.75781C93.3973 7.75781 93.7334 7.88561 94.0007 8.14211C94.3341 8.45621 94.4995 8.92511 94.4995 9.54791V12.0895V12.0895Z" fill="white"/>
<path d="M100.978 8.55314H99.9179V10.6141C99.9179 11.1379 100.106 11.3998 100.479 11.3998C100.652 11.3998 100.795 11.3854 100.908 11.3557L100.933 12.0712C100.743 12.1414 100.493 12.1765 100.185 12.1765C99.8049 12.1765 99.5092 12.0631 99.2952 11.8363C99.0802 11.6095 98.9737 11.2279 98.9737 10.6924V8.55314H98.3408V7.84664H98.9737V7.06904L99.917 6.79004V7.84574H100.977V8.55314H100.978Z" fill="white"/>
<path d="M106.074 12.0897H105.11V9.67769C105.11 8.91719 104.82 8.53649 104.239 8.53649C103.792 8.53649 103.487 8.75699 103.32 9.19799C103.292 9.29069 103.275 9.40409 103.275 9.53729V12.0888H102.313V5.90039H103.275V8.45729H103.294C103.597 7.99199 104.031 7.75979 104.594 7.75979C104.993 7.75979 105.323 7.88759 105.584 8.14409C105.91 8.46359 106.074 8.93879 106.074 9.56699V12.0897V12.0897Z" fill="white"/>
<path d="M111.331 9.76803C111.331 9.93723 111.318 10.0794 111.295 10.1955H108.408C108.421 10.6149 108.559 10.9344 108.826 11.1558C109.07 11.3538 109.386 11.4528 109.771 11.4528C110.198 11.4528 110.588 11.3862 110.939 11.2521L111.089 11.9073C110.679 12.0819 110.196 12.1692 109.636 12.1692C108.966 12.1692 108.438 11.9757 108.056 11.5887C107.672 11.2017 107.481 10.6824 107.481 10.0308C107.481 9.39093 107.659 8.85813 108.016 8.43333C108.389 7.97973 108.893 7.75293 109.53 7.75293C110.152 7.75293 110.626 7.97973 110.945 8.43333C111.203 8.79333 111.331 9.23883 111.331 9.76803ZM110.412 9.52413C110.42 9.24423 110.356 9.00303 110.226 8.79963C110.059 8.53773 109.804 8.40633 109.46 8.40633C109.146 8.40633 108.89 8.53413 108.694 8.79063C108.534 8.99493 108.439 9.23883 108.408 9.52413H110.412Z" fill="white"/>
<path d="M49.2737 28.3542H47.1877L46.0451 24.8361H42.0734L40.9849 28.3542H38.9541L42.889 16.377H45.3194L49.2737 28.3542ZM45.7006 23.3601L44.6673 20.2326C44.558 19.9131 44.3532 19.1607 44.051 17.9763H44.0142C43.8939 18.4857 43.7001 19.2381 43.4337 20.2326L42.4188 23.3601H45.7006V23.3601Z" fill="white"/>
<path d="M59.3933 23.9293C59.3933 25.3981 58.9882 26.5591 58.1781 27.4114C57.4525 28.1701 56.5514 28.549 55.4758 28.549C54.3148 28.549 53.4808 28.1404 52.9729 27.3232H52.9361V31.8727H50.9778V22.5604C50.9778 21.637 50.953 20.6893 50.9053 19.7173H52.6275L52.7368 21.0862H52.7735C53.4266 20.0548 54.4177 19.54 55.7477 19.54C56.7875 19.54 57.6555 19.9423 58.3499 20.7478C59.0461 21.5542 59.3933 22.6144 59.3933 23.9293ZM57.3983 23.9995C57.3983 23.1589 57.2054 22.4659 56.8178 21.9205C56.3943 21.3517 55.8258 21.0673 55.113 21.0673C54.6299 21.0673 54.1908 21.2257 53.7986 21.538C53.4055 21.853 53.1483 22.2643 53.028 22.7737C52.9673 23.0113 52.937 23.2057 52.937 23.3587V24.7987C52.937 25.4269 53.1336 25.957 53.5267 26.3899C53.9199 26.8228 54.4305 27.0388 55.0588 27.0388C55.7964 27.0388 56.3705 26.7598 56.781 26.2036C57.1925 25.6465 57.3983 24.9121 57.3983 23.9995Z" fill="white"/>
<path d="M69.5311 23.9293C69.5311 25.3981 69.126 26.5591 68.3149 27.4114C67.5902 28.1701 66.6892 28.549 65.6136 28.549C64.4526 28.549 63.6186 28.1404 63.1115 27.3232H63.0748V31.8727H61.1165V22.5604C61.1165 21.637 61.0917 20.6893 61.0439 19.7173H62.7662L62.8755 21.0862H62.9122C63.5644 20.0548 64.5554 19.54 65.8864 19.54C66.9252 19.54 67.7932 19.9423 68.4895 20.7478C69.1829 21.5542 69.5311 22.6144 69.5311 23.9293ZM67.536 23.9995C67.536 23.1589 67.3422 22.4659 66.9546 21.9205C66.5312 21.3517 65.9645 21.0673 65.2508 21.0673C64.7667 21.0673 64.3286 21.2257 63.9354 21.538C63.5423 21.853 63.286 22.2643 63.1657 22.7737C63.106 23.0113 63.0748 23.2057 63.0748 23.3587V24.7987C63.0748 25.4269 63.2714 25.957 63.6626 26.3899C64.0558 26.8219 64.5665 27.0388 65.1966 27.0388C65.9341 27.0388 66.5082 26.7598 66.9188 26.2036C67.3303 25.6465 67.536 24.9121 67.536 23.9995Z" fill="white"/>
<path d="M80.8655 24.9951C80.8655 26.0139 80.5045 26.8428 79.7798 27.4827C78.9835 28.182 77.8748 28.5312 76.4502 28.5312C75.1349 28.5312 74.0804 28.2828 73.2822 27.7851L73.736 26.1858C74.5957 26.6952 75.539 26.9508 76.5669 26.9508C77.3044 26.9508 77.8785 26.787 78.2909 26.4612C78.7015 26.1354 78.9063 25.698 78.9063 25.1526C78.9063 24.6666 78.7373 24.2571 78.3984 23.925C78.0613 23.5929 77.4982 23.2842 76.712 22.9989C74.5718 22.2168 73.5027 21.0711 73.5027 19.5645C73.5027 18.5799 73.8774 17.7726 74.6279 17.1444C75.3755 16.5153 76.373 16.2012 77.6204 16.2012C78.7327 16.2012 79.6567 16.3911 80.3943 16.77L79.9047 18.3342C79.2159 17.967 78.437 17.7834 77.5653 17.7834C76.8764 17.7834 76.3381 17.9499 75.9524 18.2811C75.6263 18.5772 75.4628 18.9381 75.4628 19.3656C75.4628 19.839 75.6492 20.2305 76.024 20.5383C76.3501 20.8227 76.9425 21.1305 77.8023 21.4626C78.854 21.8775 79.6264 22.3626 80.1234 22.9188C80.6184 23.4732 80.8655 24.1671 80.8655 24.9951Z" fill="white"/>
<path d="M87.3395 21.1573H85.181V25.3504C85.181 26.4169 85.5612 26.9497 86.3236 26.9497C86.6736 26.9497 86.9638 26.92 87.1935 26.8606L87.2476 28.3177C86.8619 28.459 86.3539 28.5301 85.7247 28.5301C84.9514 28.5301 84.347 28.2988 83.9107 27.8371C83.4762 27.3745 83.2576 26.5987 83.2576 25.5088V21.1555H81.9717V19.7155H83.2576V18.1342L85.181 17.5654V19.7155H87.3395V21.1573Z" fill="white"/>
<path d="M97.0785 23.9645C97.0785 25.292 96.6909 26.3819 95.9175 27.2342C95.1064 28.1117 94.0299 28.5491 92.688 28.5491C91.3947 28.5491 90.365 28.1288 89.5971 27.2882C88.8293 26.4476 88.4453 25.3865 88.4453 24.1076C88.4453 22.7693 88.8403 21.6731 89.633 20.8208C90.4238 19.9676 91.4911 19.541 92.8331 19.541C94.1263 19.541 95.167 19.9613 95.9524 20.8028C96.7037 21.6191 97.0785 22.673 97.0785 23.9645ZM95.0467 24.0266C95.0467 23.2301 94.8731 22.547 94.5213 21.9773C94.1107 21.2879 93.5238 20.9441 92.7633 20.9441C91.9761 20.9441 91.3781 21.2888 90.9676 21.9773C90.6158 22.5479 90.4422 23.2418 90.4422 24.0626C90.4422 24.8591 90.6158 25.5422 90.9676 26.111C91.391 26.8004 91.9825 27.1442 92.7458 27.1442C93.4935 27.1442 94.0804 26.7932 94.5039 26.093C94.8648 25.5125 95.0467 24.8222 95.0467 24.0266Z" fill="white"/>
<path d="M103.444 21.4048C103.25 21.3697 103.044 21.3517 102.827 21.3517C102.138 21.3517 101.605 21.6064 101.231 22.1167C100.904 22.5667 100.741 23.1355 100.741 23.8222V28.3537H98.7836L98.802 22.4371C98.802 21.4417 98.7772 20.5354 98.7285 19.7182H100.434L100.506 21.3706H100.56C100.767 20.8027 101.093 20.3455 101.539 20.0026C101.975 19.6939 102.447 19.54 102.955 19.54C103.136 19.54 103.299 19.5526 103.444 19.5751V21.4048Z" fill="white"/>
<path d="M112.202 23.6275C112.202 23.9713 112.179 24.2611 112.131 24.4978H106.256C106.279 25.351 106.563 26.0035 107.108 26.4535C107.603 26.8558 108.243 27.0574 109.03 27.0574C109.9 27.0574 110.693 26.9215 111.407 26.6488L111.714 27.9808C110.88 28.3372 109.895 28.5145 108.759 28.5145C107.392 28.5145 106.319 28.1203 105.538 27.3328C104.76 26.5453 104.369 25.4878 104.369 24.1612C104.369 22.8589 104.732 21.7744 105.459 20.9095C106.219 19.9861 107.247 19.5244 108.54 19.5244C109.81 19.5244 110.772 19.9861 111.425 20.9095C111.942 21.643 112.202 22.5502 112.202 23.6275ZM110.335 23.1298C110.348 22.561 110.22 22.0696 109.955 21.6547C109.616 21.121 109.095 20.8546 108.394 20.8546C107.754 20.8546 107.233 21.1147 106.835 21.6367C106.509 22.0516 106.315 22.5493 106.256 23.1289H110.335V23.1298Z" fill="white"/>
</svg>
