<svg width="48" height="48" viewBox="0 0 48 48" fill="none" xmlns="http://www.w3.org/2000/svg">
<rect width="48" height="48" rx="8" fill="#006064"/>
<path d="M23.9997 37.3337C20.9108 36.5559 18.3608 34.7837 16.3497 32.017C14.3386 29.2503 13.333 26.1781 13.333 22.8003V14.667L23.9997 10.667L34.6663 14.667V22.8003C34.6663 26.1781 33.6608 29.2503 31.6497 32.017C29.6386 34.7837 27.0886 36.5559 23.9997 37.3337ZM23.9997 34.5337C26.1552 33.867 27.9552 32.5503 29.3997 30.5837C30.8441 28.617 31.6886 26.4225 31.933 24.0003H23.9997V13.5003L15.9997 16.5003V23.4003C15.9997 23.5559 16.0219 23.7559 16.0663 24.0003H23.9997V34.5337Z" fill="white"/>
</svg>
