<svg width="20" height="20" viewBox="0 0 20 20" fill="none" xmlns="http://www.w3.org/2000/svg">
<path d="M10 4.83301C11.0844 4.83301 12.1418 5.17454 13.0215 5.80859C13.901 6.44264 14.5585 7.33759 14.9014 8.36621C15.2443 9.39496 15.255 10.5059 14.9316 11.541C14.6179 12.5451 14.0042 13.4274 13.1758 14.0732C13.0401 14.2134 12.928 14.3733 12.8408 14.5469C12.8277 14.5787 12.8131 14.6096 12.7969 14.6396C12.7739 14.6922 12.7516 14.7452 12.7334 14.7998C12.6383 15.0851 12.6123 15.389 12.6562 15.6865C12.6634 15.7349 12.667 15.7841 12.667 15.833C12.667 16.5402 12.3857 17.2187 11.8857 17.7188C11.3856 18.2188 10.7072 18.5 10 18.5C9.29276 18.5 8.61435 18.2188 8.11426 17.7188C7.61426 17.2187 7.33301 16.5402 7.33301 15.833C7.33302 15.7841 7.33659 15.7349 7.34375 15.6865C7.38775 15.389 7.36171 15.0851 7.2666 14.7998C7.24834 14.745 7.22517 14.6923 7.20215 14.6396C7.18599 14.6096 7.17128 14.5787 7.1582 14.5469C7.07098 14.3733 6.95908 14.2134 6.82324 14.0732C5.99513 13.4274 5.38204 12.5449 5.06836 11.541C4.74503 10.5059 4.75572 9.39496 5.09863 8.36621C5.44151 7.33759 6.09897 6.44264 6.97852 5.80859C7.85822 5.17454 8.91561 4.83301 10 4.83301ZM9.35547 15.167C9.36966 15.3987 9.36319 15.6315 9.33594 15.8633C9.34341 16.0291 9.41049 16.1868 9.52832 16.3047C9.65335 16.4297 9.82319 16.5 10 16.5C10.1768 16.5 10.3467 16.4297 10.4717 16.3047C10.5895 16.1868 10.6556 16.0291 10.6631 15.8633C10.6358 15.6315 10.6303 15.3987 10.6445 15.167H9.35547ZM10 6.83301C9.33546 6.83301 8.68757 7.04214 8.14844 7.43066C7.60926 7.81928 7.20627 8.3685 6.99609 8.99902C6.78602 9.62946 6.7794 10.31 6.97754 10.9443C7.17569 11.5785 7.56811 12.1345 8.09961 12.5332C8.13611 12.5606 8.1707 12.591 8.20312 12.623C8.3725 12.7907 8.52575 12.9727 8.66113 13.167H11.3389C11.4742 12.9727 11.6275 12.7907 11.7969 12.623L11.9004 12.5332C12.4319 12.1345 12.8243 11.5785 13.0225 10.9443C13.2206 10.31 13.214 9.62946 13.0039 8.99902C12.7937 8.3685 12.3907 7.81928 11.8516 7.43066C11.3124 7.04214 10.6645 6.83301 10 6.83301ZM3.33301 9C3.88529 9 4.33301 9.44772 4.33301 10C4.33301 10.5523 3.88529 11 3.33301 11H2.5C1.94772 11 1.5 10.5523 1.5 10C1.5 9.44772 1.94772 9 2.5 9H3.33301ZM17.5 9C18.0523 9 18.5 9.44772 18.5 10C18.5 10.5523 18.0523 11 17.5 11H16.667C16.1147 11 15.667 10.5523 15.667 10C15.667 9.44772 16.1147 9 16.667 9H17.5ZM3.95996 3.95996C4.35049 3.56944 4.9835 3.56944 5.37402 3.95996L5.95703 4.54297C6.34756 4.93349 6.34756 5.56651 5.95703 5.95703C5.56651 6.34756 4.93349 6.34756 4.54297 5.95703L3.95996 5.37402C3.56944 4.9835 3.56944 4.35049 3.95996 3.95996ZM14.626 3.95996C15.0165 3.56944 15.6495 3.56944 16.04 3.95996C16.4306 4.35048 16.4306 4.9835 16.04 5.37402L15.457 5.95703C15.0665 6.34756 14.4335 6.34755 14.043 5.95703C13.6524 5.56651 13.6524 4.93349 14.043 4.54297L14.626 3.95996ZM10 1.5C10.5523 1.5 11 1.94772 11 2.5V3.33301C11 3.88529 10.5523 4.33301 10 4.33301C9.44772 4.33301 9 3.88529 9 3.33301V2.5C9 1.94772 9.44772 1.5 10 1.5Z" fill="#343A45"/>
</svg>
