<svg width="48" height="48" viewBox="0 0 48 48" fill="none" xmlns="http://www.w3.org/2000/svg">
<rect width="48" height="48" rx="8" fill="#006064"/>
<path d="M16 37.3337V31.6003C14.7333 30.4448 13.75 29.0948 13.05 27.5503C12.35 26.0059 12 24.3781 12 22.667C12 19.3337 13.1667 16.5003 15.5 14.167C17.8333 11.8337 20.6667 10.667 24 10.667C26.7778 10.667 29.2389 11.4837 31.3833 13.117C33.5278 14.7503 34.9222 16.8781 35.5667 19.5003L37.3 26.3337C37.4111 26.7559 37.3333 27.1392 37.0667 27.4837C36.8 27.8281 36.4444 28.0003 36 28.0003H33.3333V32.0003C33.3333 32.7337 33.0722 33.3614 32.55 33.8837C32.0278 34.4059 31.4 34.667 30.6667 34.667H28V37.3337H25.3333V32.0003H30.6667V25.3337H34.2667L33 20.167C32.4889 18.1448 31.4 16.5003 29.7333 15.2337C28.0667 13.967 26.1556 13.3337 24 13.3337C21.4222 13.3337 19.2222 14.2337 17.4 16.0337C15.5778 17.8337 14.6667 20.0225 14.6667 22.6003C14.6667 23.9337 14.9389 25.2003 15.4833 26.4003C16.0278 27.6003 16.8 28.667 17.8 29.6003L18.6667 30.4003V37.3337H16ZM22.6667 28.0003H25.3333L25.5333 26.3337C25.7111 26.267 25.8722 26.1892 26.0167 26.1003C26.1611 26.0114 26.2889 25.9114 26.4 25.8003L27.9333 26.467L29.2667 24.2003L27.9333 23.2003C27.9778 23.0225 28 22.8448 28 22.667C28 22.4892 27.9778 22.3114 27.9333 22.1337L29.2667 21.1337L27.9333 18.867L26.4 19.5337C26.2889 19.4225 26.1611 19.3225 26.0167 19.2337C25.8722 19.1448 25.7111 19.067 25.5333 19.0003L25.3333 17.3337H22.6667L22.4667 19.0003C22.2889 19.067 22.1278 19.1448 21.9833 19.2337C21.8389 19.3225 21.7111 19.4225 21.6 19.5337L20.0667 18.867L18.7333 21.1337L20.0667 22.1337C20.0222 22.3114 20 22.4892 20 22.667C20 22.8448 20.0222 23.0225 20.0667 23.2003L18.7333 24.2003L20.0667 26.467L21.6 25.8003C21.7111 25.9114 21.8389 26.0114 21.9833 26.1003C22.1278 26.1892 22.2889 26.267 22.4667 26.3337L22.6667 28.0003ZM22.5833 24.0837C22.1944 23.6948 22 23.2225 22 22.667C22 22.1114 22.1944 21.6392 22.5833 21.2503C22.9722 20.8614 23.4444 20.667 24 20.667C24.5556 20.667 25.0278 20.8614 25.4167 21.2503C25.8056 21.6392 26 22.1114 26 22.667C26 23.2225 25.8056 23.6948 25.4167 24.0837C25.0278 24.4725 24.5556 24.667 24 24.667C23.4444 24.667 22.9722 24.4725 22.5833 24.0837Z" fill="white"/>
</svg>
