<svg width="16" height="16" viewBox="0 0 16 16" fill="none" xmlns="http://www.w3.org/2000/svg">
<path d="M-0.000195503 6.75V0H6.7498V6.75H-0.000195503ZM2.2498 2.25V4.5H4.4998V2.25H2.2498ZM8.9998 0H15.7498V6.75H8.9998V0ZM13.4998 4.5V2.25H11.2498V4.5H13.4998ZM-0.000195503 15.75V9H6.7498V15.75H-0.000195503ZM2.2498 11.25V13.5H4.4998V11.25H2.2498ZM14.6248 9H15.7498V13.5H12.3748V12.375H11.2498V15.75H8.9998V9H12.3748V10.125H14.6248V9ZM14.6248 14.625H15.7498V15.75H14.6248V14.625ZM12.3748 14.625H13.4998V15.75H12.3748V14.625Z" fill="#0C231F"/>
</svg>
