<svg width="18" height="19" viewBox="0 0 18 19" fill="none" xmlns="http://www.w3.org/2000/svg">
<path d="M10.4061 13.5352H7.59356C7.10137 13.5352 6.74981 13.1836 6.74981 12.6914V6.78516H3.65606C3.02324 6.78516 2.70684 6.04688 3.16387 5.58984L8.50762 0.246094C8.75371 0 9.21074 0 9.45684 0.246094L14.8006 5.58984C15.2576 6.04688 14.9412 6.78516 14.3084 6.78516H11.2498V12.6914C11.2498 13.1836 10.8631 13.5352 10.4061 13.5352ZM17.9998 13.2539V17.1914C17.9998 17.6836 17.6131 18.0352 17.1561 18.0352H0.843555C0.351368 18.0352 -0.00019455 17.6836 -0.00019455 17.1914V13.2539C-0.00019455 12.7969 0.351368 12.4102 0.843555 12.4102H5.62481V12.6914C5.62481 13.7812 6.50371 14.6602 7.59356 14.6602H10.4061C11.4607 14.6602 12.3748 13.7812 12.3748 12.6914V12.4102H17.1561C17.6131 12.4102 17.9998 12.7969 17.9998 13.2539ZM13.6404 16.3477C13.6404 15.9609 13.324 15.6445 12.9373 15.6445C12.5506 15.6445 12.2342 15.9609 12.2342 16.3477C12.2342 16.7344 12.5506 17.0508 12.9373 17.0508C13.324 17.0508 13.6404 16.7344 13.6404 16.3477ZM15.8904 16.3477C15.8904 15.9609 15.574 15.6445 15.1873 15.6445C14.8006 15.6445 14.4842 15.9609 14.4842 16.3477C14.4842 16.7344 14.8006 17.0508 15.1873 17.0508C15.574 17.0508 15.8904 16.7344 15.8904 16.3477Z" fill="#0C231F"/>
</svg>
